{"glyphs":{"0":{"ha":794,"x_min":5,"x_max":793,"o":"m 132 564 q 33 322 33 463 q 60 190 33 252 q 133 81 87 127 q 241 7 179 35 q 374 -20 303 -20 q 507 7 444 -20 q 616 81 569 35 q 690 190 663 127 q 717 322 717 252 q 689 454 717 392 q 615 564 662 517 q 506 638 568 610 q 374 665 444 665 q 132 564 232 665 m 374 693 q 543 664 466 693 q 675 586 620 635 q 762 468 731 536 q 793 322 793 400 q 762 177 793 244 q 676 59 731 109 q 543 -19 621 9 q 374 -47 466 -47 q 113 61 221 -47 q 5 322 5 170 q 113 584 5 475 q 374 693 221 693 m 125 321 q 197 500 125 427 q 372 574 269 574 q 552 500 478 574 q 625 321 625 427 q 552 145 625 218 q 372 72 478 72 q 198 145 271 72 q 125 321 125 218 m 201 321 q 258 174 201 236 q 396 102 314 111 q 540 173 482 110 q 597 321 597 236 q 540 471 597 408 q 396 545 482 534 q 257 471 313 534 q 201 321 201 408 z "},"1":{"ha":794,"x_min":157,"x_max":642,"o":"m 439 93 l 439 551 q 484 598 440 585 q 606 615 528 611 q 606 648 612 632 l 193 648 q 193 615 186 632 q 232 609 220 611 q 269 600 243 607 q 306 581 294 593 q 318 551 318 570 q 318 93 326 322 q 306 63 318 75 q 269 44 294 52 q 232 35 243 37 q 193 29 220 33 q 193 -4 186 12 l 606 -4 q 606 29 612 12 q 483 46 528 33 q 439 93 439 60 m 290 94 q 290 550 300 315 q 168 591 289 575 q 168 673 157 632 l 631 673 q 631 591 642 632 q 534 550 536 576 q 534 94 524 335 q 631 53 536 68 q 631 -29 642 12 l 168 -29 q 168 53 157 12 q 290 94 289 69 z "},"2":{"ha":794,"x_min":62,"x_max":708,"o":"m 364 243 l 93 56 q 115 0 100 11 l 582 0 l 644 227 q 619 233 637 233 q 558 165 597 196 q 471 134 518 134 l 300 134 l 300 140 l 467 243 q 612 469 612 339 q 551 612 612 559 q 386 665 490 665 q 205 616 278 665 q 132 475 132 567 q 142 411 132 440 q 167 365 153 382 q 197 335 182 347 q 222 319 212 323 l 233 315 q 262 340 257 317 q 216 460 216 379 q 258 551 216 519 q 370 583 300 583 q 446 551 410 583 q 482 446 482 519 q 455 332 482 376 q 364 243 428 288 m 604 249 q 673 227 647 249 l 612 -28 l 107 -28 q 62 66 75 -4 l 349 265 q 454 446 454 340 q 434 520 454 494 q 387 553 414 546 q 318 522 343 546 q 293 460 293 498 q 305 402 293 429 q 329 363 317 375 l 342 350 q 278 288 328 292 l 229 288 q 215 293 224 289 q 185 312 207 297 q 148 347 164 328 q 118 401 131 367 q 104 475 104 435 q 185 637 104 581 q 386 693 265 693 q 627 634 546 693 q 708 469 708 575 q 539 220 708 322 l 444 161 l 475 161 q 549 189 514 163 q 604 249 585 215 z "},"3":{"ha":794,"x_min":18,"x_max":707,"o":"m 283 -350 q 160 -329 211 -350 q 78 -278 110 -309 q 33 -214 47 -248 q 18 -153 18 -180 q 27 -104 18 -126 q 52 -65 36 -81 q 88 -40 67 -49 q 134 -31 109 -31 q 236 -132 236 -31 q 171 -231 236 -204 q 286 -252 213 -252 q 350 -231 320 -252 q 402 -176 380 -211 q 437 -94 425 -141 q 450 7 450 -47 q 342 163 450 146 q 244 134 296 157 l 196 134 l 157 224 l 292 289 q 384 365 353 319 q 415 471 415 410 q 408 502 415 487 q 389 529 401 517 q 360 547 377 540 q 323 553 343 553 q 280 547 301 553 q 244 529 260 541 q 218 502 228 518 q 208 468 208 486 q 239 361 208 404 q 174 313 216 317 q 78 481 78 374 q 96 567 78 528 q 147 634 113 606 q 232 677 181 662 q 349 693 282 693 q 671 473 671 693 q 637 363 671 414 q 546 277 604 311 q 707 25 707 220 q 578 -243 707 -138 q 283 -350 451 -350 m 279 -279 q 145 -240 195 -279 q 96 -151 96 -200 q 131 -90 96 -102 q 131 -58 140 -77 q 71 -84 94 -58 q 47 -157 47 -110 q 113 -269 47 -215 q 281 -322 178 -322 q 505 -222 399 -322 q 611 25 611 -122 q 549 201 611 143 q 400 265 488 258 l 400 272 q 524 351 472 294 q 575 473 575 407 q 513 619 575 572 q 349 665 452 665 q 168 614 231 665 q 106 481 106 562 q 180 342 106 390 q 207 359 199 345 q 171 468 171 400 q 208 551 171 519 q 322 583 245 583 q 409 549 375 583 q 443 471 443 515 q 304 264 443 332 l 193 210 l 210 170 q 315 193 267 193 q 431 151 385 193 q 478 7 478 109 q 423 -201 478 -122 q 279 -279 368 -279 z "},"4":{"ha":781,"x_min":-8,"x_max":821,"o":"m 149 126 l 424 473 l 424 126 l 149 126 m 541 127 l 542 657 q 517 665 533 665 l 20 40 q 37 0 20 8 l 421 0 l 421 -297 l 541 -297 l 541 0 l 720 1 l 739 127 l 541 127 m -8 50 l 503 693 q 636 661 604 693 l 636 154 l 821 154 l 794 -26 l 636 -28 l 636 -325 l 393 -325 l 393 -28 l 31 -28 q -8 50 -8 -7 m 273 154 l 396 154 l 396 307 l 273 154 z "},"5":{"ha":794,"x_min":-11,"x_max":700,"o":"m 250 -278 q 116 -238 165 -278 q 66 -150 66 -199 q 102 -89 66 -100 q 102 -57 111 -75 q 42 -83 65 -57 q 18 -155 18 -109 q 84 -268 18 -214 q 256 -322 150 -322 q 499 -220 395 -322 q 604 32 604 -118 q 575 184 604 122 q 492 279 546 245 q 372 327 437 313 q 221 340 307 340 l 250 511 l 589 511 l 643 720 q 610 729 631 729 q 564 669 589 690 q 468 644 539 648 l 212 644 q 138 241 189 401 q 180 203 153 208 q 297 196 249 203 q 394 170 346 189 q 467 108 441 150 q 492 4 492 66 q 420 -211 492 -143 q 250 -278 349 -278 m 591 757 q 673 730 643 757 l 610 484 l 332 484 l 313 368 q 599 291 498 366 q 700 32 700 216 q 558 -237 700 -126 q 254 -349 416 -349 q 129 -328 183 -349 q 46 -275 75 -307 q 3 -211 17 -243 q -11 -151 -11 -179 q 22 -64 -11 -98 q 104 -29 56 -29 q 199 -134 199 -29 q 136 -225 199 -197 q 198 -246 154 -239 q 269 -249 243 -253 q 408 -181 351 -241 q 464 4 464 -121 q 440 94 464 58 q 372 146 416 129 q 282 169 328 163 q 175 175 237 175 q 137 194 151 180 q 109 239 123 207 q 187 672 161 404 l 479 672 q 538 689 516 673 q 569 717 559 704 q 591 757 579 730 z "},"6":{"ha":794,"x_min":5,"x_max":800,"o":"m 518 302 q 468 86 518 147 q 355 25 418 25 q 210 93 262 25 q 158 282 158 160 q 249 554 158 461 q 458 493 400 553 q 518 302 517 433 m 710 937 l 693 964 q 655 953 679 960 q 563 918 632 946 q 432 856 494 889 q 294 767 370 823 q 163 648 218 711 q 71 495 109 585 q 33 309 33 406 q 56 172 33 232 q 111 77 78 113 q 190 19 144 41 q 275 -12 235 -4 q 357 -20 315 -20 q 562 67 472 -20 q 652 302 652 154 q 281 603 652 603 q 710 937 435 804 m 754 996 l 800 926 q 386 629 532 798 q 747 302 747 607 q 640 46 747 139 q 382 -47 533 -47 q 278 -38 328 -47 q 178 -5 229 -29 q 90 58 126 20 q 29 160 53 96 q 5 309 5 225 q 44 503 5 410 q 144 663 83 596 q 280 788 205 730 q 430 883 355 846 q 567 946 505 920 q 705 996 628 972 l 754 996 m 490 302 q 451 460 489 408 q 313 524 412 513 q 254 282 254 441 q 287 125 254 184 q 378 56 319 66 q 457 123 424 65 q 490 302 490 180 z "},"7":{"ha":794,"x_min":72,"x_max":796,"o":"m 258 -97 l 718 610 q 708 632 717 621 q 689 644 700 644 l 216 644 l 183 665 q 157 648 168 665 q 153 595 156 627 q 143 531 149 564 q 131 467 138 498 q 115 416 123 437 q 154 400 130 400 q 161 414 154 401 q 184 452 168 427 q 216 485 199 473 q 250 503 233 497 q 281 510 267 509 q 304 511 295 511 l 570 511 l 167 -96 l 124 -157 q 116 -173 120 -163 q 108 -192 112 -182 q 102 -213 104 -202 q 100 -232 100 -223 q 126 -298 100 -273 q 208 -323 153 -323 q 216 -314 213 -321 q 220 -300 220 -308 q 216 -289 220 -293 q 182 -258 182 -288 q 258 -97 184 -212 m 220 372 q 168 373 188 372 q 133 377 148 374 q 107 389 119 381 q 83 411 96 397 q 100 466 92 433 q 114 534 108 499 q 124 602 120 569 q 129 659 128 635 q 192 693 152 693 l 227 672 l 708 672 q 738 665 723 672 q 766 647 753 658 q 786 625 778 637 q 796 603 795 613 l 288 -170 q 317 -243 317 -201 q 308 -284 317 -265 q 284 -318 300 -304 q 245 -341 268 -333 q 193 -350 222 -350 q 104 -318 136 -350 q 72 -232 72 -287 q 74 -211 72 -222 q 80 -189 77 -199 q 86 -170 83 -178 q 94 -155 90 -161 q 203 10 96 -150 q 518 485 309 170 l 347 485 q 308 478 325 485 q 276 457 290 471 q 248 422 261 444 q 220 372 235 401 z "},"8":{"ha":794,"x_min":49,"x_max":750,"o":"m 370 454 q 413 449 392 454 q 463 425 433 443 q 510 361 492 407 q 528 248 528 315 q 485 74 528 122 q 370 25 443 25 q 252 74 301 25 q 203 237 203 122 q 255 401 203 349 q 370 454 307 454 m 370 498 q 323 506 346 498 q 276 531 301 513 q 234 594 250 550 q 218 701 218 637 q 258 865 218 810 q 368 920 298 920 q 465 866 432 920 q 497 718 497 812 q 468 565 497 632 q 370 498 439 498 m 260 481 l 260 471 q 240 466 253 469 q 196 445 228 463 q 140 405 164 428 q 97 337 117 382 q 77 237 77 293 q 106 117 77 170 q 183 37 136 65 q 276 -6 229 8 q 368 -20 323 -20 q 566 48 478 -20 q 654 250 654 117 q 530 457 654 400 q 488 472 488 472 l 488 481 q 535 511 511 492 q 576 555 558 530 q 609 623 595 579 q 624 718 624 667 q 604 828 624 781 q 555 900 583 875 q 490 940 528 925 q 425 960 453 956 q 371 964 397 964 q 326 961 351 964 q 257 943 301 958 q 178 903 212 928 q 118 825 144 878 q 92 703 92 772 q 216 496 92 555 q 260 481 260 481 m 49 237 q 193 476 49 404 q 64 703 64 545 q 92 838 64 781 q 158 924 121 896 q 245 968 196 951 q 321 988 294 985 q 371 991 349 991 q 720 718 720 991 q 597 482 720 564 q 750 250 750 412 q 640 26 750 100 q 368 -47 529 -47 q 269 -32 321 -47 q 165 15 216 -17 q 81 104 114 46 q 49 237 49 163 m 500 248 q 397 424 500 403 q 328 367 357 412 q 298 237 298 322 q 396 54 298 74 q 500 248 500 72 m 469 718 q 393 888 469 867 q 314 701 314 865 q 392 529 314 554 q 469 718 469 553 z "},"9":{"ha":794,"x_min":-41,"x_max":750,"o":"m 0 -292 l 17 -318 q 197 -248 149 -272 q 295 -194 244 -224 q 388 -132 347 -165 q 489 -44 441 -94 q 574 65 537 5 q 633 192 611 124 q 654 337 654 260 q 640 454 654 404 q 602 540 626 504 q 546 601 578 576 q 481 640 515 625 q 413 660 447 654 q 350 665 379 665 q 233 643 290 665 q 133 579 176 621 q 62 478 89 538 q 36 343 36 418 q 64 205 36 262 q 144 113 92 149 q 268 60 195 77 q 429 43 340 43 q 0 -292 275 -159 m 170 343 q 188 484 170 425 q 235 571 205 543 q 293 610 265 599 q 351 621 321 621 q 482 553 435 621 q 529 364 529 486 q 456 92 529 168 q 233 153 296 93 q 170 343 171 212 m 53 -350 l 4 -350 l -41 -281 q 372 17 227 -151 q 8 343 8 39 q 112 599 8 505 q 350 693 215 693 q 491 678 427 693 q 617 625 555 663 q 714 514 679 587 q 750 338 750 441 q 712 143 750 236 q 612 -17 673 50 q 476 -142 550 -85 q 327 -239 401 -200 q 53 -350 252 -279 m 265 343 q 306 185 267 237 q 444 122 345 134 q 501 364 501 199 q 468 520 501 461 q 376 590 435 579 q 265 343 265 562 z "}," ":{"ha":361,"x_min":0,"x_max":0,"o":""},"!":{"ha":558,"x_min":143,"x_max":419,"o":"m 231 236 l 264 236 l 269 332 q 277 443 272 381 q 288 569 282 505 q 300 696 294 633 q 312 810 307 759 q 320 897 317 861 q 323 942 323 932 q 315 982 323 967 q 294 1006 306 998 q 269 1017 281 1014 q 247 1019 256 1019 q 227 1017 240 1019 q 202 1007 214 1015 q 180 984 189 1000 q 171 942 171 969 q 174 901 171 935 q 183 818 178 868 q 195 704 189 767 q 208 576 202 642 q 219 447 214 511 q 227 332 224 384 l 231 236 m 193 125 q 172 66 172 102 q 178 34 172 49 q 194 7 184 19 q 217 -11 203 -4 q 245 -17 230 -17 q 275 -10 261 -17 q 298 8 288 -3 q 314 35 308 20 q 319 66 319 50 q 314 99 319 84 q 298 126 308 115 q 274 143 288 137 q 245 150 260 150 q 193 125 214 150 m 256 178 q 408 66 408 178 q 256 -45 408 -45 q 213 -36 233 -45 q 177 -12 193 -27 q 153 24 162 3 q 144 66 144 44 q 153 110 144 90 q 177 145 162 130 q 213 169 193 160 q 256 178 233 178 m 358 208 l 204 208 l 199 330 q 160 762 191 522 q 143 942 143 889 q 156 998 143 975 q 189 1030 168 1021 q 225 1044 210 1040 q 257 1047 241 1047 q 317 1044 292 1047 q 368 1030 342 1040 q 406 999 393 1021 q 419 942 419 977 q 401 733 419 893 q 366 330 374 479 l 358 208 z "},"\"":{"ha":636,"x_min":83,"x_max":557,"o":"m 347 968 l 389 699 l 440 699 l 481 968 q 462 1006 481 993 q 414 1019 443 1019 q 347 968 347 1019 m 111 968 l 153 699 l 204 699 l 244 968 q 225 1006 244 993 q 178 1019 207 1019 q 111 968 111 1019 m 129 671 l 83 964 q 110 1026 83 1004 q 178 1047 136 1047 q 282 1030 249 1047 q 319 977 315 1014 q 414 1047 328 1047 q 557 964 557 1047 l 514 671 l 366 671 l 319 958 l 278 671 l 129 671 z "},"#":{"ha":794,"x_min":-72,"x_max":871,"o":"m 467 346 l 241 346 l 290 665 l 514 665 l 467 346 m 414 0 l 497 0 l 542 279 l 721 279 l 730 346 l 551 346 l 602 665 l 779 665 l 790 734 l 614 734 l 657 997 l 568 997 l 529 734 l 300 734 l 343 997 l 258 997 l 215 734 l 28 734 l 20 665 l 207 665 l 154 346 l -31 346 l -40 279 l 143 279 l 102 0 l 186 0 l 233 279 l 458 279 l 414 0 m 570 -28 l 380 -28 l 427 252 l 307 252 l 258 -28 l 68 -28 l 110 252 l -72 252 l -56 374 l 129 374 l 174 637 l -12 637 l 3 762 l 191 762 l 235 1025 l 425 1025 l 382 762 l 504 762 l 543 1025 l 739 1025 l 696 762 l 871 762 l 852 637 l 673 637 l 633 374 l 811 374 l 794 252 l 615 252 l 570 -28 m 322 374 l 441 374 l 482 637 l 364 637 l 322 374 z "},"$":{"ha":794,"x_min":31,"x_max":768,"o":"m 189 807 q 231 917 189 873 q 351 968 273 960 l 351 567 q 223 661 257 599 q 189 807 189 722 m 558 224 q 519 93 558 146 q 407 26 479 40 l 407 440 q 526 360 494 410 q 558 224 558 310 m 615 726 q 643 726 631 722 q 579 939 640 860 q 407 1018 518 1018 l 407 1105 l 351 1105 l 351 1018 q 259 998 302 1014 q 176 951 215 982 q 113 867 136 921 q 89 741 89 812 q 156 559 89 624 q 351 457 222 494 l 351 22 q 185 93 257 25 q 90 323 114 161 q 61 323 75 330 q 75 150 75 228 q 72 50 75 119 q 351 -28 215 -25 l 351 -118 l 407 -118 l 407 -24 q 596 72 515 -8 q 677 285 677 151 q 655 394 677 347 q 589 471 632 441 q 505 519 546 501 q 407 551 464 536 l 407 970 q 615 726 571 951 m 165 342 q 323 66 196 122 l 323 436 q 130 548 199 478 q 61 741 61 618 q 137 955 61 882 q 323 1043 212 1028 l 323 1133 l 484 1133 l 484 1044 q 667 974 550 1036 q 673 710 648 863 q 591 705 633 688 q 484 913 559 860 l 484 600 q 588 561 543 582 q 677 503 633 539 q 745 412 721 467 q 768 285 768 357 q 684 62 768 147 q 484 -47 600 -24 l 484 -146 l 323 -146 l 323 -54 q 43 33 195 -43 q 47 150 47 138 q 31 339 47 220 q 96 349 49 349 q 165 342 143 350 m 530 224 q 484 364 530 315 l 484 93 q 530 224 530 139 m 279 807 q 287 721 279 753 q 323 664 294 689 l 323 908 q 279 807 279 872 z "},"%":{"ha":1406,"x_min":77,"x_max":1333,"o":"m 808 232 q 865 365 808 310 q 1000 419 921 419 q 1133 365 1078 419 q 1187 232 1187 310 q 1132 102 1187 157 q 1000 47 1076 47 q 865 102 922 47 q 808 232 808 157 m 749 233 q 822 54 749 127 q 1002 -20 896 -20 q 1175 54 1103 -20 q 1247 233 1247 127 q 1175 414 1247 339 q 1002 489 1103 489 q 822 415 896 489 q 749 233 749 340 m 164 761 q 220 894 164 839 q 355 949 277 949 q 488 894 433 949 q 543 761 543 839 q 488 631 543 686 q 355 576 432 576 q 221 631 278 576 q 164 761 164 686 m 104 762 q 178 584 104 657 q 357 510 252 510 q 531 584 458 510 q 603 763 603 657 q 531 943 603 868 q 357 1018 458 1018 q 178 944 252 1018 q 104 762 104 869 m 901 1057 l 387 -41 l 447 -66 l 961 1035 l 901 1057 m 77 762 q 158 963 77 880 q 357 1046 240 1046 q 515 1018 443 1046 q 638 924 587 990 q 689 762 689 857 q 598 563 689 643 q 357 482 507 482 q 158 564 240 482 q 77 762 77 646 m 721 233 q 803 434 721 351 q 1002 517 885 517 q 1242 435 1152 517 q 1333 233 1333 354 q 1242 33 1333 114 q 1002 -47 1152 -47 q 803 35 885 -47 q 721 233 721 117 m 351 -56 l 888 1092 l 936 1092 l 1047 1051 l 510 -103 l 461 -103 l 351 -56 m 895 232 q 932 131 895 175 q 1025 77 970 86 q 1121 131 1082 86 q 1160 232 1160 175 q 1121 336 1160 292 q 1025 389 1082 380 q 932 336 970 380 q 895 232 895 292 m 250 761 q 288 660 250 704 q 380 606 325 615 q 476 660 437 615 q 515 761 515 704 q 477 864 515 819 q 380 918 439 908 q 288 865 325 909 q 250 761 250 821 z "},"&":{"ha":1120,"x_min":69,"x_max":1097,"o":"m 982 182 q 1064 155 1030 182 q 1042 78 1056 115 q 1005 13 1029 41 q 944 -32 981 -15 q 851 -49 907 -49 q 772 -36 794 -47 q 724 -11 749 -26 q 664 47 699 5 q 589 -1 624 18 q 519 -31 555 -20 q 446 -45 484 -41 q 359 -49 408 -49 q 264 -37 307 -49 q 190 -4 222 -25 q 135 44 157 16 q 97 102 112 71 q 76 166 83 133 q 69 229 69 199 q 78 302 69 261 q 110 385 87 342 q 173 468 133 427 q 273 542 212 509 q 229 591 248 567 q 197 642 210 616 q 178 696 184 667 q 172 761 172 726 q 192 852 172 810 q 247 925 212 895 q 328 974 281 956 q 427 991 374 991 q 632 940 564 991 q 700 779 700 889 q 691 707 700 739 q 664 649 682 675 q 618 598 646 622 q 551 550 590 574 q 720 345 636 461 q 763 445 746 395 q 781 535 781 494 q 780 544 781 540 q 772 551 779 548 q 753 555 766 553 q 714 559 739 557 q 707 602 707 581 q 714 648 707 624 q 899 644 806 644 q 1086 648 991 644 q 1097 608 1097 631 q 1095 586 1097 597 q 1088 562 1093 574 q 982 509 1008 553 l 811 215 q 924 97 876 116 q 982 182 960 116 m 733 587 q 761 583 747 585 q 785 574 774 580 q 803 559 796 569 q 809 534 809 550 q 775 404 809 475 q 681 256 741 333 q 439 555 553 441 q 511 602 479 578 q 563 653 542 626 q 594 711 583 680 q 604 779 604 742 q 556 918 604 872 q 427 964 509 964 q 338 948 380 964 q 267 904 297 932 q 218 840 236 877 q 200 761 200 803 q 207 697 200 725 q 228 644 213 669 q 265 593 242 618 q 321 534 288 567 q 211 463 254 503 q 142 381 168 422 q 107 301 117 340 q 97 229 97 261 q 111 144 97 189 q 156 63 125 100 q 237 3 186 26 q 359 -21 287 -21 q 650 115 504 -21 q 693 56 670 84 q 752 7 716 28 q 811 -18 787 -14 q 851 -21 836 -21 q 924 -9 894 -21 q 976 25 955 3 q 1010 78 997 47 q 1034 146 1024 109 q 1002 154 1023 154 q 901 65 966 65 q 871 70 886 65 q 836 83 855 75 q 788 122 817 91 q 708 214 759 154 l 900 525 q 1060 587 930 575 q 1064 602 1064 594 q 1060 619 1064 610 q 970 616 1013 617 q 886 616 926 616 q 806 616 844 616 q 733 619 768 617 q 730 604 730 612 q 733 587 730 594 m 403 589 q 298 762 298 673 q 334 862 298 822 q 433 903 370 903 q 513 871 481 903 q 546 777 546 840 q 502 662 546 710 q 403 589 458 614 m 621 163 q 422 81 545 81 q 269 128 329 81 q 210 262 210 175 q 253 410 210 347 q 359 496 297 472 q 621 163 518 330 m 449 109 q 585 167 526 115 q 374 441 493 314 q 306 262 306 380 q 345 154 306 193 q 449 109 385 115 m 518 777 q 457 871 518 856 q 411 832 427 861 q 395 762 395 803 q 452 643 395 703 q 518 777 518 699 z "},"'":{"ha":400,"x_min":83,"x_max":321,"o":"m 111 968 l 153 699 l 204 699 l 244 968 q 225 1006 244 993 q 178 1019 207 1019 q 111 968 111 1019 m 129 671 l 83 964 q 110 1026 83 1004 q 178 1047 136 1047 q 321 964 321 1047 l 278 671 l 129 671 z "},"(":{"ha":661,"x_min":111,"x_max":633,"o":"m 524 -290 l 546 -269 q 435 -132 484 -210 q 349 46 386 -54 q 295 237 313 146 q 277 410 277 328 q 546 1089 277 797 l 524 1109 q 398 1008 452 1062 q 302 897 343 954 q 233 785 261 841 q 186 678 205 729 q 154 554 168 627 q 139 410 139 481 q 145 315 139 373 q 172 184 151 256 q 236 30 193 112 q 333 -117 278 -53 q 431 -219 388 -182 q 524 -290 474 -257 m 526 1146 l 575 1146 l 628 1095 q 554 1005 588 1055 q 491 901 519 956 q 440 785 463 846 q 403 662 418 724 q 380 535 388 599 q 372 410 372 471 q 633 -271 372 26 l 575 -326 l 526 -326 q 366 -191 433 -262 q 253 -50 299 -121 q 179 90 207 21 q 136 218 151 158 q 116 328 121 279 q 111 410 111 377 q 115 488 111 439 q 134 595 119 536 q 175 724 148 655 q 249 865 203 793 q 363 1008 295 937 q 526 1146 431 1080 z "},")":{"ha":661,"x_min":32,"x_max":554,"o":"m 71 -269 l 93 -290 q 214 -186 161 -241 q 304 -75 266 -132 q 370 37 343 -18 q 413 144 396 93 q 439 238 430 195 q 451 310 448 281 q 457 363 455 339 q 458 410 458 388 q 452 505 458 446 q 426 636 446 564 q 365 791 405 709 q 256 958 324 874 q 93 1109 185 1044 l 71 1089 q 321 410 321 817 q 71 -269 321 2 m 139 -326 l 90 -326 l 32 -269 q 144 -124 96 -203 q 226 40 193 -46 q 276 220 259 127 q 293 410 293 313 q 276 598 293 505 q 226 779 259 692 q 144 944 193 866 q 32 1089 96 1023 l 90 1146 l 139 1146 q 304 1005 236 1079 q 419 858 373 932 q 492 715 465 785 q 533 586 519 645 q 550 480 547 526 q 554 410 554 435 q 550 334 554 381 q 533 228 547 287 q 492 99 519 168 q 418 -42 465 30 q 304 -187 372 -115 q 139 -326 235 -260 z "},"*":{"ha":747,"x_min":69,"x_max":682,"o":"m 292 734 q 293 720 292 726 l 176 690 q 97 610 97 669 q 158 564 97 564 q 188 574 170 564 q 225 606 205 584 l 310 693 q 336 679 322 681 l 301 562 q 294 518 294 539 q 351 449 294 449 q 392 469 378 449 q 407 522 407 490 q 401 562 407 544 l 366 681 q 390 694 380 685 l 478 606 q 555 567 515 567 q 606 614 606 567 q 526 690 606 670 l 406 721 q 407 734 407 726 q 404 750 407 740 l 526 779 q 584 809 563 788 q 606 860 606 830 q 593 889 606 876 q 555 903 581 903 q 478 863 516 901 l 392 774 q 366 790 385 782 l 401 908 q 406 929 404 919 q 407 950 407 939 q 392 1001 407 983 q 351 1019 378 1019 q 310 1001 325 1019 q 294 953 294 983 q 296 932 294 943 q 301 908 297 921 l 336 791 q 309 777 319 787 l 216 872 q 201 888 207 882 q 187 898 195 894 q 170 903 180 901 q 143 904 159 904 q 125 900 134 904 q 111 889 117 896 q 101 875 104 883 q 97 860 97 867 q 176 779 97 798 l 293 750 q 292 734 292 745 m 69 610 q 170 717 69 692 l 241 734 l 170 753 l 171 753 q 69 860 69 775 q 91 908 69 884 q 143 932 113 932 q 275 899 211 932 q 267 953 267 928 q 289 1021 267 996 q 351 1047 311 1047 q 403 1044 383 1047 q 443 1033 422 1042 q 474 1003 464 1023 q 484 950 484 983 q 475 899 484 924 q 555 930 510 930 l 604 930 q 662 908 642 930 q 682 860 682 886 q 652 796 682 825 q 582 753 623 766 l 511 733 l 582 717 q 682 614 682 689 q 663 560 682 581 q 604 539 643 539 q 476 568 511 539 q 484 522 484 546 q 351 421 484 421 q 267 518 267 421 q 273 568 267 546 q 207 536 236 536 l 158 536 q 95 554 121 536 q 69 610 69 572 z "},"+":{"ha":1065,"x_min":97,"x_max":972,"o":"m 471 97 l 550 97 l 550 443 l 896 443 l 896 521 l 550 521 l 550 868 l 471 868 l 471 521 l 125 521 l 125 443 l 471 443 l 471 97 m 627 69 l 443 69 l 443 415 l 97 415 l 97 549 l 443 549 l 443 896 l 627 896 l 627 549 l 972 549 l 972 415 l 627 415 l 627 69 z "},",":{"ha":464,"x_min":83,"x_max":371,"o":"m 125 -147 l 160 -178 q 255 -74 215 -142 q 294 58 294 -5 q 269 129 294 107 q 204 150 243 150 q 148 124 171 150 q 125 66 125 98 q 217 -14 125 -14 q 125 -147 199 -83 m 207 -212 l 158 -212 l 83 -147 q 180 -39 161 -81 q 97 66 97 -26 q 127 144 97 110 q 204 178 158 178 q 253 176 233 178 q 298 168 273 175 q 337 150 322 161 q 361 114 351 138 q 371 58 371 90 q 322 -90 371 -11 q 207 -212 273 -170 z "},"-":{"ha":707,"x_min":97,"x_max":614,"o":"m 125 364 l 125 279 l 538 279 l 538 364 l 125 364 m 97 252 l 97 392 l 614 392 l 614 252 l 97 252 z "},".":{"ha":464,"x_min":97,"x_max":361,"o":"m 146 123 q 125 65 125 100 q 131 33 125 48 q 146 6 136 18 q 170 -12 157 -5 q 199 -18 183 -18 q 227 -12 214 -18 q 250 6 240 -5 q 266 33 260 18 q 272 65 272 48 q 266 97 272 82 q 250 123 260 112 q 227 142 240 135 q 199 149 214 149 q 146 123 168 149 m 208 176 q 361 65 361 176 q 208 -46 361 -46 q 166 -37 186 -46 q 131 -14 146 -28 q 106 22 115 1 q 97 65 97 42 q 106 109 97 88 q 130 144 115 129 q 165 168 145 159 q 208 176 186 176 z "},"/":{"ha":932,"x_min":83,"x_max":852,"o":"m 125 -289 l 215 -289 l 762 1099 l 669 1099 l 125 -289 m 283 -317 l 83 -317 l 650 1126 l 852 1126 l 283 -317 z "},":":{"ha":464,"x_min":97,"x_max":371,"o":"m 150 125 q 131 97 137 112 q 125 65 125 81 q 132 33 125 48 q 150 6 138 18 q 177 -13 162 -6 q 210 -20 193 -20 q 242 -13 227 -20 q 269 6 257 -6 q 288 33 281 18 q 294 65 294 48 q 288 97 294 82 q 269 124 281 113 q 242 143 257 136 q 210 150 227 150 q 178 143 193 150 q 150 125 162 137 m 210 178 q 269 174 239 178 q 320 158 298 170 q 357 124 343 146 q 371 65 371 102 q 360 9 371 31 q 328 -25 349 -13 q 277 -43 307 -38 q 210 -47 247 -47 q 166 -39 186 -47 q 131 -15 146 -30 q 106 21 115 1 q 97 65 97 41 q 106 110 97 89 q 130 145 115 130 q 166 169 145 161 q 210 178 186 178 m 150 587 q 125 528 125 564 q 132 494 125 509 q 150 467 138 479 q 177 449 162 456 q 210 443 193 443 q 242 449 227 443 q 269 467 257 456 q 287 494 280 479 q 294 528 294 509 q 287 561 294 546 q 269 588 280 576 q 242 606 257 600 q 210 612 227 612 q 178 606 193 612 q 150 587 163 600 m 210 640 q 269 636 240 640 q 320 621 298 633 q 357 586 343 608 q 371 528 371 564 q 360 471 371 493 q 328 437 349 450 q 277 420 307 425 q 210 415 247 415 q 165 424 186 415 q 130 448 145 433 q 106 484 115 463 q 97 528 97 504 q 106 572 97 551 q 130 608 115 593 q 166 632 145 623 q 210 640 186 640 z "},";":{"ha":464,"x_min":83,"x_max":371,"o":"m 125 -147 l 160 -178 q 211 -133 186 -161 q 254 -74 235 -106 q 283 -7 272 -42 q 294 58 294 27 q 269 129 294 107 q 204 150 243 150 q 173 143 188 150 q 148 124 159 136 q 131 97 137 112 q 125 66 125 82 q 212 -14 125 -14 l 216 -18 q 125 -147 199 -83 m 207 -212 l 158 -212 l 83 -147 q 147 -87 123 -114 q 180 -39 171 -60 q 97 66 97 -26 q 105 108 97 88 q 127 144 113 128 q 161 169 142 159 q 204 178 181 178 q 330 151 289 178 q 371 58 371 123 q 357 -14 371 24 q 321 -90 344 -53 q 269 -159 298 -127 q 207 -212 239 -191 m 150 587 q 125 528 125 564 q 132 494 125 509 q 150 467 138 479 q 177 449 162 456 q 210 443 193 443 q 242 449 227 443 q 269 467 257 456 q 287 494 280 479 q 294 528 294 509 q 287 561 294 546 q 269 588 280 576 q 242 606 257 600 q 210 612 227 612 q 178 606 193 612 q 150 587 163 600 m 210 640 q 269 636 240 640 q 320 621 298 633 q 357 586 343 608 q 371 528 371 564 q 360 471 371 493 q 328 437 349 450 q 277 420 307 425 q 210 415 247 415 q 165 424 186 415 q 130 448 145 433 q 106 484 115 463 q 97 528 97 504 q 106 572 97 551 q 130 608 115 593 q 166 632 145 623 q 210 640 186 640 z "},"<":{"ha":1132,"x_min":56,"x_max":1048,"o":"m 962 208 l 321 485 l 962 758 l 929 832 l 125 484 l 929 135 l 962 208 m 440 485 l 1048 222 l 991 98 l 943 98 l 56 484 l 943 868 l 991 868 l 1048 745 l 440 485 z "},"=":{"ha":1065,"x_min":97,"x_max":972,"o":"m 125 568 l 896 568 l 896 646 l 125 646 l 125 568 m 125 318 l 896 318 l 896 396 l 125 396 l 125 318 m 972 290 l 97 290 l 97 424 l 972 424 l 972 290 m 972 541 l 97 541 l 97 673 l 972 673 l 972 541 z "},">":{"ha":1132,"x_min":87,"x_max":1080,"o":"m 766 485 l 125 208 l 158 135 l 962 484 l 158 832 l 125 758 l 766 485 m 87 222 l 697 485 l 87 745 l 144 868 l 193 868 l 1080 484 l 193 98 l 144 98 l 87 222 z "},"?":{"ha":771,"x_min":35,"x_max":664,"o":"m 254 164 q 407 53 407 164 q 254 -58 407 -58 q 212 -50 232 -58 q 176 -26 191 -41 q 152 9 161 -11 q 143 52 143 29 q 152 96 143 75 q 176 131 161 116 q 212 155 191 146 q 254 164 232 164 m 192 111 q 171 53 171 88 q 177 20 171 35 q 192 -6 182 5 q 215 -24 202 -18 q 244 -31 229 -31 q 273 -24 260 -31 q 297 -5 287 -17 q 312 21 307 6 q 318 53 318 36 q 312 85 318 70 q 297 111 307 100 q 273 130 287 123 q 244 136 260 136 q 192 111 213 136 m 336 1047 q 570 981 476 1047 q 664 796 664 916 q 631 667 664 724 q 550 573 597 611 q 455 499 503 534 q 375 417 408 464 q 342 311 342 370 l 342 208 l 184 208 l 184 332 q 208 455 184 401 q 262 543 231 509 q 326 612 294 578 q 381 696 358 646 q 404 811 404 746 q 380 897 404 860 q 304 940 357 933 q 214 904 239 940 q 250 829 250 879 q 221 756 250 786 q 146 726 192 726 q 64 755 94 726 q 35 838 35 783 q 114 982 35 917 q 336 1047 193 1047 m 288 1019 q 132 967 196 1019 q 68 842 68 916 q 92 779 68 802 q 151 757 115 757 q 151 789 161 775 q 117 836 117 799 q 160 933 117 896 q 286 970 204 970 q 397 922 363 970 q 432 811 432 875 q 409 693 432 745 q 354 607 386 642 q 290 537 322 572 q 235 450 258 501 q 212 332 212 399 l 212 236 l 245 236 l 245 311 q 279 417 245 368 q 360 502 313 465 q 454 578 407 539 q 535 672 501 616 q 568 796 568 728 q 491 967 568 914 q 288 1019 414 1019 z "},"@":{"ha":1454,"x_min":78,"x_max":1381,"o":"m 749 236 l 831 522 q 762 610 817 591 q 716 576 739 602 q 674 513 693 551 q 640 427 654 475 q 618 324 625 379 q 616 298 616 312 q 619 259 616 279 q 628 224 622 240 q 643 195 633 208 q 667 178 652 183 q 749 236 715 189 m 859 522 l 774 224 q 708 165 743 182 q 632 147 674 147 q 578 159 600 147 q 544 188 557 170 q 526 229 531 206 q 521 273 521 251 q 537 413 521 346 q 583 530 554 479 q 652 611 612 581 q 737 642 691 642 q 780 633 760 642 q 815 608 800 624 q 842 571 831 593 q 859 522 853 549 m 893 330 l 997 659 l 981 657 l 893 593 q 816 662 860 642 q 741 682 772 682 q 508 580 600 682 q 415 338 415 478 q 474 163 415 225 q 615 102 533 102 q 783 168 713 102 q 937 83 822 83 q 1048 109 990 83 q 1161 180 1107 134 q 1250 308 1215 227 q 1284 490 1284 390 q 1131 864 1284 710 q 739 1018 978 1018 q 283 840 460 1018 q 106 392 106 661 q 181 98 106 235 q 405 -126 256 -39 q 749 -214 554 -214 q 932 -185 854 -214 q 1104 -87 1010 -157 l 1064 -20 q 913 -109 1003 -77 q 742 -140 823 -140 q 508 -96 616 -140 q 327 23 400 -52 q 213 196 254 98 q 171 399 171 293 q 207 594 171 497 q 310 771 243 690 q 490 903 378 852 q 739 953 602 953 q 1085 820 949 953 q 1222 490 1222 688 q 1192 330 1222 400 q 1116 223 1161 260 q 1028 168 1071 186 q 951 150 986 150 q 893 330 838 150 m 761 1046 q 1201 883 1022 1046 q 1381 490 1381 720 q 1340 296 1381 382 q 1234 159 1300 210 q 1092 82 1168 109 q 937 56 1015 56 q 794 104 844 56 q 615 74 742 74 q 455 143 522 74 q 387 338 387 212 q 488 600 387 490 q 741 710 589 710 q 928 653 868 710 l 972 685 l 1103 685 q 976 286 978 293 q 970 263 974 278 q 966 239 966 249 q 966 217 965 229 q 971 196 966 205 q 985 182 977 187 q 1052 210 1018 189 q 1120 266 1086 231 q 1174 359 1153 301 q 1194 490 1194 418 q 1072 794 1194 671 q 760 924 950 917 q 544 869 640 918 q 388 744 447 821 q 298 579 329 668 q 267 399 267 490 q 406 48 267 197 q 765 -111 546 -102 q 924 -70 840 -106 q 1071 25 1007 -35 l 1120 25 l 1189 -96 q 985 -210 1078 -178 q 749 -241 893 -241 q 468 -188 596 -241 q 255 -46 339 -135 q 124 156 171 43 q 78 392 78 269 q 267 860 78 675 q 761 1046 456 1046 z "},"A":{"ha":1192,"x_min":7,"x_max":1182,"o":"m 1144 28 q 1070 34 1106 30 q 1006 44 1035 37 q 957 62 977 51 q 930 90 937 73 l 555 1017 q 533 1007 544 1016 q 481 872 528 923 l 497 832 l 211 113 q 44 28 184 45 q 40 11 40 18 q 44 -5 40 3 q 169 -1 121 -3 q 233 0 216 0 q 304 -1 249 0 q 454 -5 359 -3 q 458 11 458 3 q 454 28 458 18 q 363 40 398 33 q 308 54 328 46 q 281 70 288 61 q 275 91 275 79 q 277 106 275 98 l 376 354 q 498 356 452 355 q 562 357 545 357 q 631 356 601 357 q 683 355 661 356 l 781 106 q 785 90 785 96 q 766 58 785 72 q 720 38 747 43 l 647 28 q 643 11 643 18 q 647 -5 643 3 q 764 -2 705 -3 q 886 -1 823 -1 q 1012 -2 948 -1 q 1144 -5 1076 -3 q 1149 11 1149 4 q 1147 19 1149 15 q 1144 28 1146 23 m 562 410 q 400 412 464 410 l 529 745 l 532 745 l 661 411 q 562 410 625 410 m 530 673 l 440 439 q 621 437 522 435 l 530 673 m 1165 53 q 1164 -33 1182 12 l 626 -33 q 626 53 610 14 q 730 68 700 57 q 751 104 761 79 l 663 329 q 394 326 537 334 l 307 102 q 313 81 302 90 q 347 66 323 72 q 403 58 371 61 q 475 53 435 54 q 473 -33 492 12 q 25 -33 251 -25 q 24 53 7 12 q 182 114 163 69 l 468 833 q 457 858 465 839 q 448 884 450 878 q 507 1022 501 937 q 647 1055 566 1051 l 1027 111 q 1068 69 1040 79 q 1165 53 1096 58 z "},"B":{"ha":1076,"x_min":35,"x_max":1031,"o":"m 351 562 l 359 949 q 446 953 416 953 q 599 910 542 953 q 656 774 656 867 q 351 562 656 562 m 358 46 l 351 521 q 457 525 406 525 q 689 471 603 525 q 775 302 775 418 q 750 186 775 235 q 687 111 725 138 q 590 70 650 85 q 479 50 530 54 q 358 46 428 46 m 463 75 q 570 90 524 79 q 659 123 616 100 q 724 192 701 147 q 747 302 747 237 q 700 420 747 372 q 588 485 652 468 q 456 496 524 503 l 463 75 m 463 924 l 457 595 q 628 774 628 621 q 463 924 628 914 m 71 -4 q 386 0 203 0 q 496 3 447 0 q 612 15 545 5 q 731 45 680 24 q 829 99 782 66 q 901 183 876 131 q 926 306 926 236 q 843 480 926 412 q 637 568 760 549 l 637 574 q 765 649 717 599 q 814 774 814 699 q 475 997 814 997 q 386 994 448 997 q 248 991 323 991 q 72 997 172 991 q 72 965 66 985 q 229 900 228 950 q 236 521 236 741 q 228 93 236 306 q 71 28 227 43 q 71 -4 65 17 m 53 1026 q 239 1022 151 1022 q 410 1023 326 1022 q 524 1025 493 1025 q 627 1021 581 1025 q 730 1001 673 1017 q 826 960 787 986 q 892 887 865 935 q 918 774 918 839 q 785 579 918 653 q 963 477 895 547 q 1031 306 1031 407 q 1008 188 1031 240 q 951 102 986 136 q 863 43 917 68 q 760 5 810 18 q 646 -16 711 -8 q 536 -26 582 -24 q 435 -28 490 -28 q 52 -33 273 -28 q 52 54 35 14 q 200 94 199 69 q 208 521 208 307 q 201 899 208 739 q 50 939 200 924 q 53 1026 39 982 z "},"C":{"ha":1125,"x_min":77,"x_max":1059,"o":"m 618 -28 q 829 19 721 -28 q 1000 158 937 66 q 992 173 1000 167 q 975 179 985 179 q 676 56 873 56 q 362 181 468 56 q 256 494 256 307 q 274 658 256 579 q 333 809 293 737 q 446 926 372 882 q 618 971 519 971 q 742 950 685 971 q 836 901 799 929 q 907 824 872 872 q 960 742 942 777 q 1003 653 978 707 q 1028 668 1023 656 q 877 944 978 869 q 618 1019 775 1019 q 488 1004 554 1019 q 351 950 421 989 q 227 853 281 911 q 139 703 174 796 q 104 494 104 610 q 139 286 104 379 q 227 136 174 193 q 351 41 281 79 q 488 -13 421 3 q 618 -28 554 -28 m 986 623 q 932 730 957 688 q 867 825 908 772 q 770 907 827 878 q 644 942 714 936 q 509 893 567 936 q 420 783 452 850 q 374 643 389 715 q 359 494 359 571 q 446 208 359 323 q 703 83 532 92 q 962 207 868 92 q 1008 190 989 207 q 1028 149 1028 172 q 843 -3 960 49 q 618 -56 726 -56 q 480 -40 550 -56 q 337 17 411 -24 q 205 117 262 57 q 113 276 149 178 q 77 494 77 374 q 114 720 77 621 q 210 879 151 819 q 346 978 268 939 q 497 1033 424 1018 q 646 1047 571 1047 q 867 1020 747 1047 q 1038 986 986 993 q 1020 832 1015 899 q 1059 671 1025 766 q 986 623 1039 631 z "},"D":{"ha":1239,"x_min":35,"x_max":1172,"o":"m 359 940 q 515 949 433 949 q 677 920 606 949 q 793 847 749 892 q 866 743 838 803 q 906 623 895 682 q 917 501 917 564 q 802 172 917 296 q 469 49 686 49 l 358 50 q 351 471 351 332 q 359 940 351 722 m 505 -28 q 52 -33 278 -28 q 52 54 35 14 q 200 94 199 69 q 208 521 208 307 q 201 899 208 739 q 50 939 200 924 q 53 1026 39 982 q 572 1025 136 1025 q 746 1013 667 1025 q 907 967 825 1002 q 1045 876 989 932 q 1137 724 1101 819 q 1172 500 1172 628 q 1131 283 1172 378 q 1022 132 1089 189 q 865 37 956 74 q 688 -14 775 0 q 505 -28 600 -28 m 464 916 q 456 471 456 677 q 461 77 456 302 q 782 197 675 82 q 889 501 889 311 q 871 643 889 575 q 815 774 854 710 q 702 877 777 838 q 528 920 628 917 q 464 916 494 920 m 71 -4 q 457 0 216 0 q 624 13 543 0 q 787 62 704 26 q 930 151 869 97 q 1029 296 990 205 q 1068 501 1068 386 q 524 997 1068 997 q 381 995 473 997 q 214 993 289 993 q 72 997 139 993 q 72 965 66 985 q 229 900 228 950 q 236 521 236 741 q 228 93 236 306 q 71 28 227 43 q 71 -4 64 12 z "},"E":{"ha":1162,"x_min":35,"x_max":1115,"o":"m 648 991 l 307 991 q 69 997 222 991 l 69 965 q 227 900 225 950 q 233 521 233 741 q 225 93 233 306 q 68 28 224 43 q 68 -4 65 4 q 676 0 199 0 q 927 57 843 0 q 1079 253 1011 114 q 1055 271 1074 264 q 600 41 932 41 l 355 41 q 349 475 349 338 l 570 476 q 624 467 599 476 q 665 447 650 457 q 701 410 680 437 q 729 369 721 382 q 758 317 737 357 q 785 267 778 278 q 811 285 806 275 q 743 497 743 400 q 763 600 743 539 q 811 710 782 660 q 785 728 806 720 q 763 687 779 718 q 742 647 747 656 q 723 613 737 637 q 700 581 708 589 q 676 556 692 572 q 645 535 660 541 q 611 524 631 529 q 570 519 591 519 q 349 522 424 519 q 357 950 349 686 l 572 950 q 1027 721 904 950 q 1051 739 1046 728 q 899 935 983 878 q 648 991 815 991 m 742 705 l 771 762 q 843 710 828 742 q 792 596 812 657 q 771 497 771 534 q 843 285 771 407 q 774 232 827 250 q 737 296 749 273 q 693 365 709 342 q 646 410 677 387 q 575 435 614 433 l 453 435 q 458 69 453 285 l 599 69 q 879 137 771 69 q 1043 306 987 204 q 1115 253 1100 285 q 1010 -28 1026 106 l 447 -28 q 49 -32 179 -28 q 47 54 35 12 q 197 94 196 69 q 205 521 205 307 q 199 899 205 739 q 47 939 197 924 q 50 1026 35 986 q 326 1019 258 1019 l 982 1019 q 1088 739 998 886 q 1015 686 1072 707 q 851 855 960 787 q 571 922 743 922 l 460 922 q 453 549 453 679 q 576 547 496 547 q 667 586 633 547 q 742 705 701 624 z "},"F":{"ha":1092,"x_min":35,"x_max":1063,"o":"m 550 435 l 456 435 q 463 93 456 273 q 466 85 463 89 q 476 79 469 82 q 498 70 482 75 q 561 58 513 64 q 615 50 608 52 q 611 -33 627 12 q 307 -28 361 -28 q 52 -33 271 -28 q 52 54 35 14 q 200 94 199 69 q 208 521 208 264 q 201 899 208 739 q 50 939 200 924 q 53 1026 37 986 q 329 1019 261 1019 l 957 1019 q 1063 739 974 886 q 990 686 1047 707 q 826 855 935 787 q 546 922 718 922 l 463 922 q 456 549 456 679 q 551 547 489 547 q 642 586 608 547 q 717 705 676 624 l 746 762 q 818 710 803 742 q 746 497 746 581 q 818 285 746 407 q 749 232 802 250 q 713 296 733 253 q 669 365 685 342 q 621 410 652 387 q 550 435 589 433 m 351 475 l 545 476 q 600 467 574 476 q 641 447 625 457 q 676 410 656 437 q 704 369 696 382 q 733 317 713 357 q 760 267 753 278 q 786 285 781 275 q 718 497 718 406 q 738 600 718 539 q 786 710 757 660 q 760 728 783 720 q 738 687 754 718 q 718 647 722 656 q 698 613 713 637 q 675 581 684 589 q 651 556 667 572 q 620 535 635 541 q 586 524 606 529 q 545 519 566 519 q 351 522 418 519 q 359 950 351 686 l 547 950 q 1003 721 879 950 q 1026 739 1021 728 q 874 935 958 878 q 623 991 790 991 l 310 991 q 72 997 225 991 l 72 965 q 229 900 228 950 q 236 521 236 741 q 228 93 236 306 q 71 28 227 43 q 71 -4 65 17 q 307 0 186 0 q 585 -4 452 0 q 585 28 590 7 q 358 93 361 41 q 351 475 351 253 z "},"G":{"ha":1250,"x_min":77,"x_max":1239,"o":"m 632 1019 q 500 1005 567 1019 q 360 954 433 991 q 232 860 288 917 q 140 708 176 803 q 104 494 104 614 q 140 280 104 375 q 232 130 176 186 q 360 37 288 74 q 500 -14 433 0 q 632 -28 567 -28 q 816 -8 734 -28 q 1000 52 897 11 q 970 262 970 135 l 970 363 q 1196 428 970 412 q 1196 460 1203 444 q 918 454 1018 454 q 682 460 835 454 q 682 428 677 444 q 839 363 839 412 l 839 87 q 632 21 781 21 q 488 50 553 21 q 380 127 422 79 q 309 238 338 175 q 268 365 281 301 q 256 494 256 429 q 276 657 256 578 q 339 809 297 737 q 457 926 382 882 q 632 971 533 971 q 755 950 699 971 q 849 901 812 929 q 921 824 886 872 q 974 742 956 777 q 1017 653 991 707 q 1042 668 1038 656 q 890 944 991 869 q 632 1019 789 1019 m 1000 623 q 947 730 971 688 q 881 825 922 772 q 784 907 840 878 q 659 942 728 936 q 519 894 579 937 q 425 784 458 851 q 376 644 392 717 q 359 494 359 571 q 388 292 359 389 q 488 122 416 196 q 664 49 559 49 q 811 98 761 49 l 811 363 q 660 401 811 386 q 663 489 642 449 q 1223 485 865 479 q 1225 401 1239 444 q 1074 363 1074 386 l 1074 262 q 1112 35 1074 139 q 970 -15 1017 -1 q 836 -42 924 -29 q 632 -56 747 -56 q 492 -41 562 -56 q 346 13 422 -26 q 211 111 269 52 q 115 269 153 170 q 77 494 77 368 q 114 720 77 621 q 209 879 151 819 q 342 978 267 939 q 487 1033 418 1018 q 627 1047 557 1047 q 877 1019 739 1047 q 1051 986 1014 990 q 1034 832 1029 899 q 1072 671 1039 766 q 1000 623 1053 631 z "},"H":{"ha":1270,"x_min":32,"x_max":1244,"o":"m 847 93 q 690 28 847 43 q 690 -4 685 17 q 926 0 806 0 q 1204 -4 1071 0 q 1204 28 1210 8 q 978 93 979 41 q 970 496 970 261 q 978 900 970 732 q 1204 965 979 951 q 1204 997 1211 982 q 926 991 1026 991 q 690 997 843 991 q 690 965 686 981 q 847 900 846 950 q 854 524 851 775 q 618 519 729 519 q 349 522 432 519 q 357 900 349 750 q 583 965 358 951 q 583 997 587 978 q 305 991 406 991 q 69 997 222 991 q 69 965 64 985 q 227 900 225 950 q 233 521 233 741 q 225 93 233 306 q 68 28 224 43 q 68 -4 62 17 q 304 0 183 0 q 582 -4 448 0 q 582 28 587 7 q 355 93 357 41 q 349 475 349 297 q 618 478 515 478 q 854 473 729 478 q 847 93 852 322 m 819 93 q 826 433 825 363 q 618 436 693 436 q 509 435 559 436 q 453 435 458 435 q 460 94 453 278 q 463 86 460 90 q 472 79 465 82 q 486 74 479 77 q 504 68 493 71 q 524 63 515 65 q 547 59 533 61 q 569 56 561 57 q 592 53 578 54 q 612 50 607 52 q 608 -33 623 12 q 304 -28 358 -28 q 49 -33 268 -28 q 49 54 32 14 q 197 94 196 69 q 205 521 205 307 q 199 899 205 739 q 47 939 197 924 q 50 1026 36 982 q 212 1023 110 1026 q 354 1019 314 1019 q 467 1021 383 1019 q 611 1022 550 1022 q 612 939 623 983 q 461 899 463 924 q 453 549 453 711 q 618 547 518 545 l 826 550 q 819 899 823 771 q 668 939 818 924 q 671 1026 656 986 q 937 1019 769 1019 q 1067 1021 969 1019 q 1232 1022 1165 1022 q 1234 939 1244 983 q 1082 899 1083 924 q 1075 496 1075 730 q 1082 94 1075 262 q 1234 54 1083 69 q 1230 -33 1244 11 q 975 -28 1011 -28 q 671 -33 921 -28 q 671 54 654 14 q 819 93 819 69 z "},"I":{"ha":648,"x_min":35,"x_max":627,"o":"m 358 93 q 353 521 353 376 q 359 900 353 688 q 586 965 361 951 q 586 997 590 978 q 309 991 408 991 q 72 997 225 991 q 72 965 66 985 q 229 900 228 950 q 236 521 236 741 q 228 93 236 306 q 71 28 227 43 q 71 -4 65 17 q 307 0 186 0 q 585 -4 452 0 q 585 28 590 7 q 358 93 359 41 m 50 939 q 53 1026 39 983 q 215 1023 113 1026 q 357 1019 317 1019 q 469 1021 386 1019 q 614 1022 553 1022 q 615 939 627 983 q 464 899 465 924 q 456 471 456 729 q 463 94 456 221 q 466 86 463 90 q 476 79 469 82 q 489 74 482 77 q 508 68 496 71 q 528 63 519 65 q 550 59 536 61 q 572 56 564 57 q 595 53 581 54 q 615 50 610 52 q 611 -33 627 12 q 307 -28 361 -28 q 52 -33 271 -28 q 52 54 35 14 q 200 94 199 69 q 208 521 208 264 q 201 899 208 739 q 50 939 200 924 z "},"J":{"ha":686,"x_min":-104,"x_max":656,"o":"m 382 521 q 389 900 382 688 q 615 965 390 951 q 615 997 619 978 q 338 991 437 991 q 102 997 254 991 q 102 965 96 985 q 258 900 257 950 q 265 521 265 741 l 265 37 q 237 -239 265 -160 q 118 -318 208 -318 q 18 -283 53 -318 q -17 -201 -17 -248 q 1 -144 -17 -165 q 45 -123 20 -123 q 85 -140 68 -123 q 107 -117 102 -136 q 33 -81 82 -81 q -45 -112 -16 -81 q -75 -199 -75 -143 q -24 -312 -75 -264 q 118 -361 26 -361 q 186 -353 155 -361 q 241 -326 216 -345 q 286 -284 267 -307 q 319 -221 304 -261 q 344 -144 334 -182 q 361 -46 354 -106 q 372 67 368 14 q 378 201 376 121 q 381 351 380 282 q 382 521 382 419 m 135 -389 q -42 -333 18 -389 q -103 -199 -102 -278 q -63 -90 -104 -129 q 32 -52 -22 -52 q 121 -86 83 -52 q 158 -182 158 -121 q 150 -226 158 -208 q 132 -255 142 -244 q 121 -269 122 -265 q 144 -288 126 -282 q 219 -201 201 -275 q 237 37 237 -127 l 237 521 q 231 899 237 739 q 79 939 229 924 q 82 1026 68 983 q 386 1019 201 1019 q 497 1021 414 1019 q 643 1022 581 1022 q 644 939 656 983 q 493 899 494 924 q 485 471 485 729 q 482 276 485 361 q 470 99 479 192 q 446 -63 461 5 q 404 -195 431 -131 q 341 -300 378 -260 q 252 -365 304 -340 q 135 -389 200 -389 z "},"K":{"ha":1182,"x_min":35,"x_max":1215,"o":"m 1096 997 q 868 991 909 991 q 667 997 819 991 q 667 965 663 982 q 764 953 737 961 q 791 920 791 945 q 783 900 791 907 l 399 529 l 351 529 q 359 900 351 714 q 586 965 361 951 q 586 997 590 978 q 309 991 408 991 q 72 997 225 991 q 72 965 66 985 q 229 900 228 950 q 236 521 236 741 q 228 93 236 306 q 71 28 227 43 q 71 -4 65 17 q 307 0 186 0 q 585 -4 452 0 q 585 28 590 7 q 358 93 359 41 q 351 471 351 304 l 406 472 l 736 129 q 772 74 772 90 q 751 40 772 50 q 664 28 729 29 q 664 -4 659 7 l 664 -5 q 921 0 814 0 q 1173 -4 1078 0 q 1173 28 1178 11 q 920 129 1015 33 l 501 553 l 867 900 q 947 940 903 925 q 1020 958 991 954 q 1096 965 1048 961 q 1096 997 1100 982 m 1132 939 q 899 879 969 928 l 587 582 l 1014 150 q 1204 50 1109 54 q 1204 -33 1215 5 q 644 -33 1021 -22 q 640 50 631 5 q 745 74 745 53 q 456 380 745 81 q 463 94 456 254 q 466 86 463 90 q 476 79 469 82 q 489 74 482 77 q 508 68 496 71 q 528 63 519 65 q 550 59 536 61 q 572 56 564 57 q 595 53 581 54 q 615 50 610 52 q 611 -33 625 5 q 307 -28 361 -28 q 52 -33 271 -28 q 52 54 35 14 q 200 94 199 69 q 208 521 208 264 q 201 899 208 739 q 50 939 200 924 q 53 1026 39 983 q 215 1023 113 1026 q 357 1019 317 1019 q 465 1021 386 1019 q 606 1022 545 1022 q 607 939 618 983 q 464 899 465 925 q 456 623 457 758 l 764 920 q 648 939 764 930 q 650 1025 635 985 q 1132 1022 896 1014 q 1132 939 1143 983 z "},"L":{"ha":1156,"x_min":35,"x_max":1108,"o":"m 350 521 q 357 900 350 688 q 583 965 358 951 q 583 997 587 978 q 306 991 406 991 q 69 997 222 991 q 69 965 64 985 q 227 900 225 950 q 233 521 233 741 q 225 93 233 306 q 68 28 224 43 q 68 -4 64 11 q 676 0 199 0 q 920 61 839 0 q 1072 267 1002 122 q 1048 285 1067 278 q 990 198 1022 236 q 906 122 958 160 q 776 62 854 83 q 600 41 699 41 l 355 41 q 350 521 350 279 m 453 471 q 458 69 453 285 l 599 69 q 1036 319 900 69 q 1108 267 1093 298 q 994 -28 1011 106 l 447 -28 q 49 -32 179 -28 q 47 54 35 12 q 197 94 196 69 q 205 521 205 307 q 199 899 205 739 q 47 939 197 924 q 50 1026 36 983 q 354 1019 168 1019 q 465 1021 382 1019 q 611 1022 549 1022 q 612 939 624 983 q 461 899 463 924 q 453 471 453 729 z "},"M":{"ha":1367,"x_min":28,"x_max":1344,"o":"m 214 103 q 64 28 211 41 q 64 -4 58 17 q 245 0 192 0 q 439 -4 330 0 q 439 28 444 17 q 289 103 290 41 q 282 471 282 314 q 288 850 282 685 l 294 850 l 625 17 l 632 17 l 941 833 l 947 833 q 954 471 954 629 q 947 94 954 250 q 931 64 946 77 q 888 44 917 52 q 840 35 860 37 q 790 29 821 32 q 790 -3 785 18 q 1026 1 905 1 q 1304 -3 1171 1 q 1304 29 1310 9 q 1078 93 1079 43 q 1069 521 1069 306 q 1075 900 1069 729 q 1301 964 1076 950 q 1301 996 1307 983 q 946 991 1168 991 l 657 237 l 379 991 q 86 997 214 991 q 86 971 79 983 q 192 938 167 960 q 218 836 216 916 q 222 521 222 669 q 214 103 222 315 m 186 103 q 195 521 195 317 q 190 836 195 669 q 166 917 189 899 q 68 945 143 935 q 69 1026 49 986 q 475 1019 225 1019 l 697 425 l 926 1019 q 1328 1025 1108 1019 q 1331 937 1341 981 q 1179 897 1181 922 q 1173 521 1173 770 q 1182 96 1173 264 q 1333 56 1183 71 q 1331 -32 1344 12 q 1075 -26 1111 -26 q 771 -32 1021 -26 q 771 56 754 16 q 920 94 918 71 q 926 471 926 253 q 925 720 926 640 l 651 -11 l 606 -11 l 310 734 l 310 471 q 317 103 310 314 q 465 54 318 66 q 465 -33 482 14 q 44 -33 262 -25 q 44 54 28 14 q 186 103 184 68 z "},"N":{"ha":1227,"x_min":28,"x_max":1153,"o":"m 878 433 l 878 522 q 871 890 878 679 q 722 939 869 926 q 713 982 713 962 q 722 1023 713 994 q 929 1019 825 1019 q 1143 1023 1034 1019 q 1153 982 1153 994 q 1143 939 1153 962 q 1002 890 1003 925 q 993 472 993 747 q 1002 -31 993 161 l 946 -32 l 302 755 q 302 711 302 743 q 301 661 301 679 q 310 103 301 334 q 458 54 311 66 q 468 11 468 31 q 458 -33 468 -4 q 252 -29 354 -29 q 37 -33 147 -29 q 28 11 28 -4 q 37 54 28 31 q 179 103 178 68 q 187 521 187 245 q 182 897 187 732 q 47 939 138 932 q 37 981 37 957 q 50 1026 37 1006 q 408 1019 192 1019 l 878 433 m 965 472 q 974 890 965 677 q 1124 965 977 951 q 1124 997 1129 977 q 942 993 996 993 q 749 997 857 993 q 749 965 743 977 q 899 890 897 951 q 905 522 905 679 q 903 275 905 431 l 318 991 q 65 997 165 991 q 65 965 60 981 q 210 909 153 960 q 215 521 215 745 q 207 103 215 315 q 57 28 204 41 q 57 -4 52 17 q 239 0 184 0 q 432 -4 323 0 q 432 28 437 17 q 282 103 283 41 q 275 471 275 314 q 279 825 275 650 l 286 825 l 960 -4 l 972 -3 q 965 472 965 157 z "},"O":{"ha":1280,"x_min":77,"x_max":1208,"o":"m 642 942 q 548 917 589 938 q 475 862 507 896 q 422 786 444 829 q 386 694 400 743 q 366 595 372 646 q 359 494 359 544 q 366 394 359 445 q 387 294 372 342 q 423 203 401 246 q 476 128 445 161 q 549 75 508 95 q 642 50 590 54 q 736 75 694 54 q 809 129 777 96 q 862 204 840 161 q 898 295 884 248 q 919 394 912 343 q 925 494 925 446 q 919 595 925 544 q 898 695 912 646 q 862 786 884 743 q 809 863 840 829 q 735 917 777 896 q 642 942 694 938 m 618 21 q 498 41 551 21 q 405 95 445 61 q 336 176 364 130 q 290 274 308 222 q 264 384 272 327 q 256 494 256 440 q 264 605 256 549 q 290 715 272 662 q 336 814 307 768 q 404 896 364 861 q 497 951 444 930 q 618 971 551 971 q 728 951 680 971 q 814 896 777 931 q 878 814 851 861 q 921 715 904 768 q 945 605 937 662 q 953 494 953 549 q 945 384 953 440 q 921 276 938 328 q 879 177 905 223 q 815 96 852 130 q 729 41 778 61 q 618 21 680 21 m 618 -28 q 719 -18 665 -28 q 827 14 773 -9 q 931 76 881 37 q 1020 173 981 115 q 1081 310 1058 231 q 1104 494 1104 390 q 1081 676 1104 597 q 1021 813 1059 755 q 933 911 983 871 q 829 974 884 950 q 721 1009 775 998 q 618 1019 666 1019 q 515 1010 571 1019 q 401 978 458 1001 q 291 917 345 956 q 196 820 237 878 q 130 681 155 762 q 104 494 104 601 q 129 313 104 391 q 193 176 153 234 q 285 79 233 118 q 395 16 338 40 q 509 -18 452 -7 q 618 -28 567 -28 m 642 -58 q 400 -19 505 -58 q 223 93 295 21 q 114 268 151 165 q 77 494 77 370 q 114 721 77 619 q 223 896 151 823 q 400 1007 295 968 q 642 1047 505 1047 q 874 1010 770 1047 q 1054 904 979 974 q 1168 730 1128 833 q 1208 494 1208 627 q 1168 258 1208 361 q 1054 85 1128 155 q 874 -22 979 14 q 642 -58 770 -58 z "},"P":{"ha":962,"x_min":35,"x_max":940,"o":"m 361 950 q 440 953 416 953 q 688 703 688 953 q 640 533 688 595 q 496 471 591 471 q 357 496 424 471 q 361 950 357 705 m 200 94 q 208 521 208 264 q 201 899 208 739 q 50 939 200 924 q 53 1026 39 983 q 208 1023 125 1023 q 398 1023 290 1022 q 555 1025 505 1025 q 842 937 743 1025 q 940 701 940 848 q 831 469 940 553 q 549 385 722 385 q 461 393 500 385 q 465 93 461 201 q 475 82 465 89 q 504 69 485 75 q 567 57 524 63 q 618 50 611 52 q 614 -33 629 12 q 310 -28 363 -28 q 52 -33 271 -28 q 52 54 35 14 q 200 94 199 69 m 660 703 q 464 924 660 913 q 461 513 461 774 q 515 498 486 501 q 623 559 586 505 q 660 703 660 614 m 228 93 q 71 28 227 43 q 71 -4 65 17 q 310 0 186 0 q 587 -4 454 0 q 587 28 593 7 q 361 93 362 41 q 357 450 357 285 q 549 412 441 412 q 761 493 686 412 q 836 701 836 574 q 751 916 836 835 q 507 997 667 997 q 368 995 457 997 q 207 993 278 993 q 72 997 136 993 q 72 965 66 985 q 122 960 102 962 q 170 950 142 957 q 213 931 199 943 q 229 900 228 918 q 236 521 236 741 q 228 93 236 306 z "},"Q":{"ha":1280,"x_min":77,"x_max":1208,"o":"m 618 21 q 496 41 549 21 q 402 97 442 62 q 334 179 362 132 q 289 278 306 226 q 263 387 271 331 q 256 494 256 442 q 264 605 256 549 q 290 715 272 662 q 336 814 307 768 q 404 896 364 861 q 497 951 444 930 q 618 971 551 971 q 728 951 680 971 q 814 896 777 931 q 878 814 851 861 q 921 715 904 768 q 945 605 937 662 q 953 494 953 549 q 945 384 953 440 q 921 276 938 328 q 879 177 905 223 q 815 96 852 130 q 729 41 778 61 q 618 21 680 21 m 642 942 q 548 917 589 938 q 475 862 507 896 q 422 786 444 829 q 386 694 400 743 q 366 595 372 646 q 359 494 359 544 q 366 394 359 445 q 387 294 372 342 q 423 203 401 246 q 476 128 445 161 q 549 75 508 95 q 642 50 590 54 q 736 75 694 54 q 809 129 777 96 q 862 204 840 161 q 898 295 884 248 q 919 394 912 343 q 925 494 925 446 q 919 595 925 544 q 898 695 912 646 q 862 786 884 743 q 809 863 840 829 q 735 917 777 896 q 642 942 694 938 m 1162 -275 q 1158 -358 1174 -313 q 757 -290 920 -358 q 494 -45 595 -221 q 345 5 414 -29 q 212 101 275 40 q 113 263 149 163 q 77 494 77 364 q 113 720 77 621 q 206 879 150 819 q 337 978 262 939 q 480 1033 411 1018 q 618 1047 549 1047 q 847 1015 743 1047 q 1034 918 951 983 q 1163 744 1117 852 q 1208 494 1208 636 q 1177 280 1208 375 q 1091 123 1146 184 q 972 24 1036 61 q 832 -35 908 -14 q 940 -167 868 -109 q 1162 -275 1011 -225 m 1141 -298 q 990 -236 1055 -272 q 883 -157 925 -200 q 819 -81 842 -114 q 774 -5 796 -49 q 866 35 825 12 q 954 97 907 57 q 1031 189 1000 138 q 1083 319 1063 240 q 1104 494 1104 397 q 1072 708 1104 614 q 988 860 1039 803 q 870 954 937 917 q 741 1005 803 991 q 618 1019 679 1019 q 488 1005 553 1019 q 352 954 422 991 q 227 860 281 917 q 139 708 174 803 q 104 494 104 614 q 241 121 104 264 q 610 -28 378 -22 q 816 -241 675 -158 q 1140 -330 957 -325 q 1141 -298 1147 -313 z "},"R":{"ha":1125,"x_min":35,"x_max":1144,"o":"m 358 950 l 359 950 q 468 953 401 953 q 626 889 571 953 q 680 724 680 825 q 630 545 680 621 q 475 469 581 469 q 351 485 412 469 q 358 950 351 724 m 652 724 q 600 871 652 811 q 461 924 547 930 q 456 505 456 663 q 497 498 469 501 q 614 573 576 507 q 652 724 652 639 m 228 93 q 71 28 227 43 q 71 -4 65 17 q 307 0 186 0 q 585 -4 452 0 q 585 28 590 7 q 358 93 359 41 q 351 433 351 283 q 493 418 428 418 q 786 0 604 211 q 886 -1 821 0 q 1004 -2 951 -1 q 1104 -4 1057 -3 q 1104 28 1109 8 q 917 82 993 36 q 739 254 840 129 q 614 439 669 342 q 772 549 714 472 q 829 724 829 627 q 751 921 829 846 q 533 997 672 997 q 72 997 75 991 q 72 965 68 981 q 229 900 228 950 q 236 521 236 741 q 228 93 236 306 m 200 94 q 208 521 208 264 q 201 899 208 739 q 50 939 200 924 q 53 1026 39 983 q 215 1022 127 1022 q 416 1023 302 1022 q 582 1025 529 1025 q 840 942 746 1025 q 933 724 933 859 q 878 547 933 628 q 730 425 823 467 q 838 271 777 350 q 979 119 909 175 q 1133 54 1048 62 q 1131 -33 1144 11 q 774 -28 1034 -31 q 476 390 583 195 l 456 390 q 463 94 456 264 q 466 86 463 90 q 492 73 469 82 q 563 58 515 64 q 615 50 610 52 q 611 -33 627 12 q 307 -28 361 -28 q 52 -33 271 -28 q 52 54 35 14 q 200 94 199 69 z "},"S":{"ha":943,"x_min":66,"x_max":878,"o":"m 460 1047 q 638 1020 557 1047 q 785 985 720 993 q 782 713 749 859 q 703 679 747 684 q 683 733 697 692 q 657 800 669 774 q 622 861 644 827 q 564 915 600 895 q 481 942 528 935 q 375 900 412 936 q 338 807 338 864 q 368 711 338 749 q 445 655 397 673 q 551 622 493 636 q 665 588 608 608 q 770 536 722 568 q 848 440 818 504 q 878 285 878 376 q 813 94 878 174 q 661 -21 749 14 q 482 -56 574 -56 q 83 33 281 -56 q 87 140 87 121 q 66 376 87 250 q 203 379 127 406 q 300 143 228 225 q 458 52 372 61 q 583 104 539 57 q 627 224 627 151 q 598 327 627 285 q 523 393 570 370 q 421 435 476 416 q 311 476 367 454 q 209 527 256 497 q 134 610 163 557 q 106 741 106 664 q 128 865 106 810 q 185 953 150 920 q 269 1008 221 986 q 364 1039 317 1031 q 460 1047 411 1047 m 460 1019 q 349 1006 403 1019 q 245 963 296 993 q 164 876 195 933 q 134 741 134 818 q 162 623 134 672 q 237 547 191 574 q 339 499 283 519 q 449 457 395 478 q 551 410 504 436 q 626 336 597 383 q 654 224 654 289 q 597 78 654 134 q 433 22 539 22 q 244 107 332 22 q 129 361 157 192 q 97 361 115 370 q 115 140 115 254 q 113 50 115 109 q 433 -28 281 -28 q 667 47 559 -28 q 774 257 774 122 q 744 387 774 334 q 666 470 714 440 q 560 522 618 500 q 446 563 503 543 q 341 606 389 582 q 263 673 293 629 q 233 779 233 717 q 292 919 233 867 q 460 971 351 971 q 720 710 648 971 q 749 720 741 707 q 651 952 726 885 q 460 1019 575 1019 z "},"T":{"ha":1177,"x_min":-11,"x_max":1236,"o":"m 57 686 q -11 739 5 707 q 41 838 28 812 q 72 915 54 863 q 96 1019 89 966 l 566 1019 l 1131 1019 q 1236 739 1147 886 q 1164 686 1221 707 q 1000 855 1108 787 q 720 922 892 922 q 714 524 714 754 q 721 94 714 229 q 872 54 722 69 q 869 -33 884 11 q 614 -28 650 -28 q 310 -33 559 -28 q 310 54 293 14 q 458 93 457 69 q 465 524 465 264 q 460 918 465 741 q 57 686 178 882 m 249 946 l 486 953 q 493 524 493 728 q 486 93 493 261 q 329 28 485 43 q 329 -4 323 17 q 566 0 444 0 q 843 -4 710 0 q 843 28 848 8 q 616 93 618 41 q 610 524 610 318 q 616 953 610 785 l 721 950 q 1177 721 1059 942 q 1200 739 1194 728 q 1048 935 1132 878 q 798 991 964 991 l 566 991 q 342 992 492 991 q 121 993 193 993 q 111 945 118 970 q 99 902 104 920 q 80 857 93 885 q 62 818 66 828 q 40 776 57 808 q 21 739 24 743 q 45 721 26 728 q 119 838 93 800 q 182 911 146 876 q 249 946 218 946 z "},"U":{"ha":1271,"x_min":14,"x_max":1215,"o":"m 171 900 q 20 940 170 925 q 14 981 14 961 q 22 1028 14 1003 q 184 1024 82 1028 q 326 1021 286 1021 q 439 1022 355 1021 q 583 1023 522 1023 q 590 982 590 1003 q 585 940 590 962 q 433 900 435 925 q 431 404 431 852 q 484 152 431 233 q 663 64 538 71 q 866 160 794 72 q 937 404 937 248 q 933 889 937 726 q 787 943 932 922 q 782 977 782 960 q 791 1025 782 997 q 1021 1019 983 1019 q 1206 1023 1093 1019 q 1215 981 1215 994 q 1206 939 1215 960 q 1064 889 1065 925 q 1057 404 1057 758 q 1029 216 1057 298 q 959 83 1002 134 q 859 1 916 33 q 749 -44 802 -32 q 642 -56 696 -56 q 454 -36 533 -56 q 310 32 375 -17 q 211 174 244 81 q 178 404 178 267 q 171 900 178 736 m 329 901 q 555 966 330 953 q 555 999 559 979 q 278 993 378 993 q 41 999 195 993 q 41 966 36 986 q 92 961 72 964 q 140 951 111 958 q 183 931 168 945 q 199 900 199 918 q 205 404 205 685 q 237 188 205 275 q 330 54 268 100 q 466 -10 392 8 q 642 -28 539 -28 q 742 -17 692 -28 q 844 25 791 -5 q 938 103 897 56 q 1004 228 978 150 q 1029 404 1029 306 q 1036 890 1029 729 q 1186 964 1039 950 q 1186 996 1192 975 q 1004 991 1059 991 q 811 996 920 991 q 811 964 806 985 q 961 890 960 950 q 965 404 965 728 q 881 131 965 227 q 639 36 796 36 q 397 123 468 36 q 326 404 326 211 q 329 901 326 810 z "},"V":{"ha":1160,"x_min":-14,"x_max":1170,"o":"m 1159 939 q 1052 922 1091 933 q 999 880 1012 911 l 626 -47 l 556 -47 l 155 871 q -2 939 130 926 q 1 1026 -14 983 q 545 1023 315 1017 q 545 937 559 985 q 435 922 458 930 q 422 889 413 914 l 655 349 l 870 889 q 864 908 874 900 q 832 922 854 917 q 786 931 809 928 q 730 937 763 935 q 732 1025 719 982 q 1156 1026 956 1017 q 1159 939 1170 983 m 1137 965 q 1137 997 1142 985 q 955 993 1048 993 q 753 997 866 993 q 753 965 748 985 q 805 960 784 962 q 855 949 825 957 q 897 926 885 942 q 901 890 909 911 l 620 184 l 320 882 q 336 942 300 928 q 519 965 372 956 q 519 997 524 985 q 20 997 319 987 q 20 965 14 985 q 180 882 148 953 l 574 -20 l 606 -20 l 973 890 q 1033 944 992 929 q 1137 965 1074 960 z "},"W":{"ha":1527,"x_min":-14,"x_max":1567,"o":"m 453 939 q 412 923 418 937 q 421 871 406 908 l 630 357 l 713 579 l 596 872 q 559 922 581 908 q 491 939 538 936 q 491 1019 474 982 l 970 1019 q 970 939 987 982 q 874 919 897 936 q 863 871 852 901 l 1057 361 l 1248 871 q 1239 921 1261 908 q 1147 939 1216 933 q 1147 1019 1131 982 l 1550 1019 q 1550 939 1567 982 q 1419 918 1448 932 q 1375 871 1388 903 l 1028 -47 l 959 -47 l 777 421 l 600 -47 l 532 -47 l 153 871 q 105 918 140 904 q 3 939 71 932 q 3 1019 -14 982 l 453 1019 q 453 939 470 982 m 430 997 l 27 997 q 27 965 18 983 q 178 882 149 953 l 551 -20 l 581 -20 l 774 497 l 979 -20 l 1009 -20 l 1354 890 q 1408 944 1369 929 q 1521 965 1448 960 q 1521 997 1530 983 l 1177 997 q 1177 965 1168 983 q 1276 940 1257 956 q 1285 890 1298 922 l 1021 180 l 753 882 q 785 939 738 918 q 941 965 833 960 q 941 997 949 983 l 515 997 q 515 965 506 983 q 582 943 557 961 q 623 882 606 925 l 742 579 l 593 180 l 309 882 q 313 943 286 928 q 430 965 341 958 q 430 997 438 983 z "},"X":{"ha":1105,"x_min":0,"x_max":1132,"o":"m 472 484 l 192 103 q 36 28 144 37 q 36 -4 31 17 q 204 0 114 0 q 370 -4 282 0 q 370 28 375 7 q 260 64 275 39 q 265 104 250 81 l 504 432 l 711 103 q 720 80 720 90 q 709 58 721 69 q 673 41 697 47 q 637 33 650 35 q 607 29 625 31 q 581 27 589 28 q 561 26 572 26 q 561 -5 555 16 q 797 0 663 0 q 1092 -5 913 0 q 1092 26 1097 7 q 851 103 909 39 l 579 536 l 833 890 q 989 965 878 954 q 989 997 996 981 q 821 993 911 993 q 663 997 750 993 q 663 965 657 986 q 771 916 769 951 q 762 890 771 904 l 547 587 l 367 873 q 357 905 358 892 q 370 928 355 918 q 402 945 385 939 q 447 956 419 951 q 500 962 475 960 q 557 965 525 964 q 557 997 562 977 q 300 991 435 991 q 54 997 207 991 q 54 965 49 985 q 114 958 93 961 q 163 940 135 954 q 211 900 192 925 l 472 484 m 170 119 l 439 485 l 187 885 l 189 884 q 145 917 174 904 q 95 932 117 929 q 32 939 73 935 q 35 1026 21 982 q 585 1022 302 1015 q 585 939 599 985 q 481 925 510 936 q 467 889 452 914 l 587 693 l 739 905 q 739 920 745 914 q 717 930 733 926 q 689 937 701 935 q 659 942 677 939 l 639 943 q 643 1026 628 981 q 1008 1026 807 1017 q 1015 983 1015 1011 q 1008 939 1015 954 q 855 873 895 929 l 654 591 l 951 118 q 1121 53 985 65 q 1118 -35 1132 9 q 541 -31 806 -22 q 541 53 525 9 q 673 65 651 57 q 688 87 697 74 l 500 380 l 288 87 q 288 69 279 77 q 319 58 297 61 q 357 53 340 54 q 393 50 374 52 q 389 -33 404 12 q 16 -33 180 -24 q 16 54 0 14 q 170 119 127 64 z "},"Y":{"ha":1067,"x_min":-14,"x_max":1031,"o":"m 656 96 q 807 56 657 71 q 804 -31 817 16 q 524 -28 618 -28 q 244 -31 431 -28 q 244 56 222 9 q 393 94 392 71 q 401 431 400 282 l 149 871 q -8 939 115 926 q -14 979 -14 960 q -5 1025 -14 1000 q 332 1019 138 1019 q 539 1022 472 1019 q 546 982 546 999 q 539 937 546 962 q 439 925 467 932 q 411 904 411 918 q 576 603 411 900 q 761 913 761 909 q 753 925 761 920 q 731 934 745 930 q 705 939 717 937 q 678 942 693 940 q 660 943 663 943 q 664 1025 648 979 q 850 1019 789 1019 q 1015 1025 907 1019 q 1015 939 1031 978 q 878 876 911 929 l 648 509 q 656 96 648 233 m 421 93 q 264 28 419 43 q 264 -5 257 11 q 778 -4 564 0 q 778 29 783 9 q 551 93 553 43 q 545 395 545 288 l 854 890 q 996 965 895 956 q 996 997 1002 977 q 842 993 920 993 q 684 997 771 993 q 684 965 677 986 q 790 921 783 954 q 782 890 793 908 l 536 485 l 314 882 q 329 941 290 926 q 513 965 367 956 q 513 997 518 985 q 14 997 313 987 q 14 965 8 985 q 174 882 134 954 l 429 436 q 421 93 428 277 z "},"Z":{"ha":1068,"x_min":25,"x_max":1014,"o":"m 929 -28 q 52 -32 168 -28 q 43 -20 47 -28 q 34 -3 38 -12 q 27 16 30 7 q 25 31 25 25 q 337 476 182 253 q 643 922 492 699 q 531 912 581 919 q 437 893 481 905 q 355 863 394 881 q 276 820 316 845 q 193 763 236 795 q 100 689 151 730 q 35 737 52 701 q 204 1025 155 863 q 379 1020 292 1021 q 555 1019 467 1019 q 733 1020 644 1019 q 913 1025 822 1021 q 958 958 958 1010 q 630 491 785 713 q 340 69 475 269 l 533 69 q 684 95 617 69 q 800 164 750 120 q 883 268 849 208 q 936 396 916 328 q 1014 354 990 385 q 1006 325 1011 344 q 995 282 1001 306 q 981 232 988 258 q 966 179 973 205 q 954 131 960 154 q 941 72 949 108 q 929 -28 934 35 m 611 0 q 850 83 768 0 q 978 351 932 165 q 951 363 966 361 q 903 244 933 297 q 825 143 873 191 q 702 68 777 96 q 534 41 628 41 l 212 41 q 854 966 530 511 q 832 997 854 989 q 225 997 574 990 q 69 732 176 844 q 97 717 78 717 q 278 926 215 827 q 446 940 297 928 q 697 953 595 951 q 53 22 386 490 q 62 -4 53 5 q 611 0 136 0 z "},"[":{"ha":631,"x_min":153,"x_max":593,"o":"m 517 1040 l 517 1099 l 180 1099 l 180 -289 l 517 -289 l 517 -231 l 315 -231 l 315 1040 l 517 1040 m 593 1126 l 593 1013 l 392 1013 l 392 -203 l 593 -203 l 593 -317 l 153 -317 l 153 1126 l 593 1126 z "},"\\":{"ha":932,"x_min":83,"x_max":852,"o":"m 125 1099 l 672 -289 l 762 -289 l 218 1099 l 125 1099 m 653 -317 l 83 1126 l 286 1126 l 852 -317 l 653 -317 z "},"]":{"ha":631,"x_min":41,"x_max":482,"o":"m 406 1099 l 69 1099 l 69 1040 l 271 1040 l 271 -231 l 69 -231 l 69 -289 l 406 -289 l 406 1099 m 41 1126 l 482 1126 l 482 -317 l 41 -317 l 41 -203 l 243 -203 l 243 1013 l 41 1013 l 41 1126 z "},"^":{"ha":904,"x_min":58,"x_max":850,"o":"m 248 715 l 429 897 l 611 715 l 734 715 l 429 1021 l 125 715 l 248 715 m 600 688 l 453 833 l 307 688 l 58 688 l 429 1060 l 478 1060 l 850 688 l 600 688 z "},"_":{"ha":925,"x_min":-14,"x_max":943,"o":"m 14 -288 l 14 -361 l 867 -361 l 867 -288 l 14 -288 m -14 -389 l -14 -260 l 943 -260 l 943 -389 l -14 -389 z "},"`":{"ha":746,"x_min":180,"x_max":576,"o":"m 493 760 l 329 964 q 267 996 304 996 q 224 980 240 996 q 208 937 208 964 q 233 888 208 903 l 473 734 l 493 760 m 399 982 l 576 761 l 530 697 l 482 697 l 215 867 q 180 937 180 889 q 204 1000 180 977 q 267 1023 228 1023 q 399 982 366 1023 z "},"a":{"ha":777,"x_min":77,"x_max":762,"o":"m 224 493 q 274 468 256 488 q 293 419 293 449 q 269 360 293 383 q 207 336 245 336 q 134 365 167 336 q 102 446 102 393 q 186 589 102 534 q 407 644 271 644 q 589 592 536 644 q 642 418 642 541 l 642 180 l 685 182 q 762 129 741 178 l 741 92 q 706 42 720 60 q 666 3 692 25 q 606 -28 640 -18 q 525 -37 571 -37 q 439 5 468 -37 q 248 -47 366 -47 q 160 -32 196 -47 q 107 11 123 -16 q 83 60 90 37 q 77 107 77 83 q 144 256 77 207 q 415 358 211 306 l 415 432 q 392 511 415 486 q 334 536 370 536 q 224 493 257 536 m 443 294 l 443 153 q 310 66 378 66 q 246 85 271 66 q 221 139 221 104 q 267 231 221 195 q 443 294 313 267 m 415 161 l 415 244 q 317 139 317 208 q 338 98 317 110 q 415 161 374 111 m 207 396 q 174 431 183 396 q 207 528 160 486 q 346 568 253 568 q 416 534 390 568 q 443 432 443 500 l 443 338 q 174 240 243 286 q 104 107 104 195 q 136 21 104 61 q 248 -20 167 -20 q 308 -9 279 -20 q 366 23 336 1 q 403 52 396 46 q 426 74 410 58 q 443 90 441 89 q 525 -9 452 -9 q 567 0 543 -9 q 615 37 591 9 q 645 74 639 65 q 665 103 652 83 q 684 131 677 123 q 650 153 675 150 q 574 97 612 96 q 546 136 546 98 l 546 418 q 504 571 546 526 q 358 616 461 616 q 197 569 265 616 q 129 446 129 521 q 153 386 129 407 q 207 364 176 364 q 207 396 216 378 z "},"b":{"ha":860,"x_min":-14,"x_max":800,"o":"m 422 528 q 545 463 503 528 q 587 297 587 397 q 534 87 587 150 q 421 25 482 25 q 259 106 312 25 q 256 461 256 241 q 422 528 334 528 m 23 975 q 23 943 20 954 q 153 916 115 939 q 153 66 159 410 q 398 -20 256 -20 q 539 13 478 -20 q 635 97 601 45 q 687 208 670 149 q 705 329 705 267 q 644 539 705 461 q 488 616 584 616 q 256 514 370 616 l 256 1013 q 233 1031 250 1023 q 23 975 142 987 m 242 1064 q 352 1019 316 1059 l 352 608 q 536 644 422 644 q 727 559 653 644 q 800 329 800 473 q 781 197 800 261 q 721 77 762 134 q 610 -13 681 21 q 446 -47 539 -47 q 125 54 249 -47 q 125 899 134 468 q 2 917 81 913 q 3 1002 -14 961 q 242 1064 124 1013 m 559 297 q 530 433 559 376 q 444 497 500 489 q 352 450 396 490 q 355 113 352 245 q 442 54 385 62 q 524 123 490 65 q 559 297 559 180 z "},"c":{"ha":739,"x_min":69,"x_max":671,"o":"m 581 471 q 546 419 581 429 q 546 387 536 401 q 604 411 581 387 q 628 471 628 435 q 568 575 628 534 q 412 616 509 616 q 188 526 278 616 q 97 288 97 435 q 181 58 97 135 q 379 -20 265 -20 q 534 25 463 -20 q 639 161 606 71 q 612 176 629 172 q 584 139 595 151 q 547 106 572 127 q 491 75 522 85 q 422 65 460 65 q 268 127 317 65 q 218 288 218 189 q 412 572 218 572 q 535 547 490 572 q 581 471 581 521 m 600 203 q 671 165 646 197 q 551 6 632 60 q 379 -47 471 -47 q 162 37 256 -47 q 69 288 69 121 q 167 546 69 447 q 412 644 265 644 q 588 596 521 644 q 656 471 656 547 q 624 396 656 424 q 546 368 593 368 q 461 443 461 368 q 519 511 461 490 q 439 542 481 538 q 314 288 314 524 q 446 94 314 110 q 600 203 525 104 z "},"d":{"ha":880,"x_min":69,"x_max":859,"o":"m 393 69 q 271 135 313 69 q 229 300 229 200 q 246 438 229 380 q 290 523 262 496 q 342 561 317 550 q 395 572 368 572 q 538 492 490 572 l 538 393 q 536 142 538 208 q 393 69 461 69 m 836 54 q 833 -32 859 9 q 542 -32 660 -26 q 510 -4 517 -21 q 328 -47 444 -47 q 141 39 212 -47 q 69 273 69 125 q 89 401 69 339 q 148 519 109 464 q 257 610 187 575 q 418 644 328 644 q 510 642 479 644 q 509 899 509 749 q 385 917 464 913 q 385 1003 370 957 q 625 1064 479 1011 q 734 1019 699 1059 q 741 94 734 245 q 836 54 742 65 m 510 485 q 421 542 476 533 q 340 476 374 532 q 306 300 306 421 q 333 166 306 221 q 416 100 361 111 q 509 153 461 110 q 510 393 510 220 l 510 485 m 811 29 q 759 35 777 32 q 708 44 741 37 q 660 63 676 52 q 644 93 644 75 q 639 1013 639 244 q 615 1031 632 1025 q 406 975 525 987 q 406 943 401 958 q 536 916 497 939 q 538 595 536 724 q 418 616 468 616 q 276 585 338 616 q 180 501 215 553 q 129 391 146 449 q 111 273 111 334 q 172 59 111 138 q 317 -20 232 -20 q 534 90 424 -20 q 532 17 534 33 q 549 -4 539 1 q 593 -1 571 -3 q 628 1 615 0 q 652 1 642 1 q 811 -3 689 1 q 811 29 821 11 z "},"e":{"ha":750,"x_min":69,"x_max":685,"o":"m 383 572 q 462 537 437 572 q 486 450 486 503 q 479 406 486 431 l 215 406 q 283 531 236 490 q 383 572 330 572 m 208 359 l 578 359 q 589 429 589 393 q 544 563 589 509 q 400 616 498 616 q 184 524 272 616 q 97 288 97 431 q 180 58 97 135 q 376 -20 264 -20 q 531 25 460 -20 q 636 161 603 71 q 610 176 627 172 q 594 154 607 172 q 574 129 581 136 q 552 106 568 121 q 522 85 536 92 q 485 72 507 78 q 436 65 463 65 q 270 127 332 65 q 205 294 208 189 q 208 359 205 318 m 599 208 q 668 165 642 199 q 549 6 629 60 q 376 -47 468 -47 q 160 37 252 -47 q 69 288 69 121 q 162 542 69 439 q 427 644 256 644 q 685 429 685 644 q 665 332 685 387 l 301 332 l 301 288 q 346 154 304 205 q 460 94 387 103 q 530 123 503 98 q 599 208 558 149 m 458 450 q 408 541 458 525 q 319 433 349 522 l 457 433 q 458 441 457 436 q 458 450 458 447 z "},"f":{"ha":575,"x_min":33,"x_max":705,"o":"m 404 94 q 496 53 406 68 q 493 -33 518 8 q 58 -29 205 -24 q 56 53 33 11 q 171 94 170 68 q 174 507 174 161 l 90 507 q 90 611 68 561 l 174 611 l 174 654 q 261 941 174 823 q 511 1059 349 1059 q 649 1016 593 1059 q 705 901 705 972 q 674 822 705 856 q 593 789 643 789 q 528 810 551 789 q 505 863 505 831 q 546 936 505 920 q 497 946 529 946 q 427 903 454 939 q 399 812 399 867 l 399 611 l 537 611 q 537 507 559 557 l 399 507 q 404 94 399 191 m 497 986 q 595 962 565 986 q 625 904 625 937 q 590 844 625 856 q 590 812 581 831 q 652 840 626 812 q 677 901 677 867 q 630 995 677 960 q 511 1031 582 1031 q 282 922 362 1031 q 201 654 201 812 l 201 583 l 110 583 q 110 534 100 561 l 201 534 q 199 93 201 160 q 83 28 197 43 q 83 -4 73 9 q 471 -4 261 4 q 471 28 480 9 q 308 93 310 43 q 302 534 302 199 l 511 534 q 511 583 521 557 l 302 583 l 302 781 q 359 924 302 863 q 497 986 416 986 z "},"g":{"ha":786,"x_min":69,"x_max":778,"o":"m 215 393 q 251 530 215 488 q 340 572 286 572 q 415 534 380 572 q 449 406 449 496 q 343 212 449 212 q 215 393 215 212 m 212 -180 q 298 -60 212 -106 q 465 -54 353 -54 q 573 -84 546 -54 q 600 -171 600 -114 q 548 -272 600 -220 q 392 -325 496 -325 q 255 -282 298 -325 q 212 -180 212 -240 m 648 587 q 667 568 667 586 q 639 542 667 546 q 581 553 615 539 q 534 572 562 559 q 494 590 505 585 q 462 602 482 595 q 427 610 441 608 q 391 614 412 612 q 343 616 370 616 q 169 547 240 616 q 97 395 97 478 q 220 192 97 260 q 110 45 110 110 q 240 -57 110 -37 q 107 -229 107 -129 q 168 -338 107 -294 q 347 -382 229 -382 q 585 -289 488 -382 q 682 -100 682 -196 q 493 56 682 56 q 437 54 472 56 q 390 53 403 53 q 244 67 286 53 q 201 111 201 81 q 261 175 201 150 q 349 168 302 168 q 504 232 440 168 q 567 404 567 296 q 534 534 567 490 l 538 538 q 567 517 549 530 q 596 498 586 504 q 622 488 606 493 q 653 482 637 482 q 696 502 679 482 q 714 550 714 522 q 697 599 714 579 q 648 619 681 619 q 648 587 639 602 m 657 454 q 663 404 663 432 q 586 212 663 283 q 397 140 509 140 l 313 140 q 301 101 293 118 q 334 83 310 83 l 561 83 q 778 -100 778 83 q 749 -202 778 -149 q 667 -302 720 -256 q 530 -379 615 -349 q 347 -410 446 -410 q 147 -358 215 -410 q 79 -229 79 -307 q 170 -69 79 -143 q 82 45 82 -39 q 171 191 82 117 q 69 395 69 264 q 149 566 69 488 q 343 644 229 644 q 468 635 428 644 q 570 602 509 627 q 648 647 600 647 q 719 619 696 647 q 742 550 742 591 q 719 482 742 510 q 657 454 696 454 m 309 -180 q 334 -256 309 -224 q 416 -296 359 -289 q 533 -248 494 -289 q 572 -171 572 -207 q 553 -105 572 -129 q 481 -82 534 -82 q 354 -87 416 -82 q 309 -180 309 -126 m 311 393 q 367 244 311 265 q 421 406 421 265 q 364 539 421 517 q 311 393 311 517 z "},"h":{"ha":903,"x_min":28,"x_max":895,"o":"m 501 31 q 501 -2 493 16 q 854 -2 677 2 q 854 31 864 14 q 688 96 689 39 l 680 437 q 650 573 677 530 q 557 616 623 616 q 289 461 444 616 l 289 1015 q 265 1034 283 1026 q 69 978 171 989 q 69 946 65 961 q 184 918 147 942 l 184 96 q 68 31 183 46 q 68 -2 60 16 q 422 -2 245 5 q 422 31 431 16 q 294 96 296 45 q 289 418 289 241 q 503 538 425 538 q 576 415 576 538 l 575 96 q 555 50 575 63 q 501 31 534 37 m 479 -26 q 479 56 463 14 q 524 68 501 56 q 547 96 547 80 l 549 415 q 519 505 549 489 q 385 432 469 493 q 390 98 385 249 q 444 56 393 62 q 444 -26 461 14 q 44 -26 245 -19 q 44 56 28 14 q 157 98 155 71 l 157 901 q 44 920 111 916 q 44 1006 29 960 q 275 1067 147 1011 q 385 1022 349 1061 l 385 581 q 606 644 480 644 q 736 594 697 644 q 777 437 775 545 q 783 96 779 172 q 879 56 785 68 q 876 -26 895 12 q 479 -26 677 -22 z "},"i":{"ha":529,"x_min":35,"x_max":498,"o":"m 251 953 q 404 842 404 953 q 251 730 404 730 q 208 739 228 730 q 173 763 188 748 q 149 799 158 779 q 140 842 140 819 q 149 884 140 864 q 173 920 158 905 q 208 944 188 935 q 251 953 228 953 m 189 900 q 168 842 168 876 q 174 809 168 824 q 190 782 180 793 q 213 765 200 771 q 241 758 227 758 q 269 765 256 758 q 293 782 283 771 q 309 809 303 793 q 315 842 315 824 q 309 874 315 859 q 293 901 303 890 q 269 919 283 912 q 241 925 256 925 q 214 919 227 925 q 189 900 200 913 m 463 31 q 300 96 301 46 q 294 596 293 300 q 271 614 289 607 q 75 558 176 570 q 75 526 71 542 q 191 498 151 522 q 190 96 197 245 q 75 31 189 46 q 75 -2 68 14 q 463 -2 269 2 q 463 31 469 14 m 488 56 q 488 -26 498 14 q 50 -26 269 -19 q 50 56 39 14 q 162 98 161 67 q 163 482 171 288 q 50 500 118 496 q 50 586 35 541 q 281 647 153 591 q 390 603 354 642 q 395 98 387 269 q 488 56 397 67 z "},"j":{"ha":500,"x_min":-97,"x_max":396,"o":"m 180 900 q 160 842 160 876 q 166 809 160 824 q 182 782 172 793 q 205 765 192 771 q 233 758 218 758 q 261 765 248 758 q 285 782 275 771 q 301 809 295 793 q 307 842 307 824 q 301 874 307 859 q 285 901 295 890 q 261 919 275 912 q 233 925 248 925 q 205 919 219 925 q 180 900 192 913 m 69 -338 q 5 -309 28 -338 q -18 -245 -18 -281 q 17 -184 -18 -196 q 17 -153 26 -171 q -43 -178 -20 -153 q -66 -251 -66 -204 q -31 -340 -66 -298 q 64 -382 4 -382 q 174 -353 127 -382 q 243 -273 220 -323 q 276 -168 267 -222 q 286 -49 286 -113 l 286 596 q 262 614 281 607 q 53 558 172 571 q 53 526 49 542 q 183 498 144 522 q 183 -160 193 178 q 154 -298 180 -258 q 69 -338 127 -338 m 243 953 q 396 842 396 953 q 243 730 396 730 q 165 763 197 730 q 132 842 132 796 q 165 920 132 888 q 243 953 197 953 m 45 -306 q 132 -280 109 -322 q 155 -160 155 -237 l 155 482 q 32 500 111 496 q 32 586 17 541 q 272 647 146 593 q 382 603 346 642 l 382 -49 q 358 -217 383 -139 q 271 -353 334 -296 q 117 -410 208 -410 q -41 -363 16 -410 q -97 -243 -97 -317 q -66 -158 -97 -192 q 18 -125 -35 -125 q 109 -212 109 -125 q 45 -306 109 -285 z "},"k":{"ha":831,"x_min":28,"x_max":863,"o":"m 439 602 q 439 570 431 583 q 478 559 460 567 q 503 537 496 551 q 490 504 511 522 l 353 374 l 298 374 q 297 1013 297 575 q 273 1031 290 1025 q 64 975 183 987 q 64 943 60 958 q 195 916 155 939 q 197 661 195 831 q 199 354 199 490 q 193 93 199 218 q 77 28 191 43 q 77 -4 69 11 q 250 0 167 0 q 419 -4 330 0 q 419 28 428 11 q 302 93 302 43 q 298 330 298 168 l 351 330 l 536 93 q 492 32 576 41 q 492 0 484 16 l 647 0 q 819 -4 724 0 q 819 28 827 11 q 699 61 733 37 q 664 93 679 74 l 433 383 l 553 504 q 724 570 604 557 q 724 602 729 586 q 439 602 572 593 m 427 629 q 743 631 610 623 q 745 543 760 589 q 572 485 618 530 l 508 419 l 754 110 q 794 71 777 82 q 847 53 811 60 q 844 -29 863 8 q 481 -29 705 -21 q 476 53 461 14 q 501 93 517 61 l 394 229 q 399 93 394 142 q 433 53 401 61 q 431 -29 447 17 q 58 -29 245 -25 q 56 53 31 12 q 165 94 163 66 q 168 393 168 161 q 168 564 168 450 q 167 728 167 677 l 167 899 q 43 917 122 913 q 43 1003 28 957 q 283 1064 138 1011 q 393 1019 357 1059 l 393 452 l 471 525 q 469 539 480 534 q 425 547 464 541 q 427 629 404 586 z "},"l":{"ha":522,"x_min":28,"x_max":492,"o":"m 456 31 q 293 96 294 46 q 288 1013 286 472 q 264 1031 282 1023 q 68 975 170 986 q 68 943 64 958 q 184 916 144 939 q 183 96 190 406 q 68 31 182 46 q 68 -2 61 14 q 456 -2 225 3 q 456 31 463 14 m 480 56 q 480 -26 492 14 q 43 -26 219 -20 q 43 56 32 14 q 155 98 154 67 q 157 899 163 496 q 43 917 111 913 q 43 1003 28 957 q 273 1064 146 1008 q 383 1019 347 1059 q 389 98 380 415 q 480 56 390 67 z "},"m":{"ha":1279,"x_min":35,"x_max":1268,"o":"m 769 432 q 777 96 769 236 q 822 56 778 60 q 822 -26 839 14 q 473 -26 648 -22 q 473 56 457 14 q 540 96 540 66 l 541 415 q 512 505 541 489 q 391 432 452 490 q 397 98 391 245 q 407 71 399 80 q 443 56 415 62 q 443 -26 460 14 q 52 -26 248 -20 q 52 56 35 14 q 163 98 162 71 q 163 482 170 250 q 52 500 118 496 q 52 586 36 541 q 282 647 154 591 q 391 603 355 642 l 391 581 q 483 629 439 614 q 598 644 526 644 q 747 564 709 644 q 858 628 814 612 q 979 644 903 644 q 1111 594 1072 644 q 1150 437 1150 543 q 1157 96 1150 236 q 1253 56 1158 68 q 1250 -26 1268 12 q 854 -26 1051 -22 q 854 56 838 14 q 899 68 876 56 q 921 96 921 80 l 922 415 q 893 505 922 489 q 769 432 838 492 m 672 461 q 640 579 668 542 q 550 616 612 616 q 455 590 504 616 q 376 538 406 564 q 296 461 347 513 l 296 596 q 272 614 290 607 q 76 558 178 570 q 76 526 72 542 q 191 498 154 522 q 191 96 196 296 q 75 31 190 46 q 75 -2 66 16 q 420 -2 248 3 q 420 31 429 16 q 301 96 302 45 q 296 418 296 237 q 411 509 366 479 q 496 538 456 538 q 569 415 569 538 l 568 96 q 496 31 568 43 q 496 -2 488 16 q 800 -2 648 2 q 800 31 808 16 q 742 39 764 34 q 700 58 720 43 q 680 96 680 73 l 673 418 q 789 509 744 479 q 873 538 833 538 q 947 415 947 538 l 945 96 q 873 31 945 43 q 873 -2 865 16 q 1225 -2 1048 2 q 1225 31 1234 14 q 1058 96 1059 39 l 1051 437 q 1021 573 1048 530 q 928 616 994 616 q 832 591 882 616 q 753 538 783 566 q 672 461 722 511 z "},"n":{"ha":914,"x_min":35,"x_max":901,"o":"m 508 31 q 508 -2 500 16 q 861 -2 684 2 q 861 31 871 14 q 694 96 696 39 l 688 437 q 657 573 684 530 q 564 616 631 616 q 296 461 451 616 l 296 596 q 272 614 290 607 q 76 558 178 570 q 76 526 72 542 q 191 498 154 522 q 191 96 199 296 q 75 31 190 46 q 75 -2 66 16 q 429 -2 251 5 q 429 31 437 16 q 301 96 302 45 q 296 418 296 237 q 509 538 432 538 q 583 415 583 538 l 582 96 q 562 50 582 63 q 508 31 541 37 m 486 -26 q 486 56 469 14 q 531 68 508 56 q 554 96 554 80 l 555 415 q 526 505 555 489 q 391 432 476 493 q 397 98 391 245 q 451 56 400 62 q 451 -26 468 14 q 52 -26 252 -19 q 52 56 35 14 q 163 98 162 71 q 163 482 171 289 q 52 500 118 496 q 52 586 36 541 q 282 647 154 591 q 391 603 355 642 l 391 581 q 612 644 488 644 q 743 594 704 644 q 783 437 782 545 q 790 96 786 168 q 886 56 791 68 q 883 -26 901 12 q 486 -26 684 -22 z "},"o":{"ha":822,"x_min":69,"x_max":757,"o":"m 389 572 q 499 506 458 572 q 541 298 541 439 q 499 92 541 158 q 389 25 458 25 q 318 41 350 25 q 265 92 287 58 q 231 177 243 125 q 218 298 218 228 q 231 420 218 368 q 265 506 243 472 q 318 556 287 539 q 389 572 350 572 m 389 -20 q 502 4 452 -20 q 588 70 552 28 q 642 171 623 113 q 661 298 661 229 q 642 426 661 368 q 588 527 623 484 q 502 593 552 569 q 389 616 452 616 q 267 593 321 616 q 175 527 213 569 q 117 426 138 485 q 97 298 97 368 q 117 170 97 229 q 175 70 138 112 q 267 4 213 27 q 389 -20 321 -20 m 412 644 q 558 619 494 644 q 667 548 623 594 q 734 439 711 503 q 757 298 757 375 q 734 159 757 222 q 667 49 711 95 q 559 -22 623 3 q 412 -47 494 -47 q 267 -22 331 -47 q 159 49 203 3 q 92 158 115 95 q 69 298 69 222 q 92 439 69 375 q 159 548 115 503 q 267 619 203 594 q 412 644 331 644 m 314 298 q 412 56 314 79 q 513 298 513 79 q 412 542 513 515 q 314 298 314 515 z "},"p":{"ha":864,"x_min":-7,"x_max":807,"o":"m 429 528 q 551 463 509 528 q 593 297 593 397 q 541 87 593 150 q 428 25 489 25 q 265 111 311 25 l 265 464 q 429 528 343 528 m 565 297 q 536 432 565 376 q 451 497 507 488 q 361 452 404 490 l 361 115 q 446 54 387 64 q 530 121 494 64 q 565 297 565 178 m 31 526 l 32 526 q 162 498 123 522 q 161 -268 162 -21 q 45 -334 159 -318 q 45 -366 41 -349 q 433 -366 223 -357 q 433 -334 441 -350 q 271 -268 272 -318 l 267 4 q 408 -20 333 -20 q 548 13 488 -20 q 642 97 608 45 q 693 208 676 149 q 711 329 711 267 q 650 539 711 461 q 494 616 590 616 q 265 517 378 616 l 265 596 q 241 614 260 607 q 32 558 151 571 q 31 526 26 543 m 9 586 q 248 652 142 597 q 358 607 322 646 q 543 644 422 644 q 733 559 660 644 q 807 329 807 473 q 787 197 807 261 q 727 77 766 134 q 617 -13 688 21 q 457 -47 547 -47 q 362 -45 399 -47 l 366 -267 q 458 -309 368 -293 q 458 -393 476 -349 q 25 -390 187 -383 q 25 -309 9 -347 q 133 -267 132 -294 l 134 482 q 11 500 90 496 q 9 586 -7 541 z "},"q":{"ha":848,"x_min":69,"x_max":850,"o":"m 399 69 q 262 135 309 69 q 215 300 215 200 q 234 438 215 380 q 283 523 253 496 q 342 561 314 550 q 400 572 371 572 q 543 485 496 572 q 545 154 543 288 q 399 69 463 69 m 542 -268 q 427 -334 541 -318 q 427 -367 419 -350 q 814 -367 619 -363 q 814 -334 821 -350 q 652 -268 653 -318 q 646 546 646 -117 q 625 572 646 564 q 424 616 524 616 q 273 585 339 616 q 170 501 207 553 q 115 391 134 449 q 97 273 97 334 q 163 59 97 138 q 334 -20 229 -20 q 545 102 429 -20 q 542 -268 545 -201 m 747 -267 q 839 -309 749 -297 q 839 -390 850 -350 q 401 -390 619 -383 q 401 -309 390 -350 q 514 -267 513 -297 q 517 -1 517 -201 q 354 -47 449 -47 q 145 37 221 -47 q 69 273 69 122 q 89 401 69 339 q 149 519 109 463 q 264 610 189 576 q 439 644 339 644 q 701 600 587 644 q 742 553 730 589 q 747 -267 742 -123 m 515 476 q 428 542 484 532 q 346 476 380 532 q 311 300 311 421 q 339 168 311 222 q 419 100 367 113 q 517 165 463 111 q 515 476 515 296 z "},"r":{"ha":682,"x_min":35,"x_max":622,"o":"m 304 382 q 374 503 321 444 q 481 562 427 562 q 546 521 546 562 q 511 473 546 484 q 511 441 501 460 q 571 464 547 441 q 594 526 594 486 q 569 592 594 568 q 503 616 543 616 q 396 574 450 616 q 304 479 343 532 l 304 596 q 281 614 298 607 q 71 558 190 571 q 71 526 66 542 q 201 498 162 522 q 200 93 207 245 q 85 28 199 43 q 85 -4 75 9 q 472 -4 262 4 q 472 28 481 9 q 310 93 311 43 q 304 382 304 231 m 406 94 q 497 53 407 68 q 494 -33 519 8 q 60 -29 207 -24 q 57 53 35 11 q 172 94 171 68 q 174 482 180 288 q 50 500 129 496 q 50 586 35 541 q 290 647 163 593 q 400 603 363 639 q 503 644 457 644 q 589 613 555 644 q 622 526 622 582 q 591 444 622 473 q 511 414 559 414 q 435 444 465 414 q 400 376 407 407 q 406 94 400 229 z "},"s":{"ha":681,"x_min":66,"x_max":629,"o":"m 172 -8 q 109 -35 140 -19 q 66 5 77 -15 q 71 33 68 9 q 76 89 73 57 q 81 155 79 121 q 83 212 83 189 q 182 227 115 227 q 197 227 189 227 q 212 227 204 227 q 346 54 261 68 q 399 80 380 60 q 418 125 418 100 q 408 159 418 143 q 380 189 397 175 q 341 214 363 202 q 293 236 318 225 q 242 258 268 248 q 193 280 216 269 q 145 308 168 292 q 106 346 123 325 q 79 393 89 368 q 69 449 69 419 q 80 515 69 481 q 117 578 91 550 q 189 626 144 607 q 301 644 233 644 q 412 636 376 644 l 437 644 l 484 644 q 505 536 492 587 q 533 443 517 486 q 463 414 504 414 q 420 463 439 441 q 382 501 400 485 q 347 528 364 517 q 311 542 330 538 q 267 501 267 534 q 290 455 267 475 q 347 419 313 435 q 423 388 382 403 q 500 357 464 374 q 550 328 527 346 q 591 285 574 309 q 619 232 609 261 q 629 168 629 202 q 604 78 629 118 q 537 10 578 38 q 441 -33 495 -18 q 332 -47 388 -47 q 172 -8 237 -47 m 328 -20 q 473 31 412 -20 q 533 143 533 81 q 496 249 533 204 q 406 317 458 293 q 299 362 353 342 q 208 411 245 383 q 171 476 171 439 q 206 548 171 524 q 289 572 241 572 q 378 541 339 572 q 475 441 418 510 q 501 450 493 441 q 427 569 476 522 q 301 616 378 616 q 144 565 192 616 q 97 449 97 513 q 133 356 97 395 q 221 297 170 318 q 323 256 272 277 q 410 203 374 236 q 446 125 446 171 q 412 56 446 86 q 319 25 379 25 q 209 71 248 25 q 143 199 170 117 q 111 195 119 199 q 106 83 111 146 q 97 8 102 20 q 110 -4 102 1 q 153 37 138 16 q 246 -8 212 4 q 328 -20 279 -20 z "},"t":{"ha":615,"x_min":40,"x_max":593,"o":"m 278 534 l 545 534 q 545 583 554 561 l 278 583 l 278 732 q 244 732 261 739 q 189 650 219 685 q 137 601 158 615 q 78 566 117 587 q 78 534 73 551 l 161 534 l 161 179 q 325 -20 161 -20 q 454 17 395 -20 q 542 106 513 53 q 519 122 536 121 q 396 65 456 65 q 278 172 278 65 l 278 534 m 511 151 q 572 104 554 146 q 470 -4 537 40 q 325 -47 403 -47 q 134 179 134 -47 l 134 507 l 50 507 q 50 582 40 543 q 113 621 92 606 q 168 671 135 636 q 225 754 200 705 q 374 751 289 781 l 374 611 l 571 611 q 571 507 593 561 l 374 507 l 374 172 q 420 96 374 107 q 511 151 461 104 z "},"u":{"ha":917,"x_min":24,"x_max":878,"o":"m 533 164 q 533 504 538 334 q 431 545 533 528 q 431 627 415 586 l 724 627 q 751 610 743 619 q 766 585 760 602 q 763 546 766 572 q 760 504 760 519 q 760 115 753 281 q 863 97 808 100 q 863 11 878 57 q 643 -50 774 5 q 533 -5 569 -45 l 533 12 q 313 -47 440 -47 q 182 3 220 -47 q 142 160 143 53 q 142 504 143 330 q 39 545 142 528 q 39 627 24 586 l 333 627 q 361 610 353 619 q 376 585 370 602 q 373 546 376 572 q 370 504 370 519 q 370 182 365 346 q 397 92 372 104 q 533 164 447 104 m 561 504 q 561 150 565 328 q 366 60 435 60 q 273 182 273 60 q 273 504 269 346 q 277 548 273 522 q 281 581 281 574 q 261 602 273 596 q 61 602 161 595 q 61 570 56 586 q 170 504 168 553 q 170 160 171 332 q 201 24 168 68 q 313 -20 235 -20 q 561 107 415 -20 l 561 8 q 585 -9 566 -3 q 836 39 682 26 q 836 71 842 56 q 664 98 720 75 q 664 504 659 340 q 667 548 664 522 q 671 581 671 574 q 651 602 664 596 q 452 602 553 596 q 452 570 447 586 q 561 504 559 553 z "},"v":{"ha":734,"x_min":-41,"x_max":730,"o":"m -26 627 q 396 627 185 619 q 396 545 412 581 q 337 529 352 538 q 331 496 323 519 l 405 297 l 488 496 q 487 529 499 521 q 430 545 474 538 q 430 627 414 586 q 714 627 573 623 q 714 545 730 586 q 642 529 663 541 q 609 493 620 518 l 370 -47 l 299 -47 l 87 494 q 51 529 77 518 q -26 545 26 539 q -26 627 -41 586 m 376 602 q -5 602 185 595 q -5 570 -12 583 q 73 551 46 564 q 113 504 99 539 l 319 -20 l 352 -20 l 584 504 q 694 570 613 566 q 694 602 701 583 q 450 602 573 597 q 450 570 444 583 q 493 563 477 568 q 522 544 509 558 q 522 504 535 529 l 364 132 l 230 504 q 230 535 222 522 q 262 554 238 547 q 310 564 286 561 q 376 570 335 567 q 376 602 382 583 z "},"w":{"ha":1079,"x_min":-41,"x_max":1080,"o":"m 735 602 l 397 602 q 397 570 389 586 q 474 504 458 558 l 502 431 l 378 158 l 376 158 l 237 504 q 249 546 226 532 q 324 570 271 559 q 324 602 331 586 l -3 602 q -3 570 -11 586 q 109 504 87 555 l 324 -20 l 356 -20 l 528 361 l 675 -20 l 707 -20 l 935 504 q 1040 570 960 564 q 1040 602 1046 586 l 809 602 q 809 570 802 586 q 841 565 828 568 q 867 554 854 561 q 880 535 880 547 q 876 504 881 524 l 730 158 l 727 158 l 602 504 q 598 522 602 514 q 602 537 595 530 q 612 547 609 543 q 627 555 614 551 q 648 560 640 558 q 674 565 656 562 q 703 568 691 567 q 735 570 715 568 q 735 602 742 586 m 377 627 l 755 627 q 755 545 777 583 q 731 542 738 543 q 711 538 724 541 q 694 533 698 536 q 684 526 691 530 q 680 515 677 521 q 682 498 682 509 l 758 296 l 844 498 q 840 531 853 521 q 789 545 827 541 q 789 627 767 583 l 1059 627 q 1057 545 1080 585 q 991 530 1012 542 q 960 493 970 518 l 726 -47 l 656 -47 l 526 290 l 374 -47 l 304 -47 l 83 493 q 51 527 73 517 q -22 545 28 536 q -23 627 -41 581 l 344 627 q 342 545 361 581 q 319 498 302 542 l 406 285 l 473 431 l 446 497 q 378 545 431 534 q 377 627 359 581 z "},"x":{"ha":757,"x_min":-14,"x_max":763,"o":"m 720 28 q 607 58 641 41 q 544 119 573 74 l 409 307 l 563 504 q 690 574 614 571 q 690 606 695 589 q 446 606 568 599 q 446 574 441 590 q 487 566 470 572 q 512 546 503 559 q 500 509 520 532 l 380 346 l 266 504 q 269 555 241 541 q 361 574 298 570 q 363 590 363 578 q 361 607 363 603 q 33 607 208 599 q 33 574 28 590 q 71 566 58 570 q 107 547 84 562 q 149 504 130 532 l 304 289 l 146 93 q 22 28 96 31 q 22 -4 17 12 q 264 -4 144 3 q 264 28 269 12 q 224 35 241 29 q 199 55 208 41 q 210 93 191 69 l 334 249 l 431 115 q 450 51 463 71 q 377 28 437 32 q 377 -5 373 12 q 720 -5 547 4 q 720 28 728 11 m 742 53 q 741 -29 763 9 q 356 -29 549 -21 q 355 53 341 14 q 410 66 399 57 q 406 100 421 75 l 331 200 l 245 92 q 235 73 235 81 q 242 62 234 65 q 259 56 250 58 q 287 53 267 54 q 286 -29 300 14 q 1 -29 144 -22 q 1 53 -14 11 q 124 111 80 56 l 269 290 l 145 467 q 93 518 119 503 q 10 549 67 533 q 12 631 -3 589 q 382 631 199 623 q 384 549 398 587 q 356 534 359 545 q 366 507 353 524 l 414 439 l 467 509 q 474 536 483 528 q 424 549 465 545 q 426 631 412 590 q 710 631 568 624 q 710 549 726 590 q 633 531 661 547 q 583 485 606 515 l 478 351 l 635 135 q 742 53 680 75 z "},"y":{"ha":700,"x_min":-62,"x_max":709,"o":"m 696 627 q 693 545 709 583 q 587 493 608 541 l 379 -8 l 305 -204 q 215 -366 261 -322 q 101 -410 170 -410 q 9 -375 44 -410 q -25 -289 -25 -340 q 9 -204 -25 -239 q 94 -170 44 -170 q 190 -215 154 -170 l 272 1 l 66 493 q -45 545 52 533 q -47 627 -62 583 q 371 627 182 618 q 368 545 385 583 q 313 532 328 542 q 309 498 298 522 l 391 296 l 468 498 q 464 531 476 519 q 407 545 451 543 q 404 627 390 583 q 696 627 460 624 m 675 602 q 425 602 525 595 q 425 570 418 583 q 469 564 451 568 q 498 544 486 559 q 500 504 509 529 l 358 131 l 215 488 q 246 547 200 526 q 350 570 292 567 q 350 602 357 583 q -26 602 147 593 q -26 570 -33 583 q 92 504 68 558 l 302 0 l 228 -193 q 174 -291 205 -256 q 110 -326 143 -326 q 54 -271 54 -326 q 81 -229 54 -235 q 81 -197 90 -214 q 25 -220 47 -197 q 3 -283 3 -243 q 33 -355 3 -328 q 109 -382 62 -382 q 201 -343 164 -382 q 279 -195 237 -304 l 353 3 l 562 504 q 675 570 589 566 q 675 602 682 583 z "},"z":{"ha":718,"x_min":39,"x_max":646,"o":"m 127 602 l 81 432 q 104 422 90 422 l 171 547 q 335 559 229 559 l 425 559 l 69 24 q 87 -4 75 4 q 330 0 205 0 q 404 5 372 0 q 480 28 435 9 q 559 92 525 46 q 611 208 593 138 q 587 214 600 214 q 546 144 561 167 q 504 96 530 122 q 446 59 478 69 q 370 49 414 49 l 200 49 l 550 576 q 538 602 550 589 q 336 596 447 596 q 127 602 227 596 m 122 395 q 83 405 109 395 q 50 424 58 415 l 107 631 q 616 629 351 618 q 646 567 646 600 l 321 77 l 370 77 q 437 87 408 77 q 491 123 467 97 q 531 172 515 149 q 572 241 546 195 q 643 224 607 241 l 591 -33 q 311 -28 336 -28 q 79 -32 126 -28 q 39 29 50 -16 l 372 532 q 227 494 300 528 q 122 395 154 460 z "},"{":{"ha":619,"x_min":56,"x_max":603,"o":"m 56 465 q 139 494 106 473 q 189 548 171 516 q 214 618 208 579 q 221 701 221 658 l 216 835 q 217 877 216 855 q 220 919 218 898 q 228 960 222 940 q 243 997 233 979 q 279 1046 258 1023 q 337 1088 300 1069 q 432 1120 374 1107 q 579 1140 490 1133 l 603 1053 q 551 1041 576 1049 q 506 1019 526 1033 q 473 986 486 1006 q 461 941 461 967 q 473 705 473 710 q 289 410 473 510 q 473 115 473 309 q 472 103 473 109 q 461 -122 472 97 q 473 -167 461 -148 q 506 -200 486 -186 q 551 -222 526 -214 q 603 -233 576 -230 l 579 -321 q 416 -298 465 -313 q 308 -250 348 -278 q 248 -185 269 -221 q 222 -106 228 -149 q 216 -16 216 -64 l 221 118 q 220 154 221 138 q 217 185 219 170 q 210 217 214 201 q 198 254 205 233 q 148 320 184 294 q 56 354 112 346 l 56 465 m 83 440 l 83 379 q 162 351 129 372 q 211 303 195 329 q 237 240 228 278 q 247 177 245 201 q 249 118 249 153 l 244 -16 q 246 -67 244 -47 q 254 -115 248 -86 q 272 -162 260 -143 q 306 -204 283 -182 q 360 -242 328 -227 q 440 -270 392 -257 q 551 -290 489 -283 l 561 -257 q 421 -216 482 -250 q 366 -115 359 -182 l 376 92 q 154 410 389 318 q 260 468 215 433 q 326 535 304 503 q 360 608 347 567 q 374 673 372 648 q 376 728 376 697 q 371 843 376 774 q 366 935 366 913 q 425 1036 366 1002 q 561 1076 484 1069 l 551 1109 q 440 1089 489 1103 q 360 1061 392 1076 q 306 1024 328 1046 q 272 982 283 1002 q 254 934 260 962 q 246 886 248 905 q 244 835 244 867 l 249 701 q 247 642 249 667 q 237 580 245 618 q 211 516 228 542 q 162 469 195 490 q 83 440 129 447 z "},"|":{"ha":374,"x_min":97,"x_max":281,"o":"m 125 1232 l 125 -323 l 204 -323 l 204 1232 l 125 1232 m 97 -351 l 97 1260 l 281 1260 l 281 -351 l 97 -351 z "},"}":{"ha":619,"x_min":21,"x_max":568,"o":"m 401 410 q 178 114 178 322 q 191 -115 178 109 q 179 -180 191 -157 q 148 -219 167 -203 q 105 -244 129 -235 q 56 -257 81 -254 l 65 -290 q 193 -256 144 -279 q 268 -199 241 -233 q 302 -124 294 -166 q 311 -16 311 -82 q 307 130 307 124 q 307 141 307 136 q 472 379 307 357 l 472 440 q 307 678 307 463 q 307 689 307 684 q 311 835 307 695 q 310 894 311 876 q 305 934 309 913 q 297 967 301 956 q 282 1000 293 979 q 65 1109 237 1085 l 56 1076 q 105 1064 81 1073 q 148 1039 129 1055 q 179 1000 167 1023 q 191 946 191 977 q 178 705 178 711 q 401 410 178 496 m 163 -115 q 151 104 151 98 q 151 117 151 111 q 334 410 151 312 q 151 705 151 508 q 151 716 151 710 q 163 941 151 722 q 151 986 163 967 q 118 1019 138 1006 q 73 1041 98 1033 q 21 1053 47 1049 l 45 1140 q 182 1122 128 1134 q 270 1096 235 1111 q 327 1062 305 1080 q 364 1023 348 1043 q 389 982 380 1004 q 401 938 397 960 q 407 897 406 916 q 407 835 408 878 q 402 691 403 696 q 402 682 402 687 q 568 465 402 488 l 568 354 q 402 136 402 332 q 402 127 402 132 q 407 -16 403 123 q 407 -41 407 -24 q 407 -78 408 -59 q 401 -119 406 -98 q 389 -163 397 -141 q 364 -204 380 -185 q 326 -242 347 -224 q 271 -276 305 -261 q 182 -303 236 -292 q 45 -321 128 -315 l 21 -233 q 73 -222 47 -230 q 118 -200 98 -214 q 151 -167 138 -186 q 163 -115 163 -148 z "},"~":{"ha":1007,"x_min":98,"x_max":921,"o":"m 125 272 l 179 272 q 231 345 203 321 q 304 368 260 368 q 345 362 322 368 q 382 349 367 355 q 424 331 397 343 q 463 313 450 318 q 604 272 549 272 q 751 333 685 272 q 838 493 817 393 l 782 493 q 661 385 753 385 q 555 415 616 385 q 361 476 439 476 q 268 454 311 476 q 197 396 225 432 q 152 332 168 361 q 125 272 136 302 m 125 244 l 98 282 q 120 331 109 307 q 155 389 132 355 q 205 446 178 422 q 273 487 232 469 q 361 504 314 504 q 484 488 428 504 q 596 448 541 472 q 684 415 652 424 q 761 521 736 429 l 921 521 q 810 318 892 392 q 604 244 728 244 q 454 287 547 244 q 329 338 361 329 q 245 244 283 325 l 125 244 z "},"":{"ha":361,"x_min":0,"x_max":0,"o":"z "},"":{"ha":558,"x_min":143,"x_max":419,"o":"m 264 766 l 231 766 l 227 671 q 219 555 224 618 q 208 426 214 492 q 195 298 202 361 q 183 185 189 235 q 174 101 178 135 q 171 61 171 68 q 180 20 171 35 q 201 -3 189 5 q 226 -14 213 -12 q 247 -17 239 -17 q 267 -15 254 -17 q 292 -4 279 -12 q 314 19 305 3 q 323 61 323 35 q 320 106 323 71 q 312 193 317 142 q 301 307 307 244 q 288 434 294 369 q 277 560 282 498 q 269 671 272 621 l 264 766 m 256 825 q 213 834 233 825 q 177 858 193 843 q 153 893 162 873 q 144 936 144 913 q 153 979 144 959 q 177 1014 162 999 q 213 1038 193 1029 q 256 1047 233 1047 q 408 936 408 1047 q 256 825 408 825 m 193 994 q 172 936 172 971 q 178 903 172 918 q 194 877 184 888 q 217 859 203 865 q 245 852 230 852 q 275 859 261 852 q 298 878 288 866 q 314 904 308 889 q 319 936 319 919 q 314 969 319 954 q 298 995 308 984 q 274 1013 288 1006 q 245 1019 260 1019 q 193 994 214 1019 m 204 794 l 358 794 l 366 672 q 401 269 374 524 q 419 61 419 110 q 375 -24 419 -3 q 257 -45 332 -45 q 225 -41 241 -45 q 189 -28 210 -37 q 156 5 168 -18 q 143 61 143 28 q 160 240 143 114 q 199 672 191 481 l 204 794 z "},"":{"ha":794,"x_min":90,"x_max":692,"o":"m 378 566 l 378 72 q 236 288 236 111 q 378 566 236 526 m 431 62 l 431 567 q 556 541 509 567 q 603 479 603 514 q 558 421 603 431 q 558 387 551 404 q 623 411 597 387 q 648 471 648 435 q 587 574 648 533 q 431 616 525 615 l 431 713 l 378 713 l 378 612 q 190 509 262 596 q 118 288 118 421 q 194 65 118 142 q 378 -18 271 -11 l 378 -111 l 431 -111 l 431 -18 q 567 35 505 -9 q 660 161 629 79 q 633 176 650 172 q 603 139 615 153 q 566 105 591 126 q 506 73 541 83 q 431 62 472 62 m 567 359 q 507 375 530 359 l 507 103 q 624 205 581 129 q 692 165 660 200 q 616 23 665 75 q 507 -43 567 -29 l 507 -139 l 350 -139 l 350 -45 q 165 54 240 -29 q 90 288 90 138 q 161 520 90 428 q 350 636 232 612 l 350 741 l 507 741 l 507 643 q 630 582 585 625 q 676 471 676 539 q 644 391 676 422 q 567 359 612 359 m 318 288 q 350 180 318 221 l 350 436 q 323 378 329 407 q 318 288 318 349 z "},"":{"ha":794,"x_min":-57,"x_max":758,"o":"m 222 525 l 222 568 q 226 691 222 640 q 242 799 229 742 q 278 890 254 856 q 343 948 301 925 q 444 971 385 971 q 573 920 533 971 q 654 742 612 868 q 684 750 675 739 q 610 956 667 892 q 444 1019 553 1019 q 353 1012 393 1019 q 264 975 313 1004 q 183 893 215 945 q 130 748 151 842 q 109 525 109 654 l -29 529 l -29 472 l 109 475 q 102 93 109 269 q -35 28 100 43 l -35 -5 l 401 -5 q 610 61 533 -5 q 728 253 688 127 q 705 264 722 264 q 661 179 681 211 q 606 112 642 147 q 516 59 570 77 q 390 41 463 41 l 228 41 q 222 475 222 279 l 532 472 l 532 529 l 222 525 m 689 292 q 758 254 739 292 q 684 -29 700 132 l -54 -29 l -56 54 q 74 94 72 69 q 81 446 81 271 l -57 443 l -57 558 l 81 553 q 104 774 81 681 q 162 920 127 868 q 249 1001 197 971 q 345 1039 301 1031 q 444 1047 389 1047 q 588 1028 496 1047 q 708 1006 681 1010 q 713 745 681 889 q 635 714 688 714 q 613 777 618 762 q 594 827 608 791 q 571 874 581 863 q 545 905 561 886 q 511 931 529 924 q 469 942 493 939 q 387 903 419 935 q 341 813 355 872 q 322 697 326 754 q 318 553 318 640 l 567 558 l 567 443 l 318 444 q 322 69 318 229 l 387 69 q 502 87 452 69 q 588 140 553 106 q 645 209 623 175 q 689 292 667 243 z "},"":{"ha":794,"x_min":8,"x_max":790,"o":"m 399 290 q 461 311 433 294 q 512 351 490 327 q 545 407 533 376 q 557 472 557 438 q 545 537 557 507 q 511 592 532 568 q 461 632 490 616 q 399 653 432 648 q 337 632 366 648 q 287 593 309 616 q 254 538 266 569 q 241 472 241 507 q 254 406 241 437 q 287 351 266 375 q 337 310 308 326 q 399 290 366 294 m 227 322 q 165 472 165 384 q 182 554 165 515 q 227 621 199 592 q 294 666 256 649 q 375 682 332 682 q 456 666 418 682 q 523 621 494 649 q 568 554 551 592 q 585 472 585 515 q 568 390 585 429 q 524 323 552 352 q 457 278 495 294 q 375 261 418 261 q 227 322 288 261 m 703 745 l 646 799 l 547 700 q 375 757 475 757 q 200 699 281 757 l 103 799 l 47 745 l 147 644 q 87 472 87 568 q 147 298 87 385 l 47 199 l 103 144 l 200 244 q 375 184 286 184 q 547 244 475 184 l 646 144 l 703 199 l 602 298 q 661 472 661 372 q 603 646 661 578 l 703 745 m 694 838 l 790 745 l 689 643 q 737 472 737 572 q 688 300 737 375 l 790 199 l 694 106 l 646 106 l 561 189 q 375 157 493 157 q 235 191 300 157 q 151 106 174 129 l 103 106 l 8 199 l 113 302 q 60 472 60 389 q 111 642 60 559 l 8 745 l 103 838 l 151 838 l 235 751 q 375 785 304 785 q 561 753 486 785 l 646 838 l 694 838 z "},"":{"ha":794,"x_min":-57,"x_max":811,"o":"m 401 997 l -27 997 q -31 982 -31 989 q -27 965 -31 974 q 4 961 -9 963 q 25 957 17 959 q 44 951 34 956 q 65 940 55 947 q 83 923 75 933 q 98 900 92 913 l 284 486 l 106 486 l 106 433 l 307 433 l 307 353 l 106 353 l 106 300 l 305 302 q 302 182 304 235 q 299 93 300 130 q 142 28 297 43 q 140 14 140 22 q 142 -4 140 5 q 366 0 256 0 q 644 -4 510 0 q 646 9 646 1 q 644 28 646 18 q 481 51 534 35 q 426 93 427 67 q 423 182 425 130 q 420 302 422 235 q 530 302 465 302 q 682 300 595 301 l 682 357 l 420 357 l 420 436 l 682 433 l 682 490 l 465 490 l 663 890 q 776 965 696 957 q 779 977 779 972 q 778 987 779 983 q 776 997 777 991 l 509 997 q 505 982 505 990 q 509 965 505 974 q 602 916 602 954 q 600 904 601 911 q 595 890 599 898 l 406 481 l 234 886 q 230 905 230 897 q 243 932 230 922 q 275 950 256 943 q 316 960 294 956 q 357 964 338 963 q 389 965 376 965 q 401 965 401 965 q 405 982 405 974 q 401 997 405 989 m -51 1019 l 431 1019 q 437 979 437 999 q 431 939 437 959 q 355 923 378 932 q 332 897 332 914 q 336 880 332 888 l 442 625 l 562 880 q 566 895 566 888 q 543 923 566 912 q 479 939 520 933 q 472 979 472 958 q 479 1019 472 1000 l 806 1019 q 811 983 811 1004 q 802 936 811 962 q 688 878 705 927 l 509 515 l 716 515 l 716 406 l 516 406 l 516 380 l 716 380 l 716 272 l 516 275 q 519 172 517 216 q 522 94 520 127 q 525 86 522 90 q 540 77 528 81 q 574 67 552 72 q 674 50 596 62 q 679 14 679 35 q 670 -33 679 -7 q 469 -29 545 -31 q 366 -28 393 -28 q 294 -29 355 -28 q 123 -33 233 -31 q 115 12 115 -10 q 123 54 115 34 q 271 94 271 70 q 277 275 276 200 l 79 272 l 79 386 l 279 386 l 279 408 l 79 408 l 79 519 l 242 519 q 113 811 136 764 q 75 885 90 859 q -51 939 42 939 q -57 979 -57 959 q -51 1019 -57 999 z "},"":{"ha":374,"x_min":97,"x_max":281,"o":"m 125 322 l 125 -323 l 204 -323 l 204 322 l 125 322 m 204 586 l 204 1232 l 125 1232 l 125 586 l 204 586 m 281 1260 l 281 558 l 97 558 l 97 1260 l 281 1260 m 97 -351 l 97 350 l 281 350 l 281 -351 l 97 -351 z "},"":{"ha":908,"x_min":97,"x_max":815,"o":"m 625 860 q 590 799 625 810 q 585 783 585 792 q 590 766 585 775 q 650 792 627 766 q 673 865 673 818 q 656 926 673 898 q 607 975 638 954 q 534 1007 576 996 q 440 1019 491 1019 q 346 1004 388 1019 q 273 962 303 989 q 227 898 243 935 q 211 817 211 861 q 281 650 211 728 q 211 602 240 626 q 162 551 182 578 q 134 495 143 525 q 125 429 125 465 q 245 221 125 319 l 437 61 q 488 15 467 37 q 524 -27 510 -6 q 546 -69 538 -47 q 553 -114 553 -90 q 539 -168 553 -144 q 506 -208 526 -192 q 460 -233 485 -224 q 412 -241 435 -241 q 348 -234 380 -241 q 291 -211 316 -227 q 250 -172 266 -195 q 235 -117 235 -149 q 269 -66 235 -78 q 274 -52 274 -61 q 269 -35 274 -43 q 186 -122 186 -35 q 203 -186 186 -156 q 250 -240 220 -217 q 322 -277 280 -263 q 412 -290 363 -290 q 497 -272 457 -290 q 567 -223 537 -254 q 615 -153 597 -193 q 632 -69 632 -113 q 566 93 632 23 q 625 135 596 111 q 676 188 654 159 q 712 252 699 218 q 725 323 725 286 q 716 375 725 349 q 694 426 707 401 q 664 471 680 450 q 633 505 648 491 q 555 569 617 519 q 383 707 493 619 q 292 864 292 779 q 303 905 292 886 q 336 940 315 925 q 383 963 356 954 q 440 971 410 971 q 576 941 528 971 q 625 860 625 911 m 440 1047 q 544 1031 496 1047 q 626 988 591 1015 q 681 925 661 961 q 701 851 701 890 q 591 745 701 745 q 553 752 571 745 q 523 772 536 760 q 503 803 510 785 q 496 840 496 821 q 525 914 496 885 q 465 942 501 935 q 430 936 446 942 q 404 918 415 929 q 388 893 393 907 q 382 864 382 879 q 463 729 382 792 q 620 603 562 650 q 696 540 678 555 q 744 492 722 517 q 782 440 766 467 q 806 385 798 414 q 815 323 815 355 q 803 254 815 288 q 770 189 791 220 q 724 133 750 159 q 669 86 698 106 q 722 -69 722 18 q 696 -164 722 -119 q 626 -243 669 -209 q 526 -298 582 -277 q 412 -318 471 -318 q 310 -302 357 -318 q 230 -260 263 -287 q 177 -197 196 -233 q 158 -122 158 -162 q 268 -16 158 -16 q 307 -23 289 -16 q 337 -43 324 -31 q 357 -73 350 -56 q 364 -111 364 -91 q 334 -186 364 -157 q 346 -195 338 -190 q 366 -203 355 -199 q 390 -210 377 -207 q 414 -212 402 -212 q 454 -205 434 -212 q 489 -186 473 -199 q 515 -155 505 -173 q 525 -114 525 -136 q 497 -41 525 -77 q 419 40 470 -5 l 228 200 q 97 429 97 310 q 240 657 97 561 q 183 817 183 737 q 201 910 183 867 q 252 983 219 952 q 333 1030 286 1013 q 440 1047 381 1047 m 319 615 q 583 392 561 412 q 625 338 606 371 q 644 273 644 306 q 533 131 644 189 l 313 321 q 260 368 278 350 q 223 419 241 386 q 204 486 204 453 q 319 615 204 561 m 339 562 q 294 486 294 525 q 312 431 294 460 q 346 385 329 401 q 393 342 363 368 q 494 254 431 310 q 575 183 558 197 q 616 273 616 225 q 598 328 616 300 q 560 375 579 357 q 339 562 541 393 z "},"":{"ha":835,"x_min":160,"x_max":676,"o":"m 208 900 q 187 842 187 877 q 193 809 187 824 q 210 782 199 793 q 233 765 220 771 q 261 758 247 758 q 289 765 275 758 q 313 782 302 771 q 329 809 323 793 q 335 842 335 824 q 329 874 335 859 q 313 901 323 890 q 289 919 302 912 q 261 925 275 925 q 233 919 247 925 q 208 900 220 913 m 461 900 q 440 842 440 877 q 446 809 440 825 q 462 783 452 794 q 485 765 472 772 q 514 758 498 758 q 542 765 529 758 q 566 783 555 772 q 582 809 576 794 q 587 842 587 825 q 582 873 587 859 q 566 900 576 888 q 542 918 555 911 q 514 925 529 925 q 461 900 484 925 m 524 953 q 676 842 676 953 q 524 730 676 730 q 458 751 488 730 q 418 804 429 771 q 271 730 397 730 q 228 739 248 730 q 193 763 208 748 q 169 799 178 779 q 160 842 160 819 q 169 884 160 864 q 193 920 178 905 q 228 944 208 935 q 271 953 248 953 q 418 878 397 953 q 458 932 429 911 q 524 953 488 953 z "},"":{"ha":1335,"x_min":56,"x_max":1283,"o":"m 885 349 l 863 370 q 668 283 770 283 q 516 345 571 283 q 461 539 461 407 q 644 808 461 808 q 847 628 771 808 l 868 635 q 640 846 832 846 q 433 760 513 846 q 353 534 353 673 q 358 477 353 509 q 380 400 363 446 q 427 320 397 355 q 511 260 456 285 q 639 235 567 235 q 761 262 693 235 q 885 349 828 289 m 150 536 q 298 890 150 747 q 646 1032 446 1032 q 888 968 775 1032 q 1072 789 1002 904 q 1141 536 1141 675 q 993 182 1141 325 q 646 39 844 39 q 298 181 446 39 q 150 536 150 323 m 83 536 q 248 138 83 302 q 646 -26 412 -26 q 1042 138 878 -26 q 1207 536 1207 302 q 1042 933 1207 768 q 646 1097 878 1097 q 248 933 412 1097 q 83 536 83 768 m 646 1125 q 962 1055 818 1125 q 1195 849 1107 985 q 1283 536 1283 713 q 1103 117 1283 288 q 646 -54 922 -54 q 229 119 401 -54 q 56 536 56 292 q 229 953 56 781 q 646 1125 401 1125 m 227 536 q 357 209 227 342 q 669 66 488 77 q 982 210 850 77 q 1114 536 1114 343 q 982 860 1114 726 q 669 1003 850 993 q 357 861 488 993 q 227 536 227 729 m 904 612 l 831 596 q 668 778 758 761 q 551 539 551 757 q 693 313 551 329 q 863 408 771 322 l 929 349 q 781 240 859 273 q 644 207 704 207 q 504 235 566 207 q 410 301 441 262 q 357 388 378 339 q 331 471 336 436 q 325 534 325 505 q 412 780 325 686 q 640 873 500 873 q 733 867 693 873 q 875 835 774 860 q 869 787 869 802 q 904 612 869 720 z "},"":{"ha":628,"x_min":39,"x_max":631,"o":"m 349 753 l 349 635 q 237 562 293 562 q 196 578 212 562 q 180 624 180 595 q 215 701 180 671 q 349 753 249 730 m 87 879 q 107 828 87 846 q 153 810 127 810 q 200 828 183 810 q 216 871 216 847 q 161 930 216 924 q 193 966 167 951 q 256 981 218 981 q 323 952 297 981 q 349 867 349 924 l 349 789 q 124 708 182 746 q 66 597 66 669 q 92 525 66 558 q 184 492 118 492 q 349 582 258 492 q 416 500 357 500 q 440 503 429 500 q 463 514 452 505 q 481 528 473 522 q 500 548 489 534 q 516 569 511 562 q 533 594 521 575 q 549 616 546 612 q 521 635 541 632 q 473 590 489 590 q 450 621 450 590 l 450 856 q 412 983 450 946 q 279 1021 374 1021 q 149 984 210 1021 q 87 879 87 947 m 60 879 q 129 1000 60 951 q 328 1048 199 1048 q 482 1005 437 1048 q 526 856 526 961 l 526 660 l 557 664 q 631 614 610 657 q 571 536 590 558 q 512 493 553 514 q 416 472 471 472 q 349 503 374 472 q 184 464 293 464 q 71 506 103 464 q 39 597 39 549 q 96 723 39 681 q 321 810 153 765 l 321 867 q 275 950 321 936 q 257 945 261 947 q 293 871 293 925 q 260 808 293 833 q 153 782 228 782 q 88 808 117 782 q 60 879 60 833 m 321 643 l 321 701 q 257 624 257 676 q 267 597 257 606 q 321 643 293 610 z "},"":{"ha":828,"x_min":85,"x_max":745,"o":"m 659 61 l 515 288 l 659 514 l 619 545 l 380 288 l 619 29 l 659 61 m 401 61 l 257 288 l 401 514 l 363 545 l 123 288 l 363 29 l 401 61 m 597 288 l 745 54 l 664 -8 l 615 -8 l 342 288 l 615 582 l 664 582 l 745 519 l 597 288 m 339 288 l 488 54 l 407 -8 l 358 -8 l 85 288 l 358 582 l 407 582 l 488 519 l 339 288 z "},"":{"ha":1160,"x_min":97,"x_max":1067,"o":"m 125 357 l 125 281 l 913 281 l 913 117 l 990 117 l 990 357 l 125 357 m 97 253 l 97 385 l 1067 385 l 1067 89 l 885 89 l 885 253 l 97 253 z "},"":{"ha":707,"x_min":97,"x_max":614,"o":"m 125 364 l 125 279 l 538 279 l 538 364 l 125 364 m 97 252 l 97 392 l 614 392 l 614 252 l 97 252 z "},"":{"ha":1335,"x_min":56,"x_max":1283,"o":"m 646 1125 q 808 1107 728 1125 q 958 1055 888 1089 q 1088 970 1029 1021 q 1192 854 1148 920 q 1259 709 1235 789 q 1283 536 1283 629 q 1103 117 1283 288 q 646 -54 922 -54 q 229 119 401 -54 q 56 536 56 292 q 229 953 56 781 q 646 1125 402 1125 m 325 245 q 338 288 325 270 q 419 298 419 294 l 419 300 q 425 435 422 372 q 427 555 427 498 q 425 650 427 595 q 421 778 424 705 q 391 786 412 783 q 339 793 370 790 q 326 827 326 818 q 227 536 227 701 q 325 245 227 370 m 737 677 q 710 570 737 615 q 621 525 682 525 q 539 533 572 525 q 543 811 539 686 q 618 812 559 812 q 707 775 676 812 q 737 677 737 737 m 447 298 q 355 261 447 268 q 354 239 349 252 q 650 239 469 244 q 650 261 656 252 q 543 298 547 268 q 539 498 539 400 q 628 492 581 492 q 802 239 711 342 l 966 239 q 965 261 971 250 q 903 282 935 264 q 846 324 871 301 q 793 384 822 347 q 750 445 765 421 q 713 505 734 469 q 808 573 772 526 q 843 677 843 619 q 793 797 843 751 q 656 842 743 842 q 571 840 619 842 q 504 839 524 839 q 358 842 447 839 l 354 832 q 357 819 354 825 q 449 782 444 812 q 454 555 454 632 q 447 298 454 441 m 150 536 q 298 890 150 747 q 646 1032 446 1032 q 888 968 775 1032 q 1072 789 1002 904 q 1141 536 1141 675 q 993 182 1141 325 q 646 39 844 39 q 298 181 446 39 q 150 536 150 323 m 83 536 q 248 138 83 302 q 646 -26 412 -26 q 1042 138 878 -26 q 1207 536 1207 302 q 1042 933 1207 768 q 646 1097 878 1097 q 248 933 412 1097 q 83 536 83 768 m 1114 536 q 982 860 1114 726 q 669 1003 850 993 q 364 868 492 994 q 665 869 460 867 q 866 817 799 869 q 933 677 933 765 q 901 569 933 619 q 815 492 869 519 q 943 337 896 380 q 1043 288 990 293 q 1114 536 1114 400 m 669 66 q 982 210 854 78 q 790 211 914 214 q 629 435 705 304 q 633 300 629 370 l 633 301 q 717 288 636 294 q 728 249 728 273 q 715 211 728 224 q 353 214 424 215 q 669 66 484 78 m 710 677 q 690 749 710 721 q 632 783 669 778 q 629 555 629 647 q 690 592 671 554 q 710 677 710 629 z "},"":{"ha":822,"x_min":146,"x_max":681,"o":"m 604 872 l 174 872 l 174 789 l 604 789 l 604 872 m 146 900 l 681 900 l 681 761 l 146 761 l 146 900 z "},"":{"ha":608,"x_min":97,"x_max":515,"o":"m 183 868 q 210 935 183 903 q 282 966 236 966 q 353 936 326 966 q 380 868 380 905 q 351 800 380 829 q 282 770 321 770 q 212 800 240 770 q 183 868 183 831 m 125 868 q 172 758 125 803 q 282 713 218 713 q 392 758 346 713 q 439 868 439 803 q 392 978 439 932 q 282 1025 346 1025 q 172 978 218 1025 q 125 868 125 932 m 282 1053 q 456 1009 397 1053 q 515 868 515 965 q 453 737 515 789 q 282 685 390 685 q 152 738 207 685 q 97 868 97 791 q 152 999 97 945 q 282 1053 207 1053 m 260 868 q 272 828 260 847 q 306 802 285 808 q 339 827 325 808 q 353 868 353 846 q 339 908 353 889 q 306 935 326 926 q 272 907 285 926 q 260 868 260 888 z "},"":{"ha":1065,"x_min":97,"x_max":972,"o":"m 125 82 l 896 82 l 896 160 l 125 160 l 125 82 m 471 222 l 550 222 l 550 498 l 896 498 l 896 576 l 550 576 l 550 854 l 471 854 l 471 576 l 125 576 l 125 498 l 471 498 l 471 222 m 627 195 l 443 195 l 443 471 l 97 471 l 97 604 l 443 604 l 443 882 l 627 882 l 627 604 l 972 604 l 972 471 l 627 471 l 627 195 m 972 54 l 97 54 l 97 187 l 972 187 l 972 54 z "},"":{"ha":558,"x_min":22,"x_max":519,"o":"m 241 681 l 53 532 q 69 492 57 504 l 412 492 q 435 570 415 503 q 463 671 454 637 q 447 672 458 672 q 325 593 393 593 l 214 593 l 214 603 l 336 697 q 384 737 366 720 q 419 790 401 754 q 437 865 437 825 q 390 979 437 937 q 258 1021 342 1021 q 131 983 176 1021 q 85 869 85 945 q 163 745 85 787 q 182 762 171 747 q 171 774 178 765 q 156 807 164 783 q 147 859 147 831 q 176 933 147 905 q 244 961 205 961 q 309 935 279 961 q 338 846 338 908 q 241 681 338 746 m 519 865 q 435 701 519 781 q 498 676 471 700 l 441 464 l 60 464 q 22 543 32 488 l 227 704 q 311 846 311 765 q 260 930 311 918 q 221 910 229 926 q 214 859 214 895 q 223 813 214 835 q 243 782 233 791 l 253 772 q 199 717 243 721 l 158 717 q 147 722 154 718 q 122 738 140 725 q 91 765 104 750 q 67 808 78 781 q 56 869 56 836 q 110 1003 56 958 q 258 1048 164 1048 q 453 1000 387 1048 q 519 865 519 951 m 329 621 q 427 693 383 625 q 382 663 408 677 l 315 621 l 329 621 z "},"":{"ha":558,"x_min":31,"x_max":521,"o":"m 126 618 q 115 646 126 635 q 93 640 103 646 q 74 626 82 635 q 62 606 66 617 q 58 582 58 594 q 67 548 58 564 q 95 519 76 532 q 145 499 115 507 q 220 492 176 492 q 294 505 257 492 q 359 541 330 517 q 407 598 389 565 q 425 671 425 631 q 418 716 425 696 q 397 751 410 736 q 365 775 383 766 q 325 790 347 785 l 325 791 q 403 901 403 818 q 392 951 403 929 q 362 988 381 972 q 318 1011 343 1003 q 264 1019 292 1019 q 133 986 175 1019 q 92 897 92 953 q 125 825 92 857 q 154 842 146 826 q 149 888 149 860 q 167 936 149 916 q 227 956 186 956 q 258 950 243 956 q 283 936 273 945 q 299 914 293 926 q 304 888 304 902 q 227 785 304 810 l 170 766 l 187 729 q 241 741 214 741 q 326 661 326 741 q 294 565 326 598 q 208 532 261 532 q 131 547 159 532 q 104 593 104 562 q 110 609 104 600 q 126 618 116 618 m 178 823 q 114 794 158 802 q 64 897 64 857 q 288 1046 64 1046 q 435 1010 372 1046 q 498 901 498 975 q 446 794 498 833 q 521 671 521 755 q 437 521 521 578 q 240 464 353 464 q 78 502 125 464 q 31 582 31 539 q 54 646 31 618 q 115 673 77 673 q 211 593 211 673 q 195 553 211 570 q 269 583 239 553 q 298 661 298 614 q 267 708 298 699 q 222 693 248 704 l 174 693 l 132 783 l 210 808 q 277 888 277 831 q 262 919 277 907 q 228 935 248 932 q 178 823 161 920 z "},"":{"ha":1010,"x_min":306,"x_max":701,"o":"m 504 964 l 340 760 l 359 734 l 600 888 q 625 937 625 903 q 609 980 625 964 q 567 996 593 996 q 504 964 529 996 m 306 761 l 482 981 q 567 1023 517 1023 l 615 1023 q 678 1000 654 1023 q 701 937 701 977 q 667 867 701 889 l 400 697 l 351 697 l 306 761 z "},"":{"ha":917,"x_min":24,"x_max":899,"o":"m 811 39 q 811 71 818 56 q 680 98 720 75 q 685 568 680 541 q 688 581 686 574 q 671 602 680 596 l 452 602 q 452 570 448 581 q 553 504 551 554 l 558 144 q 403 65 469 65 q 326 107 362 65 q 290 215 290 149 q 297 581 292 505 q 278 602 293 597 l 58 602 q 58 570 56 581 q 161 504 159 554 l 168 161 q 142 -103 167 28 q 117 -278 117 -235 q 141 -357 117 -330 q 197 -383 165 -383 q 252 -357 228 -383 q 276 -272 276 -332 q 251 -126 276 -233 q 222 81 225 -20 l 231 81 q 282 3 248 24 q 370 -17 315 -17 q 472 9 431 -17 q 558 93 513 36 l 558 1 q 582 -17 564 -9 q 811 39 680 26 m 631 -47 q 534 -16 559 -49 q 370 -45 486 -45 q 310 -39 333 -45 q 333 -145 313 -65 q 353 -272 353 -225 q 197 -411 353 -411 q 121 -378 154 -411 q 89 -278 89 -345 q 116 -75 89 -204 q 140 161 143 54 l 132 504 q 36 545 132 529 q 39 629 24 590 l 330 629 q 374 585 363 623 q 367 215 368 463 q 386 139 367 170 q 432 97 406 109 q 530 157 472 107 l 525 503 q 429 545 524 529 q 432 629 416 590 l 726 629 q 751 611 745 621 q 764 578 757 602 q 757 115 757 539 q 883 94 795 102 q 883 11 899 56 q 631 -47 740 0 z "},"":{"ha":975,"x_min":69,"x_max":868,"o":"m 371 603 l 371 -310 l 447 -310 l 447 970 l 615 970 l 615 -310 l 690 -310 l 690 970 l 791 970 l 791 1019 l 347 1019 q 97 812 97 1019 q 117 719 97 758 q 166 657 138 679 q 234 623 195 636 q 305 606 273 610 q 371 603 336 603 m 343 -338 l 343 575 q 272 582 306 576 q 200 604 239 587 q 134 645 161 621 q 88 713 107 669 q 69 812 69 757 q 347 1047 69 1047 l 868 1047 l 868 942 l 781 942 l 781 -338 l 587 -338 l 587 942 l 538 942 l 538 -338 l 343 -338 z "},"":{"ha":464,"x_min":97,"x_max":361,"o":"m 146 568 q 125 509 125 545 q 131 477 125 492 q 146 451 136 463 q 170 433 156 440 q 199 427 183 427 q 228 433 214 427 q 251 451 241 440 q 266 477 260 463 q 272 509 272 492 q 266 542 272 527 q 250 569 260 557 q 226 586 239 580 q 199 593 213 593 q 171 587 184 593 q 146 568 157 581 m 208 621 q 361 509 361 621 q 208 399 361 399 q 165 408 186 399 q 130 431 145 416 q 106 466 115 446 q 97 509 97 486 q 106 553 97 532 q 130 588 115 573 q 165 612 145 603 q 208 621 186 621 z "},"":{"ha":787,"x_min":195,"x_max":590,"o":"m 363 0 l 318 0 l 279 -127 q 345 -118 314 -118 q 410 -174 410 -118 q 390 -219 410 -201 q 336 -237 370 -237 q 248 -205 278 -237 l 229 -227 q 359 -290 271 -290 q 459 -255 424 -290 q 494 -171 494 -220 q 469 -99 494 -123 q 400 -74 443 -74 q 338 -77 353 -74 l 363 0 m 297 28 l 468 28 l 443 -46 q 551 -78 513 -46 q 590 -171 590 -110 q 542 -274 590 -231 q 408 -318 493 -318 q 275 -296 323 -318 q 195 -225 227 -273 l 239 -168 l 297 28 m 382 -174 q 364 -149 382 -155 q 296 -165 340 -153 q 358 -205 326 -199 q 382 -174 382 -197 z "},"":{"ha":558,"x_min":85,"x_max":505,"o":"m 219 553 q 216 538 219 545 q 206 527 214 532 q 193 519 199 522 q 171 513 187 517 q 141 509 154 510 q 126 507 127 507 q 126 478 119 492 l 458 478 q 461 492 461 482 q 458 507 461 501 q 408 513 454 507 q 348 527 362 518 q 331 541 334 535 q 328 553 328 546 q 329 922 319 715 q 332 934 329 929 q 349 947 334 939 q 397 961 363 956 q 444 966 432 965 q 460 968 455 968 q 463 983 463 974 q 460 997 463 993 l 127 997 q 127 968 121 983 q 150 965 129 968 q 185 958 171 963 q 208 948 200 953 q 218 937 215 943 q 220 922 220 930 q 219 553 224 770 m 406 903 l 406 574 q 421 545 406 551 q 483 536 437 539 q 481 456 504 492 l 106 456 q 105 534 85 492 q 177 545 161 539 q 193 572 193 551 q 194 903 194 631 q 178 930 194 924 q 106 940 162 936 q 108 1019 86 983 l 483 1019 q 484 939 505 983 q 423 930 439 936 q 406 903 407 924 z "},"":{"ha":628,"x_min":22,"x_max":610,"o":"m 292 982 q 384 927 350 982 q 418 755 418 872 q 384 584 418 639 q 292 529 350 529 q 201 585 235 529 q 167 755 167 640 q 201 926 167 871 q 292 982 235 982 m 115 566 q 292 492 180 492 q 392 511 347 492 q 468 566 437 531 q 516 649 500 601 q 533 755 533 698 q 516 862 533 813 q 468 945 499 910 q 391 1000 436 981 q 292 1019 347 1019 q 192 1000 237 1019 q 116 945 147 981 q 67 862 84 910 q 50 755 50 813 q 115 566 50 639 m 315 464 q 192 485 246 464 q 99 545 137 506 q 42 637 62 583 q 22 755 22 690 q 42 873 22 819 q 100 965 62 926 q 193 1024 138 1003 q 317 1046 248 1046 q 438 1025 384 1046 q 531 966 492 1004 q 589 875 569 928 q 610 755 610 821 q 590 637 610 690 q 533 545 571 583 q 441 485 496 506 q 315 464 387 464 m 243 755 q 315 561 243 585 q 390 755 390 585 q 315 950 390 924 q 243 755 243 924 z "},"":{"ha":829,"x_min":87,"x_max":747,"o":"m 382 514 l 526 288 l 382 61 l 422 29 l 660 288 l 422 545 l 382 514 m 125 514 l 269 288 l 125 61 l 164 29 l 403 288 l 164 545 l 125 514 m 493 288 l 345 521 l 427 582 l 475 582 l 747 288 l 475 -8 l 427 -8 l 345 56 l 493 288 m 236 288 l 87 521 l 168 582 l 216 582 l 490 288 l 216 -8 l 168 -8 l 87 56 l 236 288 z "},"":{"ha":1156,"x_min":89,"x_max":1126,"o":"m 313 -75 l 375 -92 l 878 1044 l 812 1061 l 313 -75 m 390 -123 l 275 -93 l 798 1093 l 846 1093 l 964 1063 l 439 -123 l 390 -123 m 867 193 l 727 193 l 867 344 l 867 193 m 642 161 l 642 132 l 867 132 l 867 -5 l 975 -5 l 975 132 l 1049 132 l 1049 193 l 975 193 l 975 495 l 931 495 l 642 161 m 614 104 l 614 170 l 919 523 l 1050 523 l 1050 220 l 1126 220 l 1126 104 l 1050 104 l 1050 -33 l 840 -33 l 840 104 l 614 104 m 223 553 q 220 538 223 545 q 210 527 218 532 q 197 519 203 522 q 175 513 191 517 q 145 509 158 510 q 130 507 132 507 q 130 478 123 492 l 463 478 q 465 492 465 482 q 463 507 465 501 q 412 513 458 507 q 352 527 366 518 q 335 541 338 535 q 332 553 332 546 q 333 922 323 715 q 336 934 333 929 q 353 947 338 939 q 401 961 367 956 q 448 966 436 965 q 464 968 459 968 q 467 983 467 974 q 464 997 467 993 l 132 997 q 132 968 125 983 q 154 965 133 968 q 190 958 175 963 q 212 948 204 953 q 222 937 219 943 q 224 922 224 930 q 223 553 229 770 m 410 903 l 410 574 q 426 545 410 551 q 487 536 441 539 q 486 456 508 492 l 111 456 q 109 534 89 492 q 181 545 165 539 q 197 572 197 551 q 198 903 198 631 q 182 930 198 924 q 111 940 166 936 q 112 1019 90 983 l 487 1019 q 488 939 509 983 q 427 930 443 936 q 410 903 411 924 z "},"":{"ha":1156,"x_min":89,"x_max":1179,"o":"m 223 553 q 220 538 223 545 q 210 527 218 532 q 197 519 203 522 q 175 513 191 517 q 145 509 158 510 q 130 507 132 507 q 130 478 123 492 l 463 478 q 465 492 465 482 q 463 507 465 501 q 412 513 458 507 q 352 527 366 518 q 335 541 338 535 q 332 553 332 546 q 333 922 323 715 q 336 934 333 929 q 353 947 338 939 q 401 961 367 956 q 448 966 436 965 q 464 968 459 968 q 467 983 467 974 q 464 997 467 993 l 132 997 q 132 968 125 983 q 154 965 133 968 q 190 958 175 963 q 212 948 204 953 q 222 937 219 943 q 224 922 224 930 q 223 553 229 770 m 410 903 l 410 574 q 426 545 410 551 q 487 536 441 539 q 486 456 508 492 l 111 456 q 109 534 89 492 q 181 545 165 539 q 197 572 197 551 q 198 903 198 631 q 182 930 198 924 q 111 940 166 936 q 112 1019 90 983 l 487 1019 q 488 939 509 983 q 427 930 443 936 q 410 903 411 924 m 901 216 l 713 67 q 729 27 717 39 l 1072 27 q 1095 105 1075 38 q 1122 206 1114 173 q 1107 208 1118 208 q 985 128 1053 128 l 873 128 l 873 138 l 996 233 q 1043 272 1025 255 q 1079 325 1061 290 q 1097 401 1097 361 q 1049 514 1097 473 q 918 556 1002 556 q 790 518 836 556 q 745 405 745 480 q 823 280 745 323 q 842 298 831 283 q 831 310 838 300 q 815 342 824 319 q 807 394 807 366 q 836 469 807 441 q 904 496 865 496 q 968 470 939 496 q 998 381 998 444 q 901 216 998 281 m 1179 401 q 1095 237 1179 316 q 1158 212 1131 235 l 1101 -1 l 720 -1 q 682 79 692 23 l 886 239 q 971 381 971 300 q 920 466 971 454 q 881 446 889 462 q 873 394 873 430 q 883 349 873 370 q 903 317 893 327 l 913 308 q 859 252 903 256 l 818 252 q 807 257 814 254 q 782 273 800 260 q 751 301 764 286 q 727 344 738 316 q 715 405 715 372 q 770 539 715 494 q 918 584 824 584 q 1113 535 1047 584 q 1179 401 1179 487 m 989 156 q 1086 229 1043 161 q 1042 198 1068 213 l 975 156 l 989 156 m 314 -75 l 376 -92 l 879 1044 l 814 1061 l 314 -75 m 391 -123 l 277 -93 l 799 1093 l 847 1093 l 965 1063 l 440 -123 l 391 -123 z "},"":{"ha":1156,"x_min":46,"x_max":1099,"o":"m 142 618 q 131 646 142 635 q 108 640 119 646 q 90 626 98 635 q 78 606 82 617 q 74 582 74 594 q 83 548 74 564 q 111 519 92 532 q 161 499 130 507 q 235 492 191 492 q 309 505 273 492 q 375 541 346 517 q 422 598 404 565 q 441 671 441 631 q 433 716 441 696 q 412 751 426 736 q 380 775 399 766 q 340 790 362 785 l 340 791 q 418 901 418 818 q 408 951 418 929 q 378 988 397 972 q 333 1011 359 1003 q 279 1019 308 1019 q 149 986 191 1019 q 107 897 107 953 q 140 825 107 857 q 170 842 161 826 q 164 888 164 860 q 183 936 164 916 q 242 956 201 956 q 274 950 259 956 q 298 936 288 945 q 314 914 309 926 q 320 888 320 902 q 242 785 320 810 l 185 766 l 203 729 q 257 741 229 741 q 342 661 342 741 q 309 565 342 598 q 224 532 277 532 q 147 547 174 532 q 119 593 119 562 q 125 609 119 600 q 142 618 132 618 m 193 823 q 130 794 174 802 q 79 897 79 857 q 303 1046 79 1046 q 451 1010 388 1046 q 514 901 514 975 q 461 794 514 833 q 536 671 536 755 q 452 521 536 578 q 256 464 368 464 q 93 502 140 464 q 46 582 46 539 q 69 646 46 618 q 131 673 92 673 q 227 593 227 673 q 210 553 227 570 q 284 583 254 553 q 314 661 314 614 q 282 708 314 699 q 238 693 263 704 l 189 693 l 148 783 l 225 808 q 292 888 292 831 q 278 919 292 907 q 243 935 263 932 q 193 823 177 920 m 286 -75 l 349 -92 l 851 1044 l 786 1061 l 286 -75 m 363 -123 l 249 -93 l 771 1093 l 819 1093 l 937 1063 l 412 -123 l 363 -123 m 841 193 l 701 193 l 841 344 l 841 193 m 616 161 l 616 132 l 841 132 l 841 -5 l 948 -5 l 948 132 l 1023 132 l 1023 193 l 948 193 l 948 495 l 905 495 l 616 161 m 588 104 l 588 170 l 892 523 l 1024 523 l 1024 220 l 1099 220 l 1099 104 l 1024 104 l 1024 -33 l 813 -33 l 813 104 l 588 104 z "},"":{"ha":771,"x_min":56,"x_max":685,"o":"m 435 825 q 392 834 412 825 q 356 858 372 843 q 332 893 341 873 q 323 936 323 913 q 332 979 323 959 q 356 1014 341 999 q 392 1038 372 1029 q 435 1047 412 1047 q 587 936 587 1047 q 435 825 587 825 m 372 994 q 351 936 351 971 q 357 904 351 919 q 373 877 363 888 q 396 859 383 866 q 425 852 410 852 q 453 859 440 852 q 477 877 467 866 q 493 904 487 888 q 498 936 498 919 q 493 969 498 954 q 477 995 487 984 q 453 1013 467 1006 q 425 1019 440 1019 q 372 994 395 1019 m 574 273 q 655 245 625 273 q 685 163 685 216 q 606 18 685 83 q 383 -47 526 -47 q 149 19 243 -47 q 56 204 56 85 q 72 308 56 261 q 123 392 87 354 q 182 451 158 431 q 253 504 205 471 q 343 595 309 546 q 378 689 378 644 l 378 791 l 534 791 l 534 668 q 510 526 534 578 q 419 412 486 473 q 371 365 390 386 q 334 295 353 343 q 315 189 315 248 q 339 103 315 140 q 415 60 363 65 q 505 94 485 65 q 469 171 469 119 q 498 243 469 214 q 574 273 528 273 m 399 31 q 262 78 304 31 q 220 189 220 125 q 242 308 220 256 q 297 394 265 359 q 361 464 329 429 q 416 550 393 498 q 439 668 439 602 l 439 764 l 406 764 l 406 689 q 368 581 406 636 q 269 482 330 526 q 203 432 225 450 q 147 378 180 414 q 99 299 114 342 q 83 204 83 257 q 174 39 83 98 q 397 -20 264 -20 q 573 33 501 -20 q 644 158 644 85 q 620 221 644 199 q 561 243 596 243 q 561 211 551 225 q 596 164 596 201 q 545 67 596 104 q 399 31 494 31 z "},"":{"ha":1192,"x_min":7,"x_max":1182,"o":"m 1144 28 q 1070 34 1106 30 q 1006 44 1035 37 q 957 62 977 51 q 930 90 937 73 l 555 1017 q 533 1007 544 1016 q 481 872 528 923 l 497 832 l 211 113 q 44 28 184 45 q 40 11 40 18 q 44 -5 40 3 q 169 -1 121 -3 q 233 0 216 0 q 304 -1 249 0 q 454 -5 359 -3 q 458 11 458 3 q 454 28 458 18 q 363 40 398 33 q 308 54 328 46 q 281 70 288 61 q 275 91 275 79 q 277 106 275 98 l 376 354 q 498 356 452 355 q 562 357 545 357 q 631 356 601 357 q 683 355 661 356 l 781 106 q 785 90 785 96 q 766 58 785 72 q 720 38 747 43 l 647 28 q 643 11 643 18 q 647 -5 643 3 q 764 -2 705 -3 q 886 -1 823 -1 q 1012 -2 948 -1 q 1144 -5 1076 -3 q 1149 11 1149 4 q 1147 19 1149 15 q 1144 28 1146 23 m 562 410 q 400 412 464 410 l 529 745 l 532 745 l 661 411 q 562 410 625 410 m 530 673 l 440 439 q 621 437 522 435 l 530 673 m 1165 53 q 1164 -33 1182 12 l 626 -33 q 626 53 610 14 q 730 68 700 57 q 751 104 761 79 l 663 329 q 394 326 537 334 l 307 102 q 313 81 302 90 q 347 66 323 72 q 403 58 371 61 q 475 53 435 54 q 473 -33 492 12 q 25 -33 251 -25 q 24 53 7 12 q 182 114 163 69 l 468 833 q 457 858 465 839 q 448 884 450 878 q 507 1022 501 937 q 647 1055 566 1051 l 1027 111 q 1068 69 1040 79 q 1165 53 1096 58 m 660 1157 l 496 1361 q 433 1393 471 1393 q 391 1377 407 1393 q 375 1335 375 1361 q 400 1285 375 1300 l 640 1132 l 660 1157 m 566 1379 l 743 1158 l 697 1095 l 649 1095 l 382 1264 q 347 1335 347 1286 q 371 1397 347 1374 q 433 1421 395 1421 q 566 1379 532 1421 z "},"":{"ha":1192,"x_min":7,"x_max":1182,"o":"m 1144 28 q 1070 34 1106 30 q 1006 44 1035 37 q 957 62 977 51 q 930 90 937 73 l 555 1017 q 533 1007 544 1016 q 481 872 528 923 l 497 832 l 211 113 q 44 28 184 45 q 40 11 40 18 q 44 -5 40 3 q 169 -1 121 -3 q 233 0 216 0 q 304 -1 249 0 q 454 -5 359 -3 q 458 11 458 3 q 454 28 458 18 q 363 40 398 33 q 308 54 328 46 q 281 70 288 61 q 275 91 275 79 q 277 106 275 98 l 376 354 q 498 356 452 355 q 562 357 545 357 q 631 356 601 357 q 683 355 661 356 l 781 106 q 785 90 785 96 q 766 58 785 72 q 720 38 747 43 l 647 28 q 643 11 643 18 q 647 -5 643 3 q 764 -2 705 -3 q 886 -1 823 -1 q 1012 -2 948 -1 q 1144 -5 1076 -3 q 1149 11 1149 4 q 1147 19 1149 15 q 1144 28 1146 23 m 562 410 q 400 412 464 410 l 529 745 l 532 745 l 661 411 q 562 410 625 410 m 530 673 l 440 439 q 621 437 522 435 l 530 673 m 1165 53 q 1164 -33 1182 12 l 626 -33 q 626 53 610 14 q 730 68 700 57 q 751 104 761 79 l 663 329 q 394 326 537 334 l 307 102 q 313 81 302 90 q 347 66 323 72 q 403 58 371 61 q 475 53 435 54 q 473 -33 492 12 q 25 -33 251 -25 q 24 53 7 12 q 182 114 163 69 l 468 833 q 457 858 465 839 q 448 884 450 878 q 507 1022 501 937 q 647 1055 566 1051 l 1027 111 q 1068 69 1040 79 q 1165 53 1096 58 m 650 1361 l 486 1157 l 505 1132 l 746 1285 q 771 1335 771 1300 q 755 1377 771 1361 q 713 1393 739 1393 q 650 1361 675 1393 m 452 1158 l 628 1378 q 713 1421 663 1421 l 761 1421 q 824 1397 800 1421 q 847 1335 847 1374 q 812 1264 847 1286 l 546 1095 l 497 1095 l 452 1158 z "},"":{"ha":1192,"x_min":7,"x_max":1182,"o":"m 1144 28 q 1070 34 1106 30 q 1006 44 1035 37 q 957 62 977 51 q 930 90 937 73 l 555 1017 q 533 1007 544 1016 q 481 872 528 923 l 497 832 l 211 113 q 44 28 184 45 q 40 11 40 18 q 44 -5 40 3 q 169 -1 121 -3 q 233 0 216 0 q 304 -1 249 0 q 454 -5 359 -3 q 458 11 458 3 q 454 28 458 18 q 363 40 398 33 q 308 54 328 46 q 281 70 288 61 q 275 91 275 79 q 277 106 275 98 l 376 354 q 498 356 452 355 q 562 357 545 357 q 631 356 601 357 q 683 355 661 356 l 781 106 q 785 90 785 96 q 766 58 785 72 q 720 38 747 43 l 647 28 q 643 11 643 18 q 647 -5 643 3 q 764 -2 705 -3 q 886 -1 823 -1 q 1012 -2 948 -1 q 1144 -5 1076 -3 q 1149 11 1149 4 q 1147 19 1149 15 q 1144 28 1146 23 m 562 410 q 400 412 464 410 l 529 745 l 532 745 l 661 411 q 562 410 625 410 m 530 673 l 440 439 q 621 437 522 435 l 530 673 m 1165 53 q 1164 -33 1182 12 l 626 -33 q 626 53 610 14 q 730 68 700 57 q 751 104 761 79 l 663 329 q 394 326 537 334 l 307 102 q 313 81 302 90 q 347 66 323 72 q 403 58 371 61 q 475 53 435 54 q 473 -33 492 12 q 25 -33 251 -25 q 24 53 7 12 q 182 114 163 69 l 468 833 q 457 858 465 839 q 448 884 450 878 q 507 1022 501 937 q 647 1055 566 1051 l 1027 111 q 1068 69 1040 79 q 1165 53 1096 58 m 424 1121 l 587 1242 l 751 1121 l 802 1121 l 628 1346 l 547 1346 l 374 1121 l 424 1121 m 742 1093 l 611 1189 l 482 1093 l 318 1093 l 534 1374 l 690 1374 l 905 1093 l 742 1093 z "},"":{"ha":1192,"x_min":7,"x_max":1182,"o":"m 1144 28 q 1070 34 1106 30 q 1006 44 1035 37 q 957 62 977 51 q 930 90 937 73 l 555 1017 q 533 1007 544 1016 q 481 872 528 923 l 497 832 l 211 113 q 44 28 184 45 q 40 11 40 18 q 44 -5 40 3 q 169 -1 121 -3 q 233 0 216 0 q 304 -1 249 0 q 454 -5 359 -3 q 458 11 458 3 q 454 28 458 18 q 363 40 398 33 q 308 54 328 46 q 281 70 288 61 q 275 91 275 79 q 277 106 275 98 l 376 354 q 498 356 452 355 q 562 357 545 357 q 631 356 601 357 q 683 355 661 356 l 781 106 q 785 90 785 96 q 766 58 785 72 q 720 38 747 43 l 647 28 q 643 11 643 18 q 647 -5 643 3 q 764 -2 705 -3 q 886 -1 823 -1 q 1012 -2 948 -1 q 1144 -5 1076 -3 q 1149 11 1149 4 q 1147 19 1149 15 q 1144 28 1146 23 m 562 410 q 400 412 464 410 l 529 745 l 532 745 l 661 411 q 562 410 625 410 m 530 673 l 440 439 q 621 437 522 435 l 530 673 m 1165 53 q 1164 -33 1182 12 l 626 -33 q 626 53 610 14 q 730 68 700 57 q 751 104 761 79 l 663 329 q 394 326 537 334 l 307 102 q 313 81 302 90 q 347 66 323 72 q 403 58 371 61 q 475 53 435 54 q 473 -33 492 12 q 25 -33 251 -25 q 24 53 7 12 q 182 114 163 69 l 468 833 q 457 858 465 839 q 448 884 450 878 q 507 1022 501 937 q 647 1055 566 1051 l 1027 111 q 1068 69 1040 79 q 1165 53 1096 58 m 814 1307 l 772 1307 q 703 1257 757 1257 q 610 1278 682 1257 q 507 1299 538 1299 q 361 1162 415 1299 l 398 1162 q 475 1204 430 1204 q 567 1183 505 1204 q 662 1162 629 1162 q 814 1307 770 1162 m 751 1335 l 900 1335 q 711 1135 839 1135 q 501 1171 643 1135 q 460 1135 483 1162 l 319 1135 q 507 1326 397 1326 q 719 1289 570 1326 q 751 1335 740 1300 z "},"":{"ha":1192,"x_min":7,"x_max":1182,"o":"m 1144 28 q 1070 34 1106 30 q 1006 44 1035 37 q 957 62 977 51 q 930 90 937 73 l 555 1017 q 533 1007 544 1016 q 481 872 528 923 l 497 832 l 211 113 q 44 28 184 45 q 40 11 40 18 q 44 -5 40 3 q 169 -1 121 -3 q 233 0 216 0 q 304 -1 249 0 q 454 -5 359 -3 q 458 11 458 3 q 454 28 458 18 q 363 40 398 33 q 308 54 328 46 q 281 70 288 61 q 275 91 275 79 q 277 106 275 98 l 376 354 q 498 356 452 355 q 562 357 545 357 q 631 356 601 357 q 683 355 661 356 l 781 106 q 785 90 785 96 q 766 58 785 72 q 720 38 747 43 l 647 28 q 643 11 643 18 q 647 -5 643 3 q 764 -2 705 -3 q 886 -1 823 -1 q 1012 -2 948 -1 q 1144 -5 1076 -3 q 1149 11 1149 4 q 1147 19 1149 15 q 1144 28 1146 23 m 562 410 q 400 412 464 410 l 529 745 l 532 745 l 661 411 q 562 410 625 410 m 530 673 l 440 439 q 621 437 522 435 l 530 673 m 1165 53 q 1164 -33 1182 12 l 626 -33 q 626 53 610 14 q 730 68 700 57 q 751 104 761 79 l 663 329 q 394 326 537 334 l 307 102 q 313 81 302 90 q 347 66 323 72 q 403 58 371 61 q 475 53 435 54 q 473 -33 492 12 q 25 -33 251 -25 q 24 53 7 12 q 182 114 163 69 l 468 833 q 457 858 465 839 q 448 884 450 878 q 507 1022 501 937 q 647 1055 566 1051 l 1027 111 q 1068 69 1040 79 q 1165 53 1096 58 m 386 1297 q 365 1239 365 1274 q 371 1206 365 1221 q 387 1180 377 1191 q 411 1162 397 1168 q 439 1156 425 1156 q 467 1162 453 1156 q 490 1180 480 1168 q 507 1206 500 1191 q 513 1239 513 1221 q 507 1272 513 1257 q 490 1298 500 1287 q 467 1316 480 1310 q 439 1322 453 1322 q 411 1316 425 1322 q 386 1297 397 1310 m 639 1297 q 618 1239 618 1274 q 624 1207 618 1222 q 640 1180 629 1192 q 663 1162 650 1169 q 692 1156 676 1156 q 720 1162 707 1156 q 743 1180 733 1169 q 759 1207 753 1192 q 765 1239 765 1222 q 759 1271 765 1256 q 743 1297 753 1286 q 720 1316 733 1309 q 692 1322 707 1322 q 639 1297 661 1322 m 701 1350 q 854 1239 854 1350 q 701 1128 854 1128 q 636 1148 665 1128 q 595 1202 607 1168 q 448 1128 575 1128 q 405 1137 425 1128 q 370 1161 385 1145 q 347 1196 355 1176 q 338 1239 338 1217 q 347 1282 338 1261 q 370 1317 355 1302 q 405 1341 385 1333 q 448 1350 425 1350 q 595 1275 575 1350 q 636 1329 607 1308 q 701 1350 665 1350 z "},"":{"ha":1192,"x_min":7,"x_max":1182,"o":"m 1144 28 q 1070 34 1106 30 q 1006 44 1035 37 q 957 62 977 51 q 930 90 937 73 l 555 1017 q 533 1007 544 1016 q 481 872 528 923 l 497 832 l 211 113 q 44 28 184 45 q 40 11 40 18 q 44 -5 40 3 q 169 -1 121 -3 q 233 0 216 0 q 304 -1 249 0 q 454 -5 359 -3 q 458 11 458 3 q 454 28 458 18 q 363 40 398 33 q 308 54 328 46 q 281 70 288 61 q 275 91 275 79 q 277 106 275 98 l 376 354 q 498 356 452 355 q 562 357 545 357 q 631 356 601 357 q 683 355 661 356 l 781 106 q 785 90 785 96 q 766 58 785 72 q 720 38 747 43 l 647 28 q 643 11 643 18 q 647 -5 643 3 q 764 -2 705 -3 q 886 -1 823 -1 q 1012 -2 948 -1 q 1144 -5 1076 -3 q 1149 11 1149 4 q 1147 19 1149 15 q 1144 28 1146 23 m 562 410 q 400 412 464 410 l 529 745 l 532 745 l 661 411 q 562 410 625 410 m 530 673 l 440 439 q 621 437 522 435 l 530 673 m 1165 53 q 1164 -33 1182 12 l 626 -33 q 626 53 610 14 q 730 68 700 57 q 751 104 761 79 l 663 329 q 394 326 537 334 l 307 102 q 313 81 302 90 q 347 66 323 72 q 403 58 371 61 q 475 53 435 54 q 473 -33 492 12 q 25 -33 251 -25 q 24 53 7 12 q 182 114 163 69 l 468 833 q 457 858 465 839 q 448 884 450 878 q 507 1022 501 937 q 647 1055 566 1051 l 1027 111 q 1068 69 1040 79 q 1165 53 1096 58 m 435 1253 q 445 1198 435 1223 q 474 1154 456 1173 q 517 1125 492 1135 q 572 1114 543 1114 q 627 1124 602 1114 q 671 1153 652 1135 q 701 1197 690 1171 q 711 1253 711 1223 q 700 1311 711 1285 q 668 1354 688 1336 q 623 1381 648 1371 q 572 1390 598 1390 q 523 1381 547 1390 q 479 1354 498 1372 q 447 1311 459 1337 q 435 1253 435 1286 m 490 1252 q 497 1284 490 1269 q 515 1311 504 1299 q 541 1328 526 1322 q 572 1335 556 1335 q 605 1328 589 1335 q 631 1309 620 1320 q 649 1282 642 1297 q 656 1251 656 1267 q 649 1221 656 1236 q 631 1195 642 1206 q 604 1177 619 1183 q 572 1170 589 1170 q 542 1177 557 1170 q 516 1195 528 1183 q 497 1221 505 1206 q 490 1252 490 1236 m 407 1253 q 421 1322 407 1292 q 459 1374 436 1353 q 513 1407 483 1396 q 572 1418 543 1418 l 621 1418 q 682 1407 652 1418 q 735 1374 712 1395 q 773 1322 759 1352 q 787 1253 787 1291 q 775 1187 787 1217 q 741 1134 763 1156 q 688 1099 719 1112 q 621 1086 658 1086 l 572 1086 q 506 1099 536 1086 q 453 1134 475 1112 q 419 1187 431 1156 q 407 1253 407 1217 m 567 1252 q 597 1203 567 1219 q 628 1251 628 1219 q 596 1300 628 1284 q 567 1252 567 1287 z "},"":{"ha":1630,"x_min":-14,"x_max":1620,"o":"m 710 449 l 494 449 l 292 103 q 293 76 283 83 q 313 66 303 68 q 354 60 323 64 q 409 56 385 57 q 409 -33 424 12 q 9 -33 210 -25 q 7 54 -14 11 q 163 111 138 69 l 645 928 q 552 939 628 930 q 555 1026 539 986 q 831 1019 763 1019 l 1487 1019 q 1592 739 1503 886 q 1520 686 1577 707 q 1356 855 1464 787 q 1076 922 1248 922 l 964 922 q 958 549 958 679 q 1081 547 1000 547 q 1172 586 1138 547 q 1246 705 1206 624 l 1276 762 q 1348 710 1333 742 q 1296 596 1317 657 q 1276 497 1276 534 q 1348 285 1276 407 q 1278 232 1331 250 q 1242 296 1253 273 q 1199 365 1215 342 q 1151 410 1183 387 q 1080 435 1118 433 l 958 435 q 963 69 958 285 l 1103 69 q 1384 137 1276 69 q 1548 306 1492 204 q 1620 253 1605 285 q 1514 -28 1531 106 l 952 -28 q 553 -32 684 -28 q 552 54 539 12 q 702 94 701 69 q 710 449 709 272 m 728 905 l 731 905 q 738 518 738 746 l 503 518 l 728 905 m 478 476 l 738 476 q 730 93 738 285 q 572 28 728 43 q 572 -4 570 4 q 888 0 703 0 l 1181 0 q 1432 57 1348 0 q 1584 253 1516 114 q 1560 271 1578 264 q 1105 41 1436 41 l 860 41 q 853 475 853 338 l 1074 476 q 1129 467 1103 476 q 1170 447 1155 457 q 1205 410 1185 437 q 1234 369 1225 382 q 1262 317 1242 357 q 1289 267 1282 278 q 1316 285 1310 275 q 1248 497 1248 400 q 1267 600 1248 539 q 1316 710 1286 660 q 1289 728 1310 720 q 1268 687 1284 718 q 1247 647 1252 656 q 1228 613 1242 637 q 1205 581 1213 589 q 1180 556 1196 572 q 1150 535 1164 541 q 1116 524 1135 529 q 1074 519 1097 519 q 853 522 928 519 q 861 950 853 686 l 1077 950 q 1533 721 1409 950 q 1556 739 1550 728 q 1404 935 1488 878 q 1154 991 1320 991 l 812 991 q 574 997 727 991 l 574 965 q 686 945 648 960 l 186 97 q 28 28 153 43 q 26 11 26 20 q 28 -5 26 3 q 388 -5 220 5 q 391 11 391 5 q 388 28 391 17 q 308 37 326 33 q 280 44 290 40 q 260 56 270 48 q 250 75 251 64 q 258 98 250 85 l 478 476 m 710 549 l 709 817 l 551 547 l 710 549 z "},"":{"ha":1125,"x_min":77,"x_max":1059,"o":"m 629 -215 q 611 -191 629 -197 q 543 -207 587 -195 q 606 -248 574 -240 q 629 -215 629 -239 m 585 -118 l 614 -28 q 829 19 721 -28 q 1000 158 937 66 q 992 173 1000 167 q 975 179 985 179 q 676 56 873 56 q 362 181 468 56 q 256 494 256 307 q 274 658 256 579 q 333 809 293 737 q 446 926 372 882 q 618 971 519 971 q 742 950 685 971 q 836 901 799 929 q 907 824 872 872 q 960 742 942 777 q 1003 653 978 707 q 1028 668 1023 656 q 877 944 978 869 q 618 1019 775 1019 q 488 1004 554 1019 q 351 950 421 989 q 227 853 281 911 q 139 703 174 796 q 104 494 104 610 q 134 299 104 387 q 211 154 164 211 q 321 57 258 97 q 446 -2 385 17 q 571 -26 507 -21 l 526 -170 q 591 -160 561 -160 q 657 -215 657 -160 q 637 -261 657 -243 q 583 -279 616 -279 q 494 -248 525 -279 l 476 -268 q 607 -332 518 -332 q 706 -296 671 -332 q 742 -212 742 -261 q 716 -140 742 -165 q 647 -115 690 -115 q 585 -118 600 -115 m 441 -267 l 486 -210 l 533 -49 q 374 -1 450 -36 q 229 94 298 33 q 118 259 160 155 q 77 494 77 363 q 114 720 77 621 q 210 879 151 819 q 346 978 268 939 q 497 1033 424 1018 q 646 1047 571 1047 q 867 1020 747 1047 q 1038 986 986 993 q 1020 832 1015 899 q 1059 671 1025 766 q 986 623 1039 631 q 932 730 957 688 q 867 825 908 772 q 770 907 827 878 q 644 942 714 936 q 509 893 567 936 q 420 783 452 850 q 374 643 389 715 q 359 494 359 571 q 446 208 359 323 q 703 83 532 92 q 962 207 868 92 q 1008 190 989 207 q 1028 149 1028 172 q 885 19 972 69 q 703 -47 798 -31 l 690 -87 q 799 -119 760 -87 q 838 -212 838 -151 q 789 -316 838 -272 q 656 -359 741 -359 q 522 -337 571 -359 q 441 -267 473 -315 z "},"":{"ha":1162,"x_min":35,"x_max":1115,"o":"m 648 991 l 307 991 q 69 997 222 991 l 69 965 q 227 900 225 950 q 233 521 233 741 q 225 93 233 306 q 68 28 224 43 q 68 -4 65 4 q 676 0 199 0 q 927 57 843 0 q 1079 253 1011 114 q 1055 271 1074 264 q 600 41 932 41 l 355 41 q 349 475 349 338 l 570 476 q 624 467 599 476 q 665 447 650 457 q 701 410 680 437 q 729 369 721 382 q 758 317 737 357 q 785 267 778 278 q 811 285 806 275 q 743 497 743 400 q 763 600 743 539 q 811 710 782 660 q 785 728 806 720 q 763 687 779 718 q 742 647 747 656 q 723 613 737 637 q 700 581 708 589 q 676 556 692 572 q 645 535 660 541 q 611 524 631 529 q 570 519 591 519 q 349 522 424 519 q 357 950 349 686 l 572 950 q 1027 721 904 950 q 1051 739 1046 728 q 899 935 983 878 q 648 991 815 991 m 742 705 l 771 762 q 843 710 828 742 q 792 596 812 657 q 771 497 771 534 q 843 285 771 407 q 774 232 827 250 q 737 296 749 273 q 693 365 709 342 q 646 410 677 387 q 575 435 614 433 l 453 435 q 458 69 453 285 l 599 69 q 879 137 771 69 q 1043 306 987 204 q 1115 253 1100 285 q 1010 -28 1026 106 l 447 -28 q 49 -32 179 -28 q 47 54 35 12 q 197 94 196 69 q 205 521 205 307 q 199 899 205 739 q 47 939 197 924 q 50 1026 35 986 q 326 1019 258 1019 l 982 1019 q 1088 739 998 886 q 1015 686 1072 707 q 851 855 960 787 q 571 922 743 922 l 460 922 q 453 549 453 679 q 576 547 496 547 q 667 586 633 547 q 742 705 701 624 m 660 1157 l 496 1361 q 433 1393 471 1393 q 391 1377 407 1393 q 375 1335 375 1361 q 400 1285 375 1300 l 640 1132 l 660 1157 m 566 1379 l 743 1158 l 697 1095 l 649 1095 l 382 1264 q 347 1335 347 1286 q 371 1397 347 1374 q 433 1421 395 1421 q 566 1379 532 1421 z "},"":{"ha":1162,"x_min":35,"x_max":1115,"o":"m 648 991 l 307 991 q 69 997 222 991 l 69 965 q 227 900 225 950 q 233 521 233 741 q 225 93 233 306 q 68 28 224 43 q 68 -4 65 4 q 676 0 199 0 q 927 57 843 0 q 1079 253 1011 114 q 1055 271 1074 264 q 600 41 932 41 l 355 41 q 349 475 349 338 l 570 476 q 624 467 599 476 q 665 447 650 457 q 701 410 680 437 q 729 369 721 382 q 758 317 737 357 q 785 267 778 278 q 811 285 806 275 q 743 497 743 400 q 763 600 743 539 q 811 710 782 660 q 785 728 806 720 q 763 687 779 718 q 742 647 747 656 q 723 613 737 637 q 700 581 708 589 q 676 556 692 572 q 645 535 660 541 q 611 524 631 529 q 570 519 591 519 q 349 522 424 519 q 357 950 349 686 l 572 950 q 1027 721 904 950 q 1051 739 1046 728 q 899 935 983 878 q 648 991 815 991 m 742 705 l 771 762 q 843 710 828 742 q 792 596 812 657 q 771 497 771 534 q 843 285 771 407 q 774 232 827 250 q 737 296 749 273 q 693 365 709 342 q 646 410 677 387 q 575 435 614 433 l 453 435 q 458 69 453 285 l 599 69 q 879 137 771 69 q 1043 306 987 204 q 1115 253 1100 285 q 1010 -28 1026 106 l 447 -28 q 49 -32 179 -28 q 47 54 35 12 q 197 94 196 69 q 205 521 205 307 q 199 899 205 739 q 47 939 197 924 q 50 1026 35 986 q 326 1019 258 1019 l 982 1019 q 1088 739 998 886 q 1015 686 1072 707 q 851 855 960 787 q 571 922 743 922 l 460 922 q 453 549 453 679 q 576 547 496 547 q 667 586 633 547 q 742 705 701 624 m 650 1361 l 486 1157 l 505 1132 l 746 1285 q 771 1335 771 1300 q 755 1377 771 1361 q 713 1393 739 1393 q 650 1361 675 1393 m 452 1158 l 628 1378 q 713 1421 663 1421 l 761 1421 q 824 1397 800 1421 q 847 1335 847 1374 q 812 1264 847 1286 l 546 1095 l 497 1095 l 452 1158 z "},"":{"ha":1162,"x_min":35,"x_max":1115,"o":"m 648 991 l 307 991 q 69 997 222 991 l 69 965 q 227 900 225 950 q 233 521 233 741 q 225 93 233 306 q 68 28 224 43 q 68 -4 65 4 q 676 0 199 0 q 927 57 843 0 q 1079 253 1011 114 q 1055 271 1074 264 q 600 41 932 41 l 355 41 q 349 475 349 338 l 570 476 q 624 467 599 476 q 665 447 650 457 q 701 410 680 437 q 729 369 721 382 q 758 317 737 357 q 785 267 778 278 q 811 285 806 275 q 743 497 743 400 q 763 600 743 539 q 811 710 782 660 q 785 728 806 720 q 763 687 779 718 q 742 647 747 656 q 723 613 737 637 q 700 581 708 589 q 676 556 692 572 q 645 535 660 541 q 611 524 631 529 q 570 519 591 519 q 349 522 424 519 q 357 950 349 686 l 572 950 q 1027 721 904 950 q 1051 739 1046 728 q 899 935 983 878 q 648 991 815 991 m 742 705 l 771 762 q 843 710 828 742 q 792 596 812 657 q 771 497 771 534 q 843 285 771 407 q 774 232 827 250 q 737 296 749 273 q 693 365 709 342 q 646 410 677 387 q 575 435 614 433 l 453 435 q 458 69 453 285 l 599 69 q 879 137 771 69 q 1043 306 987 204 q 1115 253 1100 285 q 1010 -28 1026 106 l 447 -28 q 49 -32 179 -28 q 47 54 35 12 q 197 94 196 69 q 205 521 205 307 q 199 899 205 739 q 47 939 197 924 q 50 1026 35 986 q 326 1019 258 1019 l 982 1019 q 1088 739 998 886 q 1015 686 1072 707 q 851 855 960 787 q 571 922 743 922 l 460 922 q 453 549 453 679 q 576 547 496 547 q 667 586 633 547 q 742 705 701 624 m 408 1121 l 572 1242 l 736 1121 l 786 1121 l 612 1346 l 532 1346 l 358 1121 l 408 1121 m 726 1093 l 595 1189 l 467 1093 l 302 1093 l 518 1374 l 675 1374 l 890 1093 l 726 1093 z "},"":{"ha":1162,"x_min":35,"x_max":1115,"o":"m 648 991 l 307 991 q 69 997 222 991 l 69 965 q 227 900 225 950 q 233 521 233 741 q 225 93 233 306 q 68 28 224 43 q 68 -4 65 4 q 676 0 199 0 q 927 57 843 0 q 1079 253 1011 114 q 1055 271 1074 264 q 600 41 932 41 l 355 41 q 349 475 349 338 l 570 476 q 624 467 599 476 q 665 447 650 457 q 701 410 680 437 q 729 369 721 382 q 758 317 737 357 q 785 267 778 278 q 811 285 806 275 q 743 497 743 400 q 763 600 743 539 q 811 710 782 660 q 785 728 806 720 q 763 687 779 718 q 742 647 747 656 q 723 613 737 637 q 700 581 708 589 q 676 556 692 572 q 645 535 660 541 q 611 524 631 529 q 570 519 591 519 q 349 522 424 519 q 357 950 349 686 l 572 950 q 1027 721 904 950 q 1051 739 1046 728 q 899 935 983 878 q 648 991 815 991 m 742 705 l 771 762 q 843 710 828 742 q 792 596 812 657 q 771 497 771 534 q 843 285 771 407 q 774 232 827 250 q 737 296 749 273 q 693 365 709 342 q 646 410 677 387 q 575 435 614 433 l 453 435 q 458 69 453 285 l 599 69 q 879 137 771 69 q 1043 306 987 204 q 1115 253 1100 285 q 1010 -28 1026 106 l 447 -28 q 49 -32 179 -28 q 47 54 35 12 q 197 94 196 69 q 205 521 205 307 q 199 899 205 739 q 47 939 197 924 q 50 1026 35 986 q 326 1019 258 1019 l 982 1019 q 1088 739 998 886 q 1015 686 1072 707 q 851 855 960 787 q 571 922 743 922 l 460 922 q 453 549 453 679 q 576 547 496 547 q 667 586 633 547 q 742 705 701 624 m 372 1297 q 351 1239 351 1274 q 357 1206 351 1221 q 374 1180 363 1191 q 397 1162 384 1168 q 425 1156 411 1156 q 453 1162 439 1156 q 477 1180 467 1168 q 493 1206 487 1191 q 499 1239 499 1221 q 493 1272 499 1257 q 477 1298 487 1287 q 453 1316 467 1310 q 425 1322 439 1322 q 397 1316 411 1322 q 372 1297 384 1310 m 625 1297 q 604 1239 604 1274 q 610 1207 604 1222 q 626 1180 616 1192 q 649 1162 636 1169 q 678 1156 663 1156 q 706 1162 693 1156 q 730 1180 720 1169 q 746 1207 740 1192 q 751 1239 751 1222 q 746 1271 751 1256 q 730 1297 740 1286 q 706 1316 720 1309 q 678 1322 693 1322 q 625 1297 648 1322 m 688 1350 q 840 1239 840 1350 q 688 1128 840 1128 q 623 1148 652 1128 q 582 1202 593 1168 q 435 1128 562 1128 q 392 1137 412 1128 q 357 1161 372 1145 q 333 1196 342 1176 q 324 1239 324 1217 q 333 1282 324 1261 q 357 1317 342 1302 q 392 1341 372 1333 q 435 1350 412 1350 q 582 1275 562 1350 q 623 1329 593 1308 q 688 1350 652 1350 z "},"":{"ha":648,"x_min":35,"x_max":627,"o":"m 358 93 q 353 521 353 376 q 359 900 353 688 q 586 965 361 951 q 586 997 590 978 q 309 991 408 991 q 72 997 225 991 q 72 965 66 985 q 229 900 228 950 q 236 521 236 741 q 228 93 236 306 q 71 28 227 43 q 71 -4 65 17 q 307 0 186 0 q 585 -4 452 0 q 585 28 590 7 q 358 93 359 41 m 50 939 q 53 1026 39 983 q 215 1023 113 1026 q 357 1019 317 1019 q 469 1021 386 1019 q 614 1022 553 1022 q 615 939 627 983 q 464 899 465 924 q 456 471 456 729 q 463 94 456 221 q 466 86 463 90 q 476 79 469 82 q 489 74 482 77 q 508 68 496 71 q 528 63 519 65 q 550 59 536 61 q 572 56 564 57 q 595 53 581 54 q 615 50 610 52 q 611 -33 627 12 q 307 -28 361 -28 q 52 -33 271 -28 q 52 54 35 14 q 200 94 199 69 q 208 521 208 264 q 201 899 208 739 q 50 939 200 924 m 404 1157 l 239 1361 q 177 1393 215 1393 q 135 1377 151 1393 q 119 1335 119 1361 q 144 1285 119 1300 l 384 1132 l 404 1157 m 309 1379 l 487 1158 l 441 1095 l 393 1095 l 125 1264 q 91 1335 91 1286 q 115 1397 91 1374 q 177 1421 138 1421 q 309 1379 276 1421 z "},"":{"ha":648,"x_min":35,"x_max":627,"o":"m 358 93 q 353 521 353 376 q 359 900 353 688 q 586 965 361 951 q 586 997 590 978 q 309 991 408 991 q 72 997 225 991 q 72 965 66 985 q 229 900 228 950 q 236 521 236 741 q 228 93 236 306 q 71 28 227 43 q 71 -4 65 17 q 307 0 186 0 q 585 -4 452 0 q 585 28 590 7 q 358 93 359 41 m 50 939 q 53 1026 39 983 q 215 1023 113 1026 q 357 1019 317 1019 q 469 1021 386 1019 q 614 1022 553 1022 q 615 939 627 983 q 464 899 465 924 q 456 471 456 729 q 463 94 456 221 q 466 86 463 90 q 476 79 469 82 q 489 74 482 77 q 508 68 496 71 q 528 63 519 65 q 550 59 536 61 q 572 56 564 57 q 595 53 581 54 q 615 50 610 52 q 611 -33 627 12 q 307 -28 361 -28 q 52 -33 271 -28 q 52 54 35 14 q 200 94 199 69 q 208 521 208 264 q 201 899 208 739 q 50 939 200 924 m 366 1361 l 202 1157 l 221 1132 l 462 1285 q 487 1335 487 1300 q 471 1377 487 1361 q 429 1393 454 1393 q 366 1361 391 1393 m 168 1158 l 344 1378 q 429 1421 378 1421 l 477 1421 q 539 1397 516 1421 q 563 1335 563 1374 q 528 1264 563 1286 l 262 1095 l 213 1095 l 168 1158 z "},"":{"ha":648,"x_min":34,"x_max":627,"o":"m 358 93 q 353 521 353 376 q 359 900 353 688 q 586 965 361 951 q 586 997 590 978 q 309 991 408 991 q 72 997 225 991 q 72 965 66 985 q 229 900 228 950 q 236 521 236 741 q 228 93 236 306 q 71 28 227 43 q 71 -4 65 17 q 307 0 186 0 q 585 -4 452 0 q 585 28 590 7 q 358 93 359 41 m 50 939 q 53 1026 39 983 q 215 1023 113 1026 q 357 1019 317 1019 q 469 1021 386 1019 q 614 1022 553 1022 q 615 939 627 983 q 464 899 465 924 q 456 471 456 729 q 463 94 456 221 q 466 86 463 90 q 476 79 469 82 q 489 74 482 77 q 508 68 496 71 q 528 63 519 65 q 550 59 536 61 q 572 56 564 57 q 595 53 581 54 q 615 50 610 52 q 611 -33 627 12 q 307 -28 361 -28 q 52 -33 271 -28 q 52 54 35 14 q 200 94 199 69 q 208 521 208 264 q 201 899 208 739 q 50 939 200 924 m 140 1121 l 303 1242 l 467 1121 l 517 1121 l 344 1346 l 263 1346 l 90 1121 l 140 1121 m 458 1093 l 327 1189 l 198 1093 l 34 1093 l 250 1374 l 406 1374 l 621 1093 l 458 1093 z "},"":{"ha":648,"x_min":35,"x_max":627,"o":"m 358 93 q 353 521 353 376 q 359 900 353 688 q 586 965 361 951 q 586 997 590 978 q 309 991 408 991 q 72 997 225 991 q 72 965 66 985 q 229 900 228 950 q 236 521 236 741 q 228 93 236 306 q 71 28 227 43 q 71 -4 65 17 q 307 0 186 0 q 585 -4 452 0 q 585 28 590 7 q 358 93 359 41 m 50 939 q 53 1026 39 983 q 215 1023 113 1026 q 357 1019 317 1019 q 469 1021 386 1019 q 614 1022 553 1022 q 615 939 627 983 q 464 899 465 924 q 456 471 456 729 q 463 94 456 221 q 466 86 463 90 q 476 79 469 82 q 489 74 482 77 q 508 68 496 71 q 528 63 519 65 q 550 59 536 61 q 572 56 564 57 q 595 53 581 54 q 615 50 610 52 q 611 -33 627 12 q 307 -28 361 -28 q 52 -33 271 -28 q 52 54 35 14 q 200 94 199 69 q 208 521 208 264 q 201 899 208 739 q 50 939 200 924 m 116 1297 q 95 1239 95 1274 q 101 1206 95 1221 q 117 1180 107 1191 q 141 1162 127 1168 q 169 1156 155 1156 q 197 1162 183 1156 q 220 1180 210 1168 q 237 1206 231 1191 q 243 1239 243 1221 q 237 1272 243 1257 q 220 1298 231 1287 q 197 1316 210 1310 q 169 1322 183 1322 q 141 1316 155 1322 q 116 1297 127 1310 m 369 1297 q 348 1239 348 1274 q 354 1207 348 1222 q 370 1180 359 1192 q 393 1162 380 1169 q 422 1156 406 1156 q 450 1162 437 1156 q 473 1180 463 1169 q 489 1207 484 1192 q 495 1239 495 1222 q 489 1271 495 1256 q 473 1297 484 1286 q 450 1316 463 1309 q 422 1322 437 1322 q 369 1297 391 1322 m 431 1350 q 584 1239 584 1350 q 431 1128 584 1128 q 366 1148 395 1128 q 326 1202 337 1168 q 178 1128 305 1128 q 135 1137 155 1128 q 100 1161 115 1145 q 77 1196 85 1176 q 68 1239 68 1217 q 77 1282 68 1261 q 100 1317 85 1302 q 135 1341 115 1333 q 178 1350 155 1350 q 326 1275 305 1350 q 366 1329 337 1308 q 431 1350 395 1350 z "},"":{"ha":1239,"x_min":35,"x_max":1172,"o":"m 456 547 q 685 554 514 547 l 685 432 q 456 436 521 432 q 461 77 456 283 q 782 197 675 82 q 889 501 889 311 q 871 643 889 575 q 815 774 854 710 q 702 877 777 838 q 528 920 628 917 q 464 916 494 920 q 456 547 457 713 m 236 519 q 75 525 127 522 l 75 460 q 236 463 180 463 q 228 93 236 306 q 71 28 227 43 q 71 -4 64 12 q 457 0 216 0 q 624 13 543 0 q 787 62 704 26 q 930 151 869 97 q 1029 296 990 205 q 1068 501 1068 386 q 524 997 1068 997 q 381 995 473 997 q 214 993 289 993 q 72 997 139 993 q 72 965 66 985 q 229 900 228 950 q 236 519 236 741 m 351 519 q 359 940 351 722 q 515 949 433 949 q 677 920 606 949 q 793 847 749 892 q 866 743 838 803 q 906 623 895 682 q 917 501 917 564 q 802 172 917 296 q 469 49 686 49 q 358 50 396 49 q 351 464 351 332 q 650 460 383 464 l 650 525 q 351 519 532 519 m 208 549 q 201 899 208 750 q 50 939 200 924 q 53 1026 39 982 q 572 1025 136 1025 q 746 1013 667 1025 q 907 967 825 1002 q 1045 876 989 932 q 1137 724 1101 819 q 1172 500 1172 628 q 1131 283 1172 378 q 1022 132 1089 189 q 865 37 956 74 q 688 -14 775 0 q 505 -28 600 -28 q 52 -33 278 -28 q 52 54 35 14 q 200 94 199 69 q 208 433 208 319 l 47 431 l 47 554 l 208 549 z "},"":{"ha":1227,"x_min":28,"x_max":1153,"o":"m 878 433 l 878 522 q 871 890 878 679 q 722 939 869 926 q 713 982 713 962 q 722 1023 713 994 q 929 1019 825 1019 q 1143 1023 1034 1019 q 1153 982 1153 994 q 1143 939 1153 962 q 1002 890 1003 925 q 993 472 993 747 q 1002 -31 993 161 l 946 -32 l 302 755 q 302 711 302 743 q 301 661 301 679 q 310 103 301 334 q 458 54 311 66 q 468 11 468 31 q 458 -33 468 -4 q 252 -29 354 -29 q 37 -33 147 -29 q 28 11 28 -4 q 37 54 28 31 q 179 103 178 68 q 187 521 187 245 q 182 897 187 732 q 47 939 138 932 q 37 981 37 957 q 50 1026 37 1006 q 408 1019 192 1019 l 878 433 m 965 472 q 974 890 965 677 q 1124 965 977 951 q 1124 997 1129 977 q 942 993 996 993 q 749 997 857 993 q 749 965 743 977 q 899 890 897 951 q 905 522 905 679 q 903 275 905 431 l 318 991 q 65 997 165 991 q 65 965 60 981 q 210 909 153 960 q 215 521 215 745 q 207 103 215 315 q 57 28 204 41 q 57 -4 52 17 q 239 0 184 0 q 432 -4 323 0 q 432 28 437 17 q 282 103 283 41 q 275 471 275 314 q 279 825 275 650 l 286 825 l 960 -4 l 972 -3 q 965 472 965 157 m 819 1307 l 777 1307 q 707 1257 762 1257 q 615 1278 686 1257 q 511 1299 543 1299 q 366 1162 420 1299 l 403 1162 q 479 1204 435 1204 q 572 1183 510 1204 q 667 1162 633 1162 q 819 1307 775 1162 m 755 1335 l 905 1335 q 715 1135 844 1135 q 506 1171 648 1135 q 465 1135 488 1162 l 324 1135 q 511 1326 401 1326 q 724 1289 575 1326 q 755 1335 745 1300 z "},"":{"ha":1280,"x_min":77,"x_max":1208,"o":"m 642 942 q 548 917 589 938 q 475 862 507 896 q 422 786 444 829 q 386 694 400 743 q 366 595 372 646 q 359 494 359 544 q 366 394 359 445 q 387 294 372 342 q 423 203 401 246 q 476 128 445 161 q 549 75 508 95 q 642 50 590 54 q 736 75 694 54 q 809 129 777 96 q 862 204 840 161 q 898 295 884 248 q 919 394 912 343 q 925 494 925 446 q 919 595 925 544 q 898 695 912 646 q 862 786 884 743 q 809 863 840 829 q 735 917 777 896 q 642 942 694 938 m 618 21 q 498 41 551 21 q 405 95 445 61 q 336 176 364 130 q 290 274 308 222 q 264 384 272 327 q 256 494 256 440 q 264 605 256 549 q 290 715 272 662 q 336 814 307 768 q 404 896 364 861 q 497 951 444 930 q 618 971 551 971 q 728 951 680 971 q 814 896 777 931 q 878 814 851 861 q 921 715 904 768 q 945 605 937 662 q 953 494 953 549 q 945 384 953 440 q 921 276 938 328 q 879 177 905 223 q 815 96 852 130 q 729 41 778 61 q 618 21 680 21 m 618 -28 q 719 -18 665 -28 q 827 14 773 -9 q 931 76 881 37 q 1020 173 981 115 q 1081 310 1058 231 q 1104 494 1104 390 q 1081 676 1104 597 q 1021 813 1059 755 q 933 911 983 871 q 829 974 884 950 q 721 1009 775 998 q 618 1019 666 1019 q 515 1010 571 1019 q 401 978 458 1001 q 291 917 345 956 q 196 820 237 878 q 130 681 155 762 q 104 494 104 601 q 129 313 104 391 q 193 176 153 234 q 285 79 233 118 q 395 16 338 40 q 509 -18 452 -7 q 618 -28 567 -28 m 642 -58 q 400 -19 505 -58 q 223 93 295 21 q 114 268 151 165 q 77 494 77 370 q 114 721 77 619 q 223 896 151 823 q 400 1007 295 968 q 642 1047 505 1047 q 874 1010 770 1047 q 1054 904 979 974 q 1168 730 1128 833 q 1208 494 1208 627 q 1168 258 1208 361 q 1054 85 1128 155 q 874 -22 979 14 q 642 -58 770 -58 m 732 1157 l 568 1361 q 505 1393 543 1393 q 463 1377 479 1393 q 447 1335 447 1361 q 472 1285 447 1300 l 712 1132 l 732 1157 m 637 1379 l 815 1158 l 769 1095 l 721 1095 l 454 1264 q 419 1335 419 1286 q 443 1397 419 1374 q 505 1421 467 1421 q 637 1379 604 1421 z "},"":{"ha":1280,"x_min":77,"x_max":1208,"o":"m 642 942 q 548 917 589 938 q 475 862 507 896 q 422 786 444 829 q 386 694 400 743 q 366 595 372 646 q 359 494 359 544 q 366 394 359 445 q 387 294 372 342 q 423 203 401 246 q 476 128 445 161 q 549 75 508 95 q 642 50 590 54 q 736 75 694 54 q 809 129 777 96 q 862 204 840 161 q 898 295 884 248 q 919 394 912 343 q 925 494 925 446 q 919 595 925 544 q 898 695 912 646 q 862 786 884 743 q 809 863 840 829 q 735 917 777 896 q 642 942 694 938 m 618 21 q 498 41 551 21 q 405 95 445 61 q 336 176 364 130 q 290 274 308 222 q 264 384 272 327 q 256 494 256 440 q 264 605 256 549 q 290 715 272 662 q 336 814 307 768 q 404 896 364 861 q 497 951 444 930 q 618 971 551 971 q 728 951 680 971 q 814 896 777 931 q 878 814 851 861 q 921 715 904 768 q 945 605 937 662 q 953 494 953 549 q 945 384 953 440 q 921 276 938 328 q 879 177 905 223 q 815 96 852 130 q 729 41 778 61 q 618 21 680 21 m 618 -28 q 719 -18 665 -28 q 827 14 773 -9 q 931 76 881 37 q 1020 173 981 115 q 1081 310 1058 231 q 1104 494 1104 390 q 1081 676 1104 597 q 1021 813 1059 755 q 933 911 983 871 q 829 974 884 950 q 721 1009 775 998 q 618 1019 666 1019 q 515 1010 571 1019 q 401 978 458 1001 q 291 917 345 956 q 196 820 237 878 q 130 681 155 762 q 104 494 104 601 q 129 313 104 391 q 193 176 153 234 q 285 79 233 118 q 395 16 338 40 q 509 -18 452 -7 q 618 -28 567 -28 m 642 -58 q 400 -19 505 -58 q 223 93 295 21 q 114 268 151 165 q 77 494 77 370 q 114 721 77 619 q 223 896 151 823 q 400 1007 295 968 q 642 1047 505 1047 q 874 1010 770 1047 q 1054 904 979 974 q 1168 730 1128 833 q 1208 494 1208 627 q 1168 258 1208 361 q 1054 85 1128 155 q 874 -22 979 14 q 642 -58 770 -58 m 680 1361 l 517 1157 l 536 1132 l 777 1285 q 802 1335 802 1300 q 785 1377 802 1361 q 743 1393 769 1393 q 680 1361 705 1393 m 482 1158 l 659 1378 q 743 1421 693 1421 l 791 1421 q 854 1397 831 1421 q 878 1335 878 1374 q 843 1264 878 1286 l 576 1095 l 528 1095 l 482 1158 z "},"":{"ha":1280,"x_min":77,"x_max":1208,"o":"m 642 942 q 548 917 589 938 q 475 862 507 896 q 422 786 444 829 q 386 694 400 743 q 366 595 372 646 q 359 494 359 544 q 366 394 359 445 q 387 294 372 342 q 423 203 401 246 q 476 128 445 161 q 549 75 508 95 q 642 50 590 54 q 736 75 694 54 q 809 129 777 96 q 862 204 840 161 q 898 295 884 248 q 919 394 912 343 q 925 494 925 446 q 919 595 925 544 q 898 695 912 646 q 862 786 884 743 q 809 863 840 829 q 735 917 777 896 q 642 942 694 938 m 618 21 q 498 41 551 21 q 405 95 445 61 q 336 176 364 130 q 290 274 308 222 q 264 384 272 327 q 256 494 256 440 q 264 605 256 549 q 290 715 272 662 q 336 814 307 768 q 404 896 364 861 q 497 951 444 930 q 618 971 551 971 q 728 951 680 971 q 814 896 777 931 q 878 814 851 861 q 921 715 904 768 q 945 605 937 662 q 953 494 953 549 q 945 384 953 440 q 921 276 938 328 q 879 177 905 223 q 815 96 852 130 q 729 41 778 61 q 618 21 680 21 m 618 -28 q 719 -18 665 -28 q 827 14 773 -9 q 931 76 881 37 q 1020 173 981 115 q 1081 310 1058 231 q 1104 494 1104 390 q 1081 676 1104 597 q 1021 813 1059 755 q 933 911 983 871 q 829 974 884 950 q 721 1009 775 998 q 618 1019 666 1019 q 515 1010 571 1019 q 401 978 458 1001 q 291 917 345 956 q 196 820 237 878 q 130 681 155 762 q 104 494 104 601 q 129 313 104 391 q 193 176 153 234 q 285 79 233 118 q 395 16 338 40 q 509 -18 452 -7 q 618 -28 567 -28 m 642 -58 q 400 -19 505 -58 q 223 93 295 21 q 114 268 151 165 q 77 494 77 370 q 114 721 77 619 q 223 896 151 823 q 400 1007 295 968 q 642 1047 505 1047 q 874 1010 770 1047 q 1054 904 979 974 q 1168 730 1128 833 q 1208 494 1208 627 q 1168 258 1208 361 q 1054 85 1128 155 q 874 -22 979 14 q 642 -58 770 -58 m 468 1121 l 631 1242 l 795 1121 l 846 1121 l 672 1346 l 591 1346 l 418 1121 l 468 1121 m 786 1093 l 655 1189 l 526 1093 l 362 1093 l 578 1374 l 734 1374 l 949 1093 l 786 1093 z "},"":{"ha":1280,"x_min":77,"x_max":1208,"o":"m 642 942 q 548 917 589 938 q 475 862 507 896 q 422 786 444 829 q 386 694 400 743 q 366 595 372 646 q 359 494 359 544 q 366 394 359 445 q 387 294 372 342 q 423 203 401 246 q 476 128 445 161 q 549 75 508 95 q 642 50 590 54 q 736 75 694 54 q 809 129 777 96 q 862 204 840 161 q 898 295 884 248 q 919 394 912 343 q 925 494 925 446 q 919 595 925 544 q 898 695 912 646 q 862 786 884 743 q 809 863 840 829 q 735 917 777 896 q 642 942 694 938 m 618 21 q 498 41 551 21 q 405 95 445 61 q 336 176 364 130 q 290 274 308 222 q 264 384 272 327 q 256 494 256 440 q 264 605 256 549 q 290 715 272 662 q 336 814 307 768 q 404 896 364 861 q 497 951 444 930 q 618 971 551 971 q 728 951 680 971 q 814 896 777 931 q 878 814 851 861 q 921 715 904 768 q 945 605 937 662 q 953 494 953 549 q 945 384 953 440 q 921 276 938 328 q 879 177 905 223 q 815 96 852 130 q 729 41 778 61 q 618 21 680 21 m 618 -28 q 719 -18 665 -28 q 827 14 773 -9 q 931 76 881 37 q 1020 173 981 115 q 1081 310 1058 231 q 1104 494 1104 390 q 1081 676 1104 597 q 1021 813 1059 755 q 933 911 983 871 q 829 974 884 950 q 721 1009 775 998 q 618 1019 666 1019 q 515 1010 571 1019 q 401 978 458 1001 q 291 917 345 956 q 196 820 237 878 q 130 681 155 762 q 104 494 104 601 q 129 313 104 391 q 193 176 153 234 q 285 79 233 118 q 395 16 338 40 q 509 -18 452 -7 q 618 -28 567 -28 m 642 -58 q 400 -19 505 -58 q 223 93 295 21 q 114 268 151 165 q 77 494 77 370 q 114 721 77 619 q 223 896 151 823 q 400 1007 295 968 q 642 1047 505 1047 q 874 1010 770 1047 q 1054 904 979 974 q 1168 730 1128 833 q 1208 494 1208 627 q 1168 258 1208 361 q 1054 85 1128 155 q 874 -22 979 14 q 642 -58 770 -58 m 845 1307 l 803 1307 q 734 1257 788 1257 q 641 1278 713 1257 q 538 1299 570 1299 q 392 1162 446 1299 l 429 1162 q 506 1204 461 1204 q 598 1183 536 1204 q 693 1162 660 1162 q 845 1307 802 1162 m 782 1335 l 931 1335 q 742 1135 870 1135 q 532 1171 674 1135 q 492 1135 514 1162 l 351 1135 q 538 1326 428 1326 q 750 1289 602 1326 q 782 1335 771 1300 z "},"":{"ha":1280,"x_min":77,"x_max":1208,"o":"m 642 942 q 548 917 589 938 q 475 862 507 896 q 422 786 444 829 q 386 694 400 743 q 366 595 372 646 q 359 494 359 544 q 366 394 359 445 q 387 294 372 342 q 423 203 401 246 q 476 128 445 161 q 549 75 508 95 q 642 50 590 54 q 736 75 694 54 q 809 129 777 96 q 862 204 840 161 q 898 295 884 248 q 919 394 912 343 q 925 494 925 446 q 919 595 925 544 q 898 695 912 646 q 862 786 884 743 q 809 863 840 829 q 735 917 777 896 q 642 942 694 938 m 618 21 q 498 41 551 21 q 405 95 445 61 q 336 176 364 130 q 290 274 308 222 q 264 384 272 327 q 256 494 256 440 q 264 605 256 549 q 290 715 272 662 q 336 814 307 768 q 404 896 364 861 q 497 951 444 930 q 618 971 551 971 q 728 951 680 971 q 814 896 777 931 q 878 814 851 861 q 921 715 904 768 q 945 605 937 662 q 953 494 953 549 q 945 384 953 440 q 921 276 938 328 q 879 177 905 223 q 815 96 852 130 q 729 41 778 61 q 618 21 680 21 m 618 -28 q 719 -18 665 -28 q 827 14 773 -9 q 931 76 881 37 q 1020 173 981 115 q 1081 310 1058 231 q 1104 494 1104 390 q 1081 676 1104 597 q 1021 813 1059 755 q 933 911 983 871 q 829 974 884 950 q 721 1009 775 998 q 618 1019 666 1019 q 515 1010 571 1019 q 401 978 458 1001 q 291 917 345 956 q 196 820 237 878 q 130 681 155 762 q 104 494 104 601 q 129 313 104 391 q 193 176 153 234 q 285 79 233 118 q 395 16 338 40 q 509 -18 452 -7 q 618 -28 567 -28 m 642 -58 q 400 -19 505 -58 q 223 93 295 21 q 114 268 151 165 q 77 494 77 370 q 114 721 77 619 q 223 896 151 823 q 400 1007 295 968 q 642 1047 505 1047 q 874 1010 770 1047 q 1054 904 979 974 q 1168 730 1128 833 q 1208 494 1208 627 q 1168 258 1208 361 q 1054 85 1128 155 q 874 -22 979 14 q 642 -58 770 -58 m 431 1297 q 410 1239 410 1274 q 416 1206 410 1221 q 432 1180 422 1191 q 456 1162 442 1168 q 484 1156 469 1156 q 511 1162 498 1156 q 535 1180 525 1168 q 551 1206 545 1191 q 557 1239 557 1221 q 551 1272 557 1257 q 535 1298 545 1287 q 511 1316 525 1310 q 484 1322 498 1322 q 456 1316 469 1322 q 431 1297 442 1310 m 684 1297 q 663 1239 663 1274 q 668 1207 663 1222 q 684 1180 674 1192 q 708 1162 694 1169 q 736 1156 721 1156 q 765 1162 751 1156 q 788 1180 778 1169 q 804 1207 798 1192 q 810 1239 810 1222 q 804 1271 810 1256 q 788 1297 798 1286 q 765 1316 778 1309 q 736 1322 751 1322 q 684 1297 706 1322 m 746 1350 q 899 1239 899 1350 q 746 1128 899 1128 q 681 1148 710 1128 q 640 1202 652 1168 q 493 1128 620 1128 q 450 1137 470 1128 q 415 1161 430 1145 q 391 1196 400 1176 q 382 1239 382 1217 q 391 1282 382 1261 q 415 1317 400 1302 q 450 1341 430 1333 q 493 1350 470 1350 q 640 1275 620 1350 q 681 1329 652 1308 q 746 1350 710 1350 z "},"":{"ha":1065,"x_min":171,"x_max":899,"o":"m 210 237 l 265 182 l 510 427 l 755 182 l 810 237 l 566 482 l 811 728 l 755 783 l 510 538 l 265 782 l 210 728 l 454 482 l 210 237 m 265 143 l 171 237 l 415 482 l 171 728 l 265 821 l 314 821 l 533 600 l 755 822 l 804 822 l 899 728 l 653 482 l 897 237 l 804 143 l 755 143 l 533 363 l 314 143 l 265 143 z "},"":{"ha":1280,"x_min":77,"x_max":1208,"o":"m 953 494 q 936 331 953 410 q 881 181 918 253 q 776 65 844 109 q 618 21 708 21 q 395 111 492 21 l 886 799 q 953 494 953 671 m 256 494 q 274 658 256 579 q 333 809 293 737 q 446 926 372 882 q 618 971 519 971 q 843 865 755 971 l 345 171 q 256 494 256 309 m 961 903 l 1069 1054 l 1010 1099 l 900 946 q 618 1019 774 1019 q 488 1005 553 1019 q 352 954 422 991 q 227 860 281 917 q 139 708 174 803 q 104 494 104 614 q 281 82 104 220 l 165 -79 l 225 -123 l 342 40 q 618 -28 467 -28 q 742 -14 681 -28 q 870 37 803 0 q 988 130 937 74 q 1072 280 1039 186 q 1104 494 1104 375 q 961 903 1104 762 m 349 3 l 232 -163 l 126 -86 l 243 77 q 77 494 77 222 q 113 720 77 621 q 208 879 150 819 q 342 978 265 939 q 493 1033 419 1018 q 643 1047 567 1047 q 904 999 794 1047 l 1003 1137 l 1108 1061 l 1017 935 q 1208 494 1208 762 q 1172 270 1208 368 q 1077 111 1135 171 q 942 13 1019 52 q 792 -41 865 -26 q 642 -56 718 -56 q 349 3 500 -56 m 359 494 q 390 283 359 376 l 808 864 q 644 942 746 932 q 509 893 567 936 q 420 783 452 850 q 374 643 389 715 q 359 494 359 571 m 925 494 q 884 751 925 629 l 453 144 q 536 78 485 103 q 639 49 587 53 q 774 97 717 54 q 864 207 832 140 q 910 346 896 273 q 925 494 925 418 z "},"":{"ha":1271,"x_min":14,"x_max":1215,"o":"m 171 900 q 20 940 170 925 q 14 981 14 961 q 22 1028 14 1003 q 184 1024 82 1028 q 326 1021 286 1021 q 439 1022 355 1021 q 583 1023 522 1023 q 590 982 590 1003 q 585 940 590 962 q 433 900 435 925 q 431 404 431 852 q 484 152 431 233 q 663 64 538 71 q 866 160 794 72 q 937 404 937 248 q 933 889 937 726 q 787 943 932 922 q 782 977 782 960 q 791 1025 782 997 q 1021 1019 983 1019 q 1206 1023 1093 1019 q 1215 981 1215 994 q 1206 939 1215 960 q 1064 889 1065 925 q 1057 404 1057 758 q 1029 216 1057 298 q 959 83 1002 134 q 859 1 916 33 q 749 -44 802 -32 q 642 -56 696 -56 q 454 -36 533 -56 q 310 32 375 -17 q 211 174 244 81 q 178 404 178 267 q 171 900 178 736 m 329 901 q 555 966 330 953 q 555 999 559 979 q 278 993 378 993 q 41 999 195 993 q 41 966 36 986 q 92 961 72 964 q 140 951 111 958 q 183 931 168 945 q 199 900 199 918 q 205 404 205 685 q 237 188 205 275 q 330 54 268 100 q 466 -10 392 8 q 642 -28 539 -28 q 742 -17 692 -28 q 844 25 791 -5 q 938 103 897 56 q 1004 228 978 150 q 1029 404 1029 306 q 1036 890 1029 729 q 1186 964 1039 950 q 1186 996 1192 975 q 1004 991 1059 991 q 811 996 920 991 q 811 964 806 985 q 961 890 960 950 q 965 404 965 728 q 881 131 965 227 q 639 36 796 36 q 397 123 468 36 q 326 404 326 211 q 329 901 326 810 m 686 1157 l 522 1361 q 460 1393 498 1393 q 417 1377 433 1393 q 401 1335 401 1361 q 427 1285 401 1300 l 667 1132 l 686 1157 m 592 1379 l 770 1158 l 724 1095 l 675 1095 l 408 1264 q 374 1335 374 1286 q 397 1397 374 1374 q 460 1421 421 1421 q 592 1379 559 1421 z "},"":{"ha":1271,"x_min":14,"x_max":1215,"o":"m 171 900 q 20 940 170 925 q 14 981 14 961 q 22 1028 14 1003 q 184 1024 82 1028 q 326 1021 286 1021 q 439 1022 355 1021 q 583 1023 522 1023 q 590 982 590 1003 q 585 940 590 962 q 433 900 435 925 q 431 404 431 852 q 484 152 431 233 q 663 64 538 71 q 866 160 794 72 q 937 404 937 248 q 933 889 937 726 q 787 943 932 922 q 782 977 782 960 q 791 1025 782 997 q 1021 1019 983 1019 q 1206 1023 1093 1019 q 1215 981 1215 994 q 1206 939 1215 960 q 1064 889 1065 925 q 1057 404 1057 758 q 1029 216 1057 298 q 959 83 1002 134 q 859 1 916 33 q 749 -44 802 -32 q 642 -56 696 -56 q 454 -36 533 -56 q 310 32 375 -17 q 211 174 244 81 q 178 404 178 267 q 171 900 178 736 m 329 901 q 555 966 330 953 q 555 999 559 979 q 278 993 378 993 q 41 999 195 993 q 41 966 36 986 q 92 961 72 964 q 140 951 111 958 q 183 931 168 945 q 199 900 199 918 q 205 404 205 685 q 237 188 205 275 q 330 54 268 100 q 466 -10 392 8 q 642 -28 539 -28 q 742 -17 692 -28 q 844 25 791 -5 q 938 103 897 56 q 1004 228 978 150 q 1029 404 1029 306 q 1036 890 1029 729 q 1186 964 1039 950 q 1186 996 1192 975 q 1004 991 1059 991 q 811 996 920 991 q 811 964 806 985 q 961 890 960 950 q 965 404 965 728 q 881 131 965 227 q 639 36 796 36 q 397 123 468 36 q 326 404 326 211 q 329 901 326 810 m 773 1361 l 610 1157 l 629 1132 l 869 1285 q 895 1335 895 1300 q 878 1377 895 1361 q 836 1393 862 1393 q 773 1361 798 1393 m 575 1158 l 751 1378 q 836 1421 786 1421 l 884 1421 q 947 1397 924 1421 q 970 1335 970 1374 q 936 1264 970 1286 l 669 1095 l 621 1095 l 575 1158 z "},"":{"ha":1271,"x_min":14,"x_max":1215,"o":"m 171 900 q 20 940 170 925 q 14 981 14 961 q 22 1028 14 1003 q 184 1024 82 1028 q 326 1021 286 1021 q 439 1022 355 1021 q 583 1023 522 1023 q 590 982 590 1003 q 585 940 590 962 q 433 900 435 925 q 431 404 431 852 q 484 152 431 233 q 663 64 538 71 q 866 160 794 72 q 937 404 937 248 q 933 889 937 726 q 787 943 932 922 q 782 977 782 960 q 791 1025 782 997 q 1021 1019 983 1019 q 1206 1023 1093 1019 q 1215 981 1215 994 q 1206 939 1215 960 q 1064 889 1065 925 q 1057 404 1057 758 q 1029 216 1057 298 q 959 83 1002 134 q 859 1 916 33 q 749 -44 802 -32 q 642 -56 696 -56 q 454 -36 533 -56 q 310 32 375 -17 q 211 174 244 81 q 178 404 178 267 q 171 900 178 736 m 329 901 q 555 966 330 953 q 555 999 559 979 q 278 993 378 993 q 41 999 195 993 q 41 966 36 986 q 92 961 72 964 q 140 951 111 958 q 183 931 168 945 q 199 900 199 918 q 205 404 205 685 q 237 188 205 275 q 330 54 268 100 q 466 -10 392 8 q 642 -28 539 -28 q 742 -17 692 -28 q 844 25 791 -5 q 938 103 897 56 q 1004 228 978 150 q 1029 404 1029 306 q 1036 890 1029 729 q 1186 964 1039 950 q 1186 996 1192 975 q 1004 991 1059 991 q 811 996 920 991 q 811 964 806 985 q 961 890 960 950 q 965 404 965 728 q 881 131 965 227 q 639 36 796 36 q 397 123 468 36 q 326 404 326 211 q 329 901 326 810 m 490 1121 l 654 1242 l 818 1121 l 868 1121 l 694 1346 l 614 1346 l 440 1121 l 490 1121 m 808 1093 l 677 1189 l 549 1093 l 385 1093 l 600 1374 l 757 1374 l 972 1093 l 808 1093 z "},"":{"ha":1271,"x_min":14,"x_max":1215,"o":"m 171 900 q 20 940 170 925 q 14 981 14 961 q 22 1028 14 1003 q 184 1024 82 1028 q 326 1021 286 1021 q 439 1022 355 1021 q 583 1023 522 1023 q 590 982 590 1003 q 585 940 590 962 q 433 900 435 925 q 431 404 431 852 q 484 152 431 233 q 663 64 538 71 q 866 160 794 72 q 937 404 937 248 q 933 889 937 726 q 787 943 932 922 q 782 977 782 960 q 791 1025 782 997 q 1021 1019 983 1019 q 1206 1023 1093 1019 q 1215 981 1215 994 q 1206 939 1215 960 q 1064 889 1065 925 q 1057 404 1057 758 q 1029 216 1057 298 q 959 83 1002 134 q 859 1 916 33 q 749 -44 802 -32 q 642 -56 696 -56 q 454 -36 533 -56 q 310 32 375 -17 q 211 174 244 81 q 178 404 178 267 q 171 900 178 736 m 329 901 q 555 966 330 953 q 555 999 559 979 q 278 993 378 993 q 41 999 195 993 q 41 966 36 986 q 92 961 72 964 q 140 951 111 958 q 183 931 168 945 q 199 900 199 918 q 205 404 205 685 q 237 188 205 275 q 330 54 268 100 q 466 -10 392 8 q 642 -28 539 -28 q 742 -17 692 -28 q 844 25 791 -5 q 938 103 897 56 q 1004 228 978 150 q 1029 404 1029 306 q 1036 890 1029 729 q 1186 964 1039 950 q 1186 996 1192 975 q 1004 991 1059 991 q 811 996 920 991 q 811 964 806 985 q 961 890 960 950 q 965 404 965 728 q 881 131 965 227 q 639 36 796 36 q 397 123 468 36 q 326 404 326 211 q 329 901 326 810 m 440 1297 q 419 1239 419 1274 q 425 1206 419 1221 q 441 1180 431 1191 q 465 1162 452 1168 q 493 1156 479 1156 q 521 1162 507 1156 q 545 1180 534 1168 q 561 1206 555 1191 q 567 1239 567 1221 q 561 1272 567 1257 q 545 1298 555 1287 q 521 1316 534 1310 q 493 1322 507 1322 q 465 1316 479 1322 q 440 1297 452 1310 m 693 1297 q 672 1239 672 1274 q 678 1207 672 1222 q 694 1180 684 1192 q 717 1162 704 1169 q 746 1156 730 1156 q 774 1162 761 1156 q 798 1180 787 1169 q 813 1207 808 1192 q 819 1239 819 1222 q 813 1271 819 1256 q 798 1297 808 1286 q 774 1316 787 1309 q 746 1322 761 1322 q 693 1297 715 1322 m 755 1350 q 908 1239 908 1350 q 755 1128 908 1128 q 690 1148 720 1128 q 650 1202 661 1168 q 503 1128 629 1128 q 459 1137 479 1128 q 425 1161 439 1145 q 401 1196 410 1176 q 392 1239 392 1217 q 401 1282 392 1261 q 425 1317 410 1302 q 459 1341 439 1333 q 503 1350 479 1350 q 650 1275 629 1350 q 690 1329 661 1308 q 755 1350 720 1350 z "},"":{"ha":1067,"x_min":-14,"x_max":1031,"o":"m 656 96 q 807 56 657 71 q 804 -31 817 16 q 524 -28 618 -28 q 244 -31 431 -28 q 244 56 222 9 q 393 94 392 71 q 401 431 400 282 l 149 871 q -8 939 115 926 q -14 979 -14 960 q -5 1025 -14 1000 q 332 1019 138 1019 q 539 1022 472 1019 q 546 982 546 999 q 539 937 546 962 q 439 925 467 932 q 411 904 411 918 q 576 603 411 900 q 761 913 761 909 q 753 925 761 920 q 731 934 745 930 q 705 939 717 937 q 678 942 693 940 q 660 943 663 943 q 664 1025 648 979 q 850 1019 789 1019 q 1015 1025 907 1019 q 1015 939 1031 978 q 878 876 911 929 l 648 509 q 656 96 648 233 m 421 93 q 264 28 419 43 q 264 -5 257 11 q 778 -4 564 0 q 778 29 783 9 q 551 93 553 43 q 545 395 545 288 l 854 890 q 996 965 895 956 q 996 997 1002 977 q 842 993 920 993 q 684 997 771 993 q 684 965 677 986 q 790 921 783 954 q 782 890 793 908 l 536 485 l 314 882 q 329 941 290 926 q 513 965 367 956 q 513 997 518 985 q 14 997 313 987 q 14 965 8 985 q 174 882 134 954 l 429 436 q 421 93 428 277 m 671 1361 l 507 1157 l 526 1132 l 767 1285 q 792 1335 792 1300 q 776 1377 792 1361 q 734 1393 760 1393 q 671 1361 696 1393 m 473 1158 l 649 1378 q 734 1421 684 1421 l 782 1421 q 845 1397 821 1421 q 868 1335 868 1374 q 833 1264 868 1286 l 567 1095 l 518 1095 l 473 1158 z "},"":{"ha":978,"x_min":35,"x_max":946,"o":"m 508 751 q 693 525 693 751 q 644 349 693 415 q 501 283 595 283 q 353 298 411 283 q 354 733 347 482 q 508 751 416 751 m 358 900 q 585 965 359 951 q 585 997 589 978 q 307 991 407 991 q 71 997 224 991 q 71 965 65 985 q 229 900 229 950 q 228 93 231 625 q 71 28 228 43 q 71 -4 65 17 q 307 0 186 0 q 585 -4 452 0 q 585 28 590 7 q 358 93 359 41 q 353 254 355 146 q 554 225 435 225 q 767 310 692 225 q 842 524 842 395 q 766 732 842 654 q 562 810 690 810 q 355 782 431 810 q 358 900 355 822 m 665 525 q 525 722 665 713 q 457 713 486 721 q 456 319 452 532 q 517 311 485 314 q 627 375 589 317 q 665 525 665 433 m 463 899 q 461 831 461 875 q 611 838 510 838 q 855 752 764 838 q 946 524 946 667 q 856 290 946 383 q 603 197 766 197 q 457 204 493 197 q 463 94 460 132 q 466 86 463 90 q 478 78 469 82 q 506 68 486 74 q 568 57 526 62 q 615 50 610 52 q 611 -33 627 12 q 307 -28 361 -28 q 52 -33 271 -28 q 52 54 35 14 q 200 94 199 69 q 200 899 208 494 q 49 939 200 924 q 52 1026 37 983 q 213 1023 111 1026 q 355 1019 315 1019 q 467 1021 383 1019 q 612 1022 550 1022 q 614 939 625 983 q 463 899 464 924 z "},"":{"ha":875,"x_min":26,"x_max":814,"o":"m 90 -29 l 37 -29 q 37 53 26 11 q 150 94 149 64 q 153 761 153 161 q 460 1057 158 1057 q 569 1044 518 1057 q 664 1003 621 1031 q 732 925 707 975 q 757 807 757 875 q 646 567 757 636 q 814 281 814 510 q 787 129 814 201 q 703 4 761 56 q 566 -47 644 -47 q 389 3 453 -47 l 390 -28 l 90 -29 m 570 281 q 564 352 570 322 q 541 417 558 382 q 482 473 524 453 q 378 496 440 493 q 380 155 378 322 q 450 183 404 183 q 534 96 534 183 q 518 46 534 65 q 535 54 528 46 q 549 74 543 61 q 558 101 554 86 q 564 134 562 115 q 568 169 566 153 q 570 205 570 186 q 570 237 570 225 q 570 263 570 249 q 570 281 570 278 m 517 807 q 458 956 517 937 q 378 814 378 939 l 378 593 q 488 651 460 593 q 517 807 517 710 m 514 22 q 444 42 465 22 q 422 89 422 62 q 457 136 422 126 q 457 168 464 153 q 397 146 420 168 q 374 83 374 123 q 413 13 374 45 q 518 -20 453 -20 q 665 73 611 -20 q 718 281 718 165 q 660 477 718 406 q 493 554 602 549 l 493 559 q 661 807 661 607 q 593 977 661 922 q 437 1031 525 1031 q 380 1026 408 1031 q 314 1005 351 1022 q 248 960 276 987 q 200 881 220 933 q 180 761 180 829 q 178 93 180 160 q 62 28 176 43 q 62 -5 56 11 l 293 0 l 288 93 q 282 814 282 215 q 437 986 282 986 q 545 807 545 986 q 541 734 545 766 q 527 670 537 703 q 499 615 517 637 q 451 579 482 593 q 379 566 420 566 l 362 566 l 362 524 l 382 524 q 499 502 453 524 q 565 439 546 479 q 591 364 585 399 q 597 281 597 329 q 585 112 597 171 q 558 38 574 53 q 514 22 542 22 z "},"":{"ha":777,"x_min":77,"x_max":762,"o":"m 224 493 q 274 468 256 488 q 293 419 293 449 q 269 360 293 383 q 207 336 245 336 q 134 365 167 336 q 102 446 102 393 q 186 589 102 534 q 407 644 271 644 q 589 592 536 644 q 642 418 642 541 l 642 180 l 685 182 q 762 129 741 178 l 741 92 q 706 42 720 60 q 666 3 692 25 q 606 -28 640 -18 q 525 -37 571 -37 q 439 5 468 -37 q 248 -47 366 -47 q 160 -32 196 -47 q 107 11 123 -16 q 83 60 90 37 q 77 107 77 83 q 144 256 77 207 q 415 358 211 306 l 415 432 q 392 511 415 486 q 334 536 370 536 q 224 493 257 536 m 443 294 l 443 153 q 310 66 378 66 q 246 85 271 66 q 221 139 221 104 q 267 231 221 195 q 443 294 313 267 m 415 161 l 415 244 q 317 139 317 208 q 338 98 317 110 q 415 161 374 111 m 207 396 q 174 431 183 396 q 207 528 160 486 q 346 568 253 568 q 416 534 390 568 q 443 432 443 500 l 443 338 q 174 240 243 286 q 104 107 104 195 q 136 21 104 61 q 248 -20 167 -20 q 308 -9 279 -20 q 366 23 336 1 q 403 52 396 46 q 426 74 410 58 q 443 90 441 89 q 525 -9 452 -9 q 567 0 543 -9 q 615 37 591 9 q 645 74 639 65 q 665 103 652 83 q 684 131 677 123 q 650 153 675 150 q 574 97 612 96 q 546 136 546 98 l 546 418 q 504 571 546 526 q 358 616 461 616 q 197 569 265 616 q 129 446 129 521 q 153 386 129 407 q 207 364 176 364 q 207 396 216 378 m 454 760 l 290 964 q 227 996 265 996 q 185 980 201 996 q 169 937 169 964 q 194 888 169 903 l 434 734 l 454 760 m 359 982 l 537 761 l 491 697 l 443 697 l 176 867 q 141 937 141 889 q 165 1000 141 977 q 227 1023 189 1023 q 359 982 326 1023 z "},"":{"ha":777,"x_min":77,"x_max":762,"o":"m 224 493 q 274 468 256 488 q 293 419 293 449 q 269 360 293 383 q 207 336 245 336 q 134 365 167 336 q 102 446 102 393 q 186 589 102 534 q 407 644 271 644 q 589 592 536 644 q 642 418 642 541 l 642 180 l 685 182 q 762 129 741 178 l 741 92 q 706 42 720 60 q 666 3 692 25 q 606 -28 640 -18 q 525 -37 571 -37 q 439 5 468 -37 q 248 -47 366 -47 q 160 -32 196 -47 q 107 11 123 -16 q 83 60 90 37 q 77 107 77 83 q 144 256 77 207 q 415 358 211 306 l 415 432 q 392 511 415 486 q 334 536 370 536 q 224 493 257 536 m 443 294 l 443 153 q 310 66 378 66 q 246 85 271 66 q 221 139 221 104 q 267 231 221 195 q 443 294 313 267 m 415 161 l 415 244 q 317 139 317 208 q 338 98 317 110 q 415 161 374 111 m 207 396 q 174 431 183 396 q 207 528 160 486 q 346 568 253 568 q 416 534 390 568 q 443 432 443 500 l 443 338 q 174 240 243 286 q 104 107 104 195 q 136 21 104 61 q 248 -20 167 -20 q 308 -9 279 -20 q 366 23 336 1 q 403 52 396 46 q 426 74 410 58 q 443 90 441 89 q 525 -9 452 -9 q 567 0 543 -9 q 615 37 591 9 q 645 74 639 65 q 665 103 652 83 q 684 131 677 123 q 650 153 675 150 q 574 97 612 96 q 546 136 546 98 l 546 418 q 504 571 546 526 q 358 616 461 616 q 197 569 265 616 q 129 446 129 521 q 153 386 129 407 q 207 364 176 364 q 207 396 216 378 m 429 964 l 266 760 l 285 734 l 526 888 q 551 937 551 903 q 534 980 551 964 q 492 996 518 996 q 429 964 454 996 m 231 761 l 408 981 q 492 1023 442 1023 l 541 1023 q 603 1000 580 1023 q 627 937 627 977 q 592 867 627 889 l 326 697 l 277 697 l 231 761 z "},"":{"ha":777,"x_min":77,"x_max":762,"o":"m 224 493 q 274 468 256 488 q 293 419 293 449 q 269 360 293 383 q 207 336 245 336 q 134 365 167 336 q 102 446 102 393 q 186 589 102 534 q 407 644 271 644 q 589 592 536 644 q 642 418 642 541 l 642 180 l 685 182 q 762 129 741 178 l 741 92 q 706 42 720 60 q 666 3 692 25 q 606 -28 640 -18 q 525 -37 571 -37 q 439 5 468 -37 q 248 -47 366 -47 q 160 -32 196 -47 q 107 11 123 -16 q 83 60 90 37 q 77 107 77 83 q 144 256 77 207 q 415 358 211 306 l 415 432 q 392 511 415 486 q 334 536 370 536 q 224 493 257 536 m 443 294 l 443 153 q 310 66 378 66 q 246 85 271 66 q 221 139 221 104 q 267 231 221 195 q 443 294 313 267 m 415 161 l 415 244 q 317 139 317 208 q 338 98 317 110 q 415 161 374 111 m 207 396 q 174 431 183 396 q 207 528 160 486 q 346 568 253 568 q 416 534 390 568 q 443 432 443 500 l 443 338 q 174 240 243 286 q 104 107 104 195 q 136 21 104 61 q 248 -20 167 -20 q 308 -9 279 -20 q 366 23 336 1 q 403 52 396 46 q 426 74 410 58 q 443 90 441 89 q 525 -9 452 -9 q 567 0 543 -9 q 615 37 591 9 q 645 74 639 65 q 665 103 652 83 q 684 131 677 123 q 650 153 675 150 q 574 97 612 96 q 546 136 546 98 l 546 418 q 504 571 546 526 q 358 616 461 616 q 197 569 265 616 q 129 446 129 521 q 153 386 129 407 q 207 364 176 364 q 207 396 216 378 m 205 724 l 368 844 l 532 724 l 583 724 l 409 949 l 328 949 l 155 724 l 205 724 m 523 696 l 392 791 l 263 696 l 99 696 l 315 977 l 471 977 l 686 696 l 523 696 z "},"":{"ha":777,"x_min":77,"x_max":762,"o":"m 224 493 q 274 468 256 488 q 293 419 293 449 q 269 360 293 383 q 207 336 245 336 q 134 365 167 336 q 102 446 102 393 q 186 589 102 534 q 407 644 271 644 q 589 592 536 644 q 642 418 642 541 l 642 180 l 685 182 q 762 129 741 178 l 741 92 q 706 42 720 60 q 666 3 692 25 q 606 -28 640 -18 q 525 -37 571 -37 q 439 5 468 -37 q 248 -47 366 -47 q 160 -32 196 -47 q 107 11 123 -16 q 83 60 90 37 q 77 107 77 83 q 144 256 77 207 q 415 358 211 306 l 415 432 q 392 511 415 486 q 334 536 370 536 q 224 493 257 536 m 443 294 l 443 153 q 310 66 378 66 q 246 85 271 66 q 221 139 221 104 q 267 231 221 195 q 443 294 313 267 m 415 161 l 415 244 q 317 139 317 208 q 338 98 317 110 q 415 161 374 111 m 207 396 q 174 431 183 396 q 207 528 160 486 q 346 568 253 568 q 416 534 390 568 q 443 432 443 500 l 443 338 q 174 240 243 286 q 104 107 104 195 q 136 21 104 61 q 248 -20 167 -20 q 308 -9 279 -20 q 366 23 336 1 q 403 52 396 46 q 426 74 410 58 q 443 90 441 89 q 525 -9 452 -9 q 567 0 543 -9 q 615 37 591 9 q 645 74 639 65 q 665 103 652 83 q 684 131 677 123 q 650 153 675 150 q 574 97 612 96 q 546 136 546 98 l 546 418 q 504 571 546 526 q 358 616 461 616 q 197 569 265 616 q 129 446 129 521 q 153 386 129 407 q 207 364 176 364 q 207 396 216 378 m 594 909 l 552 909 q 483 860 537 860 q 390 881 462 860 q 287 901 319 901 q 141 765 195 901 l 178 765 q 255 807 210 807 q 347 786 286 807 q 442 765 409 765 q 594 909 551 765 m 531 937 l 680 937 q 491 737 619 737 q 281 774 423 737 q 241 737 263 765 l 100 737 q 287 929 177 929 q 499 892 351 929 q 531 937 520 903 z "},"":{"ha":777,"x_min":77,"x_max":762,"o":"m 224 493 q 274 468 256 488 q 293 419 293 449 q 269 360 293 383 q 207 336 245 336 q 134 365 167 336 q 102 446 102 393 q 186 589 102 534 q 407 644 271 644 q 589 592 536 644 q 642 418 642 541 l 642 180 l 685 182 q 762 129 741 178 l 741 92 q 706 42 720 60 q 666 3 692 25 q 606 -28 640 -18 q 525 -37 571 -37 q 439 5 468 -37 q 248 -47 366 -47 q 160 -32 196 -47 q 107 11 123 -16 q 83 60 90 37 q 77 107 77 83 q 144 256 77 207 q 415 358 211 306 l 415 432 q 392 511 415 486 q 334 536 370 536 q 224 493 257 536 m 443 294 l 443 153 q 310 66 378 66 q 246 85 271 66 q 221 139 221 104 q 267 231 221 195 q 443 294 313 267 m 415 161 l 415 244 q 317 139 317 208 q 338 98 317 110 q 415 161 374 111 m 207 396 q 174 431 183 396 q 207 528 160 486 q 346 568 253 568 q 416 534 390 568 q 443 432 443 500 l 443 338 q 174 240 243 286 q 104 107 104 195 q 136 21 104 61 q 248 -20 167 -20 q 308 -9 279 -20 q 366 23 336 1 q 403 52 396 46 q 426 74 410 58 q 443 90 441 89 q 525 -9 452 -9 q 567 0 543 -9 q 615 37 591 9 q 645 74 639 65 q 665 103 652 83 q 684 131 677 123 q 650 153 675 150 q 574 97 612 96 q 546 136 546 98 l 546 418 q 504 571 546 526 q 358 616 461 616 q 197 569 265 616 q 129 446 129 521 q 153 386 129 407 q 207 364 176 364 q 207 396 216 378 m 180 900 q 159 842 159 877 q 165 809 159 824 q 181 782 171 793 q 205 765 191 771 q 233 758 218 758 q 260 765 247 758 q 284 782 274 771 q 300 809 294 793 q 307 842 307 824 q 300 874 307 859 q 284 901 294 890 q 260 919 274 912 q 233 925 247 925 q 205 919 218 925 q 180 900 191 913 m 433 900 q 412 842 412 877 q 417 809 412 825 q 433 783 423 794 q 457 765 444 772 q 486 758 470 758 q 514 765 500 758 q 537 783 527 772 q 553 809 547 794 q 559 842 559 825 q 553 873 559 859 q 537 900 547 888 q 514 918 527 911 q 486 925 500 925 q 433 900 455 925 m 495 953 q 648 842 648 953 q 495 730 648 730 q 430 751 459 730 q 389 804 401 771 q 242 730 369 730 q 199 739 219 730 q 164 763 179 748 q 140 799 149 779 q 132 842 132 819 q 140 884 132 864 q 164 920 149 905 q 199 944 179 935 q 242 953 219 953 q 389 878 369 953 q 430 932 401 911 q 495 953 459 953 z "},"":{"ha":777,"x_min":77,"x_max":762,"o":"m 224 493 q 274 468 256 488 q 293 419 293 449 q 269 360 293 383 q 207 336 245 336 q 134 365 167 336 q 102 446 102 393 q 186 589 102 534 q 407 644 271 644 q 589 592 536 644 q 642 418 642 541 l 642 180 l 685 182 q 762 129 741 178 l 741 92 q 706 42 720 60 q 666 3 692 25 q 606 -28 640 -18 q 525 -37 571 -37 q 439 5 468 -37 q 248 -47 366 -47 q 160 -32 196 -47 q 107 11 123 -16 q 83 60 90 37 q 77 107 77 83 q 144 256 77 207 q 415 358 211 306 l 415 432 q 392 511 415 486 q 334 536 370 536 q 224 493 257 536 m 443 294 l 443 153 q 310 66 378 66 q 246 85 271 66 q 221 139 221 104 q 267 231 221 195 q 443 294 313 267 m 415 161 l 415 244 q 317 139 317 208 q 338 98 317 110 q 415 161 374 111 m 207 396 q 174 431 183 396 q 207 528 160 486 q 346 568 253 568 q 416 534 390 568 q 443 432 443 500 l 443 338 q 174 240 243 286 q 104 107 104 195 q 136 21 104 61 q 248 -20 167 -20 q 308 -9 279 -20 q 366 23 336 1 q 403 52 396 46 q 426 74 410 58 q 443 90 441 89 q 525 -9 452 -9 q 567 0 543 -9 q 615 37 591 9 q 645 74 639 65 q 665 103 652 83 q 684 131 677 123 q 650 153 675 150 q 574 97 612 96 q 546 136 546 98 l 546 418 q 504 571 546 526 q 358 616 461 616 q 197 569 265 616 q 129 446 129 521 q 153 386 129 407 q 207 364 176 364 q 207 396 216 378 m 229 856 q 239 801 229 826 q 268 756 250 775 q 311 727 286 738 q 366 717 336 717 q 421 727 395 717 q 465 755 446 737 q 495 800 484 774 q 505 856 505 825 q 493 913 505 888 q 462 956 481 939 q 417 983 442 974 q 366 993 392 993 q 317 984 341 993 q 273 957 292 975 q 241 914 253 939 q 229 856 229 888 m 284 854 q 291 887 284 871 q 309 913 298 902 q 335 931 320 924 q 366 937 350 937 q 398 930 383 937 q 425 911 414 923 q 443 885 436 900 q 450 854 450 870 q 443 824 450 838 q 425 798 436 809 q 398 779 413 786 q 366 772 383 772 q 336 779 351 772 q 310 797 321 786 q 291 823 298 808 q 284 854 284 838 m 201 856 q 215 925 201 895 q 253 977 230 956 q 307 1009 277 998 q 366 1021 336 1021 l 415 1021 q 476 1009 446 1021 q 529 976 506 998 q 567 924 553 955 q 581 856 581 894 q 569 789 581 820 q 535 736 557 759 q 482 702 513 714 q 415 689 452 689 l 366 689 q 299 702 330 689 q 247 736 269 714 q 213 789 225 759 q 201 856 201 820 m 361 854 q 391 806 361 822 q 422 854 422 822 q 390 903 422 886 q 361 854 361 890 z "},"":{"ha":1090,"x_min":77,"x_max":1025,"o":"m 724 572 q 802 537 778 572 q 827 450 827 503 q 819 406 827 431 l 555 406 q 624 531 576 490 q 724 572 671 572 m 443 294 l 443 121 q 310 66 382 66 q 246 85 271 66 q 221 139 221 104 q 267 231 221 195 q 443 294 313 267 m 358 616 q 197 569 265 616 q 129 446 129 521 q 153 386 129 407 q 207 364 176 364 q 207 396 216 378 q 183 412 193 396 q 172 452 172 428 q 211 531 172 496 q 336 568 250 567 q 414 533 385 567 q 443 432 443 498 l 443 338 q 174 240 243 286 q 104 107 104 195 q 136 21 104 61 q 248 -20 167 -20 q 343 -4 298 -20 q 414 32 387 12 q 493 94 441 52 q 717 -20 568 -20 q 872 25 800 -20 q 977 161 943 71 q 950 176 966 172 q 934 154 947 172 q 915 129 921 136 q 892 106 908 121 q 862 85 876 92 q 825 72 847 78 q 777 65 803 65 q 610 126 672 65 q 546 288 549 187 l 549 359 l 918 359 q 929 429 929 393 q 884 563 929 509 q 741 616 839 616 q 543 538 625 616 q 358 616 501 616 m 799 450 q 749 541 799 525 q 660 433 689 522 l 798 433 q 798 441 798 436 q 799 450 799 447 m 415 134 l 415 244 q 317 139 317 208 q 342 97 317 107 q 415 134 382 104 m 332 539 q 224 493 257 536 q 274 468 256 488 q 293 419 293 449 q 269 360 293 383 q 207 336 245 336 q 134 365 167 336 q 102 446 102 393 q 180 589 102 534 q 383 644 258 644 q 576 599 511 644 q 789 644 654 644 q 968 582 911 644 q 1025 429 1025 519 q 1006 332 1025 387 l 642 332 l 642 288 q 686 154 644 205 q 800 94 728 103 q 871 123 843 98 q 939 208 899 149 q 1008 165 982 199 q 889 6 970 60 q 717 -47 808 -47 q 510 32 600 -47 q 401 -28 456 -9 q 248 -47 346 -47 q 160 -32 196 -47 q 107 11 123 -16 q 83 60 90 37 q 77 107 77 83 q 144 256 77 207 q 415 358 211 306 l 415 432 q 394 511 415 482 q 332 539 372 539 z "},"":{"ha":739,"x_min":69,"x_max":671,"o":"m 216 -168 l 258 -25 q 181 20 216 -8 q 121 86 146 47 q 83 176 96 125 q 69 288 69 226 q 96 433 69 367 q 168 546 122 498 q 277 618 214 593 q 412 644 340 644 q 511 631 466 644 q 588 595 555 618 q 638 541 620 572 q 656 471 656 509 q 647 428 656 447 q 624 396 639 410 q 589 375 610 382 q 546 368 569 368 q 461 443 461 368 q 519 511 461 490 q 439 542 481 538 q 314 288 314 524 q 446 94 314 110 q 600 203 525 104 q 671 165 645 198 q 627 82 654 119 q 567 19 600 45 q 495 -24 534 -7 q 415 -46 456 -41 q 478 -55 450 -46 q 526 -79 506 -63 q 557 -118 547 -95 q 568 -171 568 -141 q 555 -227 568 -201 q 519 -274 543 -254 q 461 -306 495 -294 q 386 -318 428 -318 q 311 -313 343 -318 q 253 -296 278 -307 q 208 -267 227 -285 q 172 -225 189 -250 l 216 -168 m 315 -77 l 335 -16 q 379 -20 358 -20 q 534 25 463 -20 q 639 161 606 71 q 612 176 629 172 q 584 139 595 151 q 547 106 572 127 q 491 75 522 85 q 422 65 460 65 q 268 127 317 65 q 218 288 218 189 q 412 572 218 572 q 535 547 490 572 q 581 471 581 521 q 546 419 581 429 q 546 387 536 401 q 604 411 581 387 q 628 471 628 435 q 568 575 628 534 q 412 616 509 616 q 188 526 278 616 q 97 288 97 435 q 153 92 97 165 q 294 -7 208 18 l 257 -127 q 322 -118 292 -118 q 387 -174 387 -118 q 367 -219 387 -201 q 314 -237 347 -237 q 225 -205 256 -237 l 207 -227 q 338 -290 249 -290 q 437 -255 401 -290 q 472 -171 472 -220 q 447 -99 472 -123 q 378 -74 421 -74 q 315 -77 330 -74 m 359 -174 q 342 -149 359 -155 q 273 -165 318 -153 q 336 -205 304 -199 q 359 -174 359 -197 z "},"":{"ha":750,"x_min":69,"x_max":685,"o":"m 383 572 q 462 537 437 572 q 486 450 486 503 q 479 406 486 431 l 215 406 q 283 531 236 490 q 383 572 330 572 m 208 359 l 578 359 q 589 429 589 393 q 544 563 589 509 q 400 616 498 616 q 184 524 272 616 q 97 288 97 431 q 180 58 97 135 q 376 -20 264 -20 q 531 25 460 -20 q 636 161 603 71 q 610 176 627 172 q 594 154 607 172 q 574 129 581 136 q 552 106 568 121 q 522 85 536 92 q 485 72 507 78 q 436 65 463 65 q 270 127 332 65 q 205 294 208 189 q 208 359 205 318 m 599 208 q 668 165 642 199 q 549 6 629 60 q 376 -47 468 -47 q 160 37 252 -47 q 69 288 69 121 q 162 542 69 439 q 427 644 256 644 q 685 429 685 644 q 665 332 685 387 l 301 332 l 301 288 q 346 154 304 205 q 460 94 387 103 q 530 123 503 98 q 599 208 558 149 m 458 450 q 408 541 458 525 q 319 433 349 522 l 457 433 q 458 441 457 436 q 458 450 458 447 m 494 760 l 330 964 q 268 996 306 996 q 225 980 241 996 q 210 937 210 964 q 235 888 210 903 l 475 734 l 494 760 m 400 982 l 578 761 l 532 697 l 484 697 l 216 867 q 182 937 182 889 q 205 1000 182 977 q 268 1023 229 1023 q 400 982 367 1023 z "},"":{"ha":750,"x_min":69,"x_max":685,"o":"m 383 572 q 462 537 437 572 q 486 450 486 503 q 479 406 486 431 l 215 406 q 283 531 236 490 q 383 572 330 572 m 208 359 l 578 359 q 589 429 589 393 q 544 563 589 509 q 400 616 498 616 q 184 524 272 616 q 97 288 97 431 q 180 58 97 135 q 376 -20 264 -20 q 531 25 460 -20 q 636 161 603 71 q 610 176 627 172 q 594 154 607 172 q 574 129 581 136 q 552 106 568 121 q 522 85 536 92 q 485 72 507 78 q 436 65 463 65 q 270 127 332 65 q 205 294 208 189 q 208 359 205 318 m 599 208 q 668 165 642 199 q 549 6 629 60 q 376 -47 468 -47 q 160 37 252 -47 q 69 288 69 121 q 162 542 69 439 q 427 644 256 644 q 685 429 685 644 q 665 332 685 387 l 301 332 l 301 288 q 346 154 304 205 q 460 94 387 103 q 530 123 503 98 q 599 208 558 149 m 458 450 q 408 541 458 525 q 319 433 349 522 l 457 433 q 458 441 457 436 q 458 450 458 447 m 458 964 l 295 760 l 314 734 l 555 888 q 580 937 580 903 q 564 980 580 964 q 522 996 547 996 q 458 964 484 996 m 260 761 l 437 981 q 522 1023 471 1023 l 570 1023 q 632 1000 609 1023 q 656 937 656 977 q 621 867 656 889 l 355 697 l 306 697 l 260 761 z "},"":{"ha":750,"x_min":69,"x_max":685,"o":"m 383 572 q 462 537 437 572 q 486 450 486 503 q 479 406 486 431 l 215 406 q 283 531 236 490 q 383 572 330 572 m 208 359 l 578 359 q 589 429 589 393 q 544 563 589 509 q 400 616 498 616 q 184 524 272 616 q 97 288 97 431 q 180 58 97 135 q 376 -20 264 -20 q 531 25 460 -20 q 636 161 603 71 q 610 176 627 172 q 594 154 607 172 q 574 129 581 136 q 552 106 568 121 q 522 85 536 92 q 485 72 507 78 q 436 65 463 65 q 270 127 332 65 q 205 294 208 189 q 208 359 205 318 m 599 208 q 668 165 642 199 q 549 6 629 60 q 376 -47 468 -47 q 160 37 252 -47 q 69 288 69 121 q 162 542 69 439 q 427 644 256 644 q 685 429 685 644 q 665 332 685 387 l 301 332 l 301 288 q 346 154 304 205 q 460 94 387 103 q 530 123 503 98 q 599 208 558 149 m 458 450 q 408 541 458 525 q 319 433 349 522 l 457 433 q 458 441 457 436 q 458 450 458 447 m 203 724 l 367 844 l 531 724 l 581 724 l 408 949 l 327 949 l 153 724 l 203 724 m 522 696 l 391 791 l 262 696 l 98 696 l 313 977 l 470 977 l 685 696 l 522 696 z "},"":{"ha":750,"x_min":69,"x_max":685,"o":"m 383 572 q 462 537 437 572 q 486 450 486 503 q 479 406 486 431 l 215 406 q 283 531 236 490 q 383 572 330 572 m 208 359 l 578 359 q 589 429 589 393 q 544 563 589 509 q 400 616 498 616 q 184 524 272 616 q 97 288 97 431 q 180 58 97 135 q 376 -20 264 -20 q 531 25 460 -20 q 636 161 603 71 q 610 176 627 172 q 594 154 607 172 q 574 129 581 136 q 552 106 568 121 q 522 85 536 92 q 485 72 507 78 q 436 65 463 65 q 270 127 332 65 q 205 294 208 189 q 208 359 205 318 m 599 208 q 668 165 642 199 q 549 6 629 60 q 376 -47 468 -47 q 160 37 252 -47 q 69 288 69 121 q 162 542 69 439 q 427 644 256 644 q 685 429 685 644 q 665 332 685 387 l 301 332 l 301 288 q 346 154 304 205 q 460 94 387 103 q 530 123 503 98 q 599 208 558 149 m 458 450 q 408 541 458 525 q 319 433 349 522 l 457 433 q 458 441 457 436 q 458 450 458 447 m 208 900 q 187 842 187 877 q 193 809 187 824 q 210 782 199 793 q 233 765 220 771 q 261 758 247 758 q 289 765 275 758 q 313 782 302 771 q 329 809 323 793 q 335 842 335 824 q 329 874 335 859 q 313 901 323 890 q 289 919 302 912 q 261 925 275 925 q 233 919 247 925 q 208 900 220 913 m 461 900 q 440 842 440 877 q 446 809 440 825 q 462 783 452 794 q 485 765 472 772 q 514 758 498 758 q 542 765 529 758 q 566 783 555 772 q 582 809 576 794 q 587 842 587 825 q 582 873 587 859 q 566 900 576 888 q 542 918 555 911 q 514 925 529 925 q 461 900 484 925 m 524 953 q 676 842 676 953 q 524 730 676 730 q 458 751 488 730 q 418 804 429 771 q 271 730 397 730 q 228 739 248 730 q 193 763 208 748 q 169 799 178 779 q 160 842 160 819 q 169 884 160 864 q 193 920 178 905 q 228 944 208 935 q 271 953 248 953 q 418 878 397 953 q 458 932 429 911 q 524 953 488 953 z "},"":{"ha":529,"x_min":35,"x_max":545,"o":"m 348 760 l 184 964 q 121 996 159 996 q 79 980 95 996 q 63 937 63 964 q 88 888 63 903 l 328 734 l 348 760 m 254 982 l 431 761 l 385 697 l 337 697 l 70 867 q 35 937 35 889 q 59 1000 35 977 q 121 1023 83 1023 q 254 982 220 1023 m 509 28 q 346 93 347 43 q 340 596 339 300 q 317 614 335 607 q 121 558 222 570 q 121 526 117 542 q 237 498 197 522 q 236 93 243 245 q 121 28 235 43 q 121 -5 114 11 q 509 -5 315 -1 q 509 28 515 11 m 534 53 q 534 -29 545 11 q 96 -29 315 -22 q 96 53 85 11 q 208 94 207 64 q 210 482 217 288 q 96 500 164 496 q 96 586 81 541 q 327 647 199 591 q 436 603 400 642 q 441 94 433 269 q 534 53 444 64 z "},"":{"ha":529,"x_min":40,"x_max":536,"o":"m 339 964 l 176 760 l 195 734 l 435 888 q 460 937 460 903 q 444 980 460 964 q 402 996 428 996 q 339 964 364 996 m 141 761 l 317 981 q 402 1023 352 1023 l 450 1023 q 513 1000 490 1023 q 536 937 536 977 q 502 867 536 889 l 235 697 l 186 697 l 141 761 m 468 28 q 305 93 307 43 q 300 596 298 300 q 276 614 294 607 q 80 558 182 570 q 80 526 76 542 q 197 498 157 522 q 195 93 203 245 q 80 28 194 43 q 80 -5 73 11 q 468 -5 275 -1 q 468 28 475 11 m 493 53 q 493 -29 504 11 q 56 -29 275 -22 q 56 53 44 11 q 168 94 166 64 q 169 482 176 288 q 56 500 123 496 q 56 586 40 541 q 286 647 158 591 q 395 603 359 642 q 401 94 393 269 q 493 53 403 64 z "},"":{"ha":529,"x_min":-33,"x_max":555,"o":"m 73 724 l 237 844 l 401 724 l 451 724 l 277 949 l 197 949 l 23 724 l 73 724 m 391 696 l 260 791 l 132 696 l -33 696 l 183 977 l 340 977 l 555 696 l 391 696 m 463 28 q 300 93 301 43 q 294 596 293 300 q 271 614 289 607 q 75 558 176 570 q 75 526 71 542 q 191 498 151 522 q 190 93 197 245 q 75 28 189 43 q 75 -5 68 11 q 463 -5 269 -1 q 463 28 469 11 m 488 53 q 488 -29 498 11 q 50 -29 269 -22 q 50 53 39 11 q 162 94 161 64 q 163 482 171 288 q 50 500 118 496 q 50 586 35 541 q 281 647 153 591 q 390 603 354 642 q 395 94 387 269 q 488 53 397 64 z "},"":{"ha":529,"x_min":-6,"x_max":510,"o":"m 42 900 q 21 842 21 877 q 27 809 21 824 q 43 782 33 793 q 67 765 54 771 q 95 758 81 758 q 123 765 109 758 q 146 782 136 771 q 163 809 157 793 q 169 842 169 824 q 163 874 169 859 q 146 901 157 890 q 123 919 136 912 q 95 925 109 925 q 67 919 81 925 q 42 900 54 913 m 295 900 q 274 842 274 877 q 280 809 274 825 q 296 783 286 794 q 319 765 306 772 q 348 758 332 758 q 376 765 363 758 q 399 783 389 772 q 415 809 410 794 q 421 842 421 825 q 415 873 421 859 q 399 900 410 888 q 376 918 389 911 q 348 925 363 925 q 295 900 317 925 m 357 953 q 510 842 510 953 q 357 730 510 730 q 292 751 321 730 q 252 804 263 771 q 104 730 231 730 q 61 739 81 730 q 26 763 41 748 q 3 799 12 779 q -6 842 -6 819 q 3 884 -6 864 q 26 920 12 905 q 61 944 41 935 q 104 953 81 953 q 252 878 231 953 q 292 932 263 911 q 357 953 321 953 m 463 28 q 300 93 301 43 q 294 596 293 300 q 271 614 289 607 q 75 558 176 570 q 75 526 71 542 q 191 498 151 522 q 190 93 197 245 q 75 28 189 43 q 75 -5 68 11 q 463 -5 269 -1 q 463 28 469 11 m 488 53 q 488 -29 498 11 q 50 -29 269 -22 q 50 53 39 11 q 162 94 161 64 q 163 482 171 288 q 50 500 118 496 q 50 586 35 541 q 281 647 153 591 q 390 603 354 642 q 395 94 387 269 q 488 53 397 64 z "},"":{"ha":836,"x_min":69,"x_max":757,"o":"m 387 572 q 499 506 457 572 q 541 297 541 440 q 535 215 541 254 q 516 129 530 176 q 469 54 503 82 q 387 25 436 25 q 297 54 334 25 q 245 129 261 82 q 224 215 229 176 q 218 297 218 254 q 224 385 218 343 q 247 472 231 427 q 300 545 264 518 q 387 572 336 572 m 239 765 l 279 722 l 392 836 q 513 585 493 715 q 387 616 469 616 q 247 585 307 616 q 156 504 187 554 q 111 401 125 453 q 97 298 97 350 q 125 144 97 210 q 200 45 154 79 q 293 -4 245 11 q 387 -20 340 -20 q 479 -2 433 -20 q 567 51 525 16 q 635 150 608 86 q 661 297 661 214 q 614 618 661 475 q 447 889 567 761 l 550 991 l 509 1028 l 400 922 q 214 1028 319 981 l 193 993 q 350 873 309 916 l 239 765 m 278 682 l 201 766 l 311 873 q 193 960 272 908 l 154 985 l 203 1063 l 252 1063 q 416 977 345 1019 l 507 1064 l 555 1064 l 640 994 l 536 890 q 712 621 667 760 q 757 297 757 482 q 726 135 757 205 q 647 27 696 65 q 544 -29 597 -11 q 436 -47 490 -47 q 69 298 69 -47 q 84 410 69 354 q 134 522 100 467 q 233 610 168 576 q 387 644 298 644 q 468 643 440 644 q 408 765 446 704 l 326 682 l 278 682 m 513 297 q 411 541 513 517 q 314 297 314 515 q 412 56 314 81 q 513 297 513 81 z "},"":{"ha":914,"x_min":35,"x_max":901,"o":"m 508 31 q 508 -2 500 16 q 861 -2 684 2 q 861 31 871 14 q 694 96 696 39 l 688 437 q 657 573 684 530 q 564 616 631 616 q 296 461 451 616 l 296 596 q 272 614 290 607 q 76 558 178 570 q 76 526 72 542 q 191 498 154 522 q 191 96 199 296 q 75 31 190 46 q 75 -2 66 16 q 429 -2 251 5 q 429 31 437 16 q 301 96 302 45 q 296 418 296 237 q 509 538 432 538 q 583 415 583 538 l 582 96 q 562 50 582 63 q 508 31 541 37 m 486 -26 q 486 56 469 14 q 531 68 508 56 q 554 96 554 80 l 555 415 q 526 505 555 489 q 391 432 476 493 q 397 98 391 245 q 451 56 400 62 q 451 -26 468 14 q 52 -26 252 -19 q 52 56 35 14 q 163 98 162 71 q 163 482 171 289 q 52 500 118 496 q 52 586 36 541 q 282 647 154 591 q 391 603 355 642 l 391 581 q 612 644 488 644 q 743 594 704 644 q 783 437 782 545 q 790 96 786 168 q 886 56 791 68 q 883 -26 901 12 q 486 -26 684 -22 m 692 909 l 650 909 q 581 860 635 860 q 488 881 559 860 q 385 901 416 901 q 239 765 293 901 l 276 765 q 353 807 308 807 q 445 786 383 807 q 540 765 507 765 q 692 909 648 765 m 629 937 l 778 937 q 589 737 717 737 q 379 774 521 737 q 338 737 361 765 l 197 737 q 385 929 275 929 q 597 892 448 929 q 629 937 618 903 z "},"":{"ha":822,"x_min":69,"x_max":757,"o":"m 389 572 q 499 506 458 572 q 541 298 541 439 q 499 92 541 158 q 389 25 458 25 q 318 41 350 25 q 265 92 287 58 q 231 177 243 125 q 218 298 218 228 q 231 420 218 368 q 265 506 243 472 q 318 556 287 539 q 389 572 350 572 m 389 -20 q 502 4 452 -20 q 588 70 552 28 q 642 171 623 113 q 661 298 661 229 q 642 426 661 368 q 588 527 623 484 q 502 593 552 569 q 389 616 452 616 q 267 593 321 616 q 175 527 213 569 q 117 426 138 485 q 97 298 97 368 q 117 170 97 229 q 175 70 138 112 q 267 4 213 27 q 389 -20 321 -20 m 412 644 q 558 619 494 644 q 667 548 623 594 q 734 439 711 503 q 757 298 757 375 q 734 159 757 222 q 667 49 711 95 q 559 -22 623 3 q 412 -47 494 -47 q 267 -22 331 -47 q 159 49 203 3 q 92 158 115 95 q 69 298 69 222 q 92 439 69 375 q 159 548 115 503 q 267 619 203 594 q 412 644 331 644 m 314 298 q 412 56 314 79 q 513 298 513 79 q 412 542 513 515 q 314 298 314 515 m 462 760 l 298 964 q 235 996 273 996 q 193 980 209 996 q 177 937 177 964 q 202 888 177 903 l 442 734 l 462 760 m 368 982 l 545 761 l 499 697 l 451 697 l 184 867 q 149 937 149 889 q 173 1000 149 977 q 235 1023 197 1023 q 368 982 334 1023 z "},"":{"ha":822,"x_min":69,"x_max":757,"o":"m 389 572 q 499 506 458 572 q 541 298 541 439 q 499 92 541 158 q 389 25 458 25 q 318 41 350 25 q 265 92 287 58 q 231 177 243 125 q 218 298 218 228 q 231 420 218 368 q 265 506 243 472 q 318 556 287 539 q 389 572 350 572 m 389 -20 q 502 4 452 -20 q 588 70 552 28 q 642 171 623 113 q 661 298 661 229 q 642 426 661 368 q 588 527 623 484 q 502 593 552 569 q 389 616 452 616 q 267 593 321 616 q 175 527 213 569 q 117 426 138 485 q 97 298 97 368 q 117 170 97 229 q 175 70 138 112 q 267 4 213 27 q 389 -20 321 -20 m 412 644 q 558 619 494 644 q 667 548 623 594 q 734 439 711 503 q 757 298 757 375 q 734 159 757 222 q 667 49 711 95 q 559 -22 623 3 q 412 -47 494 -47 q 267 -22 331 -47 q 159 49 203 3 q 92 158 115 95 q 69 298 69 222 q 92 439 69 375 q 159 548 115 503 q 267 619 203 594 q 412 644 331 644 m 314 298 q 412 56 314 79 q 513 298 513 79 q 412 542 513 515 q 314 298 314 515 m 467 964 l 304 760 l 323 734 l 564 888 q 589 937 589 903 q 572 980 589 964 q 530 996 556 996 q 467 964 492 996 m 269 761 l 446 981 q 530 1023 480 1023 l 578 1023 q 641 1000 618 1023 q 665 937 665 977 q 630 867 665 889 l 363 697 l 315 697 l 269 761 z "},"":{"ha":822,"x_min":69,"x_max":757,"o":"m 389 572 q 499 506 458 572 q 541 298 541 439 q 499 92 541 158 q 389 25 458 25 q 318 41 350 25 q 265 92 287 58 q 231 177 243 125 q 218 298 218 228 q 231 420 218 368 q 265 506 243 472 q 318 556 287 539 q 389 572 350 572 m 389 -20 q 502 4 452 -20 q 588 70 552 28 q 642 171 623 113 q 661 298 661 229 q 642 426 661 368 q 588 527 623 484 q 502 593 552 569 q 389 616 452 616 q 267 593 321 616 q 175 527 213 569 q 117 426 138 485 q 97 298 97 368 q 117 170 97 229 q 175 70 138 112 q 267 4 213 27 q 389 -20 321 -20 m 412 644 q 558 619 494 644 q 667 548 623 594 q 734 439 711 503 q 757 298 757 375 q 734 159 757 222 q 667 49 711 95 q 559 -22 623 3 q 412 -47 494 -47 q 267 -22 331 -47 q 159 49 203 3 q 92 158 115 95 q 69 298 69 222 q 92 439 69 375 q 159 548 115 503 q 267 619 203 594 q 412 644 331 644 m 314 298 q 412 56 314 79 q 513 298 513 79 q 412 542 513 515 q 314 298 314 515 m 228 724 l 391 844 l 555 724 l 606 724 l 432 949 l 351 949 l 178 724 l 228 724 m 546 696 l 415 791 l 286 696 l 122 696 l 338 977 l 494 977 l 709 696 l 546 696 z "},"":{"ha":822,"x_min":69,"x_max":757,"o":"m 389 572 q 499 506 458 572 q 541 298 541 439 q 499 92 541 158 q 389 25 458 25 q 318 41 350 25 q 265 92 287 58 q 231 177 243 125 q 218 298 218 228 q 231 420 218 368 q 265 506 243 472 q 318 556 287 539 q 389 572 350 572 m 389 -20 q 502 4 452 -20 q 588 70 552 28 q 642 171 623 113 q 661 298 661 229 q 642 426 661 368 q 588 527 623 484 q 502 593 552 569 q 389 616 452 616 q 267 593 321 616 q 175 527 213 569 q 117 426 138 485 q 97 298 97 368 q 117 170 97 229 q 175 70 138 112 q 267 4 213 27 q 389 -20 321 -20 m 412 644 q 558 619 494 644 q 667 548 623 594 q 734 439 711 503 q 757 298 757 375 q 734 159 757 222 q 667 49 711 95 q 559 -22 623 3 q 412 -47 494 -47 q 267 -22 331 -47 q 159 49 203 3 q 92 158 115 95 q 69 298 69 222 q 92 439 69 375 q 159 548 115 503 q 267 619 203 594 q 412 644 331 644 m 314 298 q 412 56 314 79 q 513 298 513 79 q 412 542 513 515 q 314 298 314 515 m 622 909 l 580 909 q 511 860 565 860 q 418 881 490 860 q 315 901 347 901 q 169 765 223 901 l 206 765 q 283 807 238 807 q 375 786 313 807 q 470 765 437 765 q 622 909 578 765 m 559 937 l 708 937 q 519 737 647 737 q 309 774 451 737 q 269 737 291 765 l 127 737 q 315 929 205 929 q 527 892 378 929 q 559 937 548 903 z "}}}
